SplineFontDB: 3.2
FontName: AtkinsonHyperPro-Italic
FullName: Atkinson Hyperlegible Pro Italic
FamilyName: Atkinson Hyperlegible Pro
Weight: Book
Copyright: Copyright 2020 Braille Institute of America, Inc.
Version: 1.000
ItalicAngle: -12
UnderlinePosition: -106
UnderlineWidth: 57
Ascent: 800
Descent: 200
InvalidEm: 0
sfntRevision: 0x00010000
LayerCount: 2
Layer: 0 1 "Back" 1
Layer: 1 1 "Fore" 0
XUID: [1021 466 782043844 3810]
StyleMap: 0x0001
FSType: 0
OS2Version: 4
OS2_WeightWidthSlopeOnly: 0
OS2_UseTypoMetrics: 1
CreationTime: 1618935638
ModificationTime: 1695248254
PfmFamily: 81
TTFWeight: 400
TTFWidth: 5
LineGap: 0
VLineGap: 0
Panose: 0 0 0 0 0 0 0 0 0 0
OS2TypoAscent: 950
OS2TypoAOffset: 0
OS2TypoDescent: -290
OS2TypoDOffset: 0
OS2TypoLinegap: 0
OS2WinAscent: 950
OS2WinAOffset: 0
OS2WinDescent: 290
OS2WinDOffset: 0
HheadAscent: 950
HheadAOffset: 0
HheadDescent: -290
HheadDOffset: 0
OS2SubXSize: 650
OS2SubYSize: 699
OS2SubXOff: 0
OS2SubYOff: 140
OS2SupXSize: 650
OS2SupYSize: 699
OS2SupXOff: 0
OS2SupYOff: 479
OS2StrikeYSize: 49
OS2StrikeYPos: 258
OS2CapHeight: 668
OS2XHeight: 496
OS2Vendor: 'NONE'
OS2CodePages: 20000003.00000000
OS2UnicodeRanges: 800000ef.0000204b.00000000.00000000
Lookup: 4 0 1 "'liga' Standard Ligatures lookup 0" { "'liga' Standard Ligatures lookup 0-1"  } ['liga' ('DFLT' <'dflt' > 'grek' <'dflt' > 'latn' <'MOL ' 'dflt' > ) ]
Lookup: 1 0 0 "'zero' Slashed Zero lookup 0" { "'zero' Slashed Zero lookup 0-1"  } ['zero' ('DFLT' <'dflt' > 'grek' <'dflt' > 'latn' <'MOL ' 'dflt' > ) ]
Lookup: 1 0 0 "'aalt' Access All Alternates lookup 0" { "'aalt' Access All Alternates lookup 0 subtable"  } ['aalt' ('DFLT' <'dflt' > 'grek' <'dflt' > 'latn' <'dflt' > ) ]
Lookup: 3 0 0 "'aalt' Access All Alternates lookup 1" { "'aalt' Access All Alternates lookup 1 subtable"  } ['aalt' ('DFLT' <'dflt' > 'grek' <'dflt' > 'latn' <'dflt' > ) ]

StartChar: .notdef
Encoding: 256 -1 0
Width: 523
GlyphClass: 1
Flags: W
HStem: 0 21<77 447> 680 20<76 447>
VStem: 48 21<49 650> 455 20<47 652>
LayerCount: 2
Fore
SplineSet
48 0 m 1,0,-1
 48 700 l 1,1,-1
 475 700 l 1,2,-1
 475 0 l 1,3,-1
 48 0 l 1,0,-1
261 371 m 1,4,-1
 447 680 l 1,5,-1
 76 680 l 1,6,-1
 261 371 l 1,4,-1
455 47 m 1,7,-1
 455 652 l 1,8,-1
 274 350 l 1,9,-1
 455 47 l 1,7,-1
69 49 m 1,10,-1
 249 350 l 1,11,-1
 69 650 l 1,12,-1
 69 49 l 1,10,-1
77 21 m 1,13,-1
 447 21 l 1,14,-1
 262 329 l 1,15,-1
 77 21 l 1,13,-1
EndSplineSet
Validated: 1
EndChar

StartChar: zero
Encoding: 48 48 5
Width: 650
GlyphClass: 1
Flags: W
HStem: -12 75<220.281 384.982> 605 75<283.217 447.716>
VStem: 64 92<138.75 417.251> 512 92<251.175 529.875>
LayerCount: 2
Fore
SplineSet
291 -12 m 0,0,1
 180 -12 180 -12 122 56 c 128,-1,2
 64 124 64 124 64 251 c 0,3,4
 64 289 64 289 70 334 c 0,5,6
 91 501 91 501 169.5 590.5 c 128,-1,7
 248 680 248 680 376 680 c 0,8,9
 488 680 488 680 546 612.5 c 128,-1,10
 604 545 604 545 604 417 c 0,11,12
 604 379 604 379 598 334 c 0,13,14
 577 168 577 168 498.5 78 c 128,-1,15
 420 -12 420 -12 291 -12 c 0,0,1
463 172 m 1,16,17
 495 238 495 238 507 334 c 0,18,19
 509 352 509 352 510.5 371.5 c 128,-1,20
 512 391 512 391 512 411 c 0,21,22
 512 459 512 459 500 503.5 c 128,-1,23
 488 548 488 548 457 576.5 c 128,-1,24
 426 605 426 605 367 605 c 0,25,26
 310 605 310 605 268 574 c 1,27,-1
 463 172 l 1,16,17
300 63 m 0,28,29
 362 63 362 63 406 98 c 1,30,-1
 209 503 l 1,31,32
 191 471 191 471 179.5 428.5 c 128,-1,33
 168 386 168 386 161 334 c 0,34,35
 159 315 159 315 157.5 295.5 c 128,-1,36
 156 276 156 276 156 257 c 0,37,38
 156 204 156 204 169 160 c 128,-1,39
 182 116 182 116 213.5 89.5 c 128,-1,40
 245 63 245 63 300 63 c 0,28,29
EndSplineSet
Validated: 1
Substitution2: "'zero' Slashed Zero lookup 0-1" zero.alt1
Substitution2: "'aalt' Access All Alternates lookup 0 subtable" zero.alt1
Substitution2: "'tnum' Tabular Numbers lookup 14 subtable" zero.tf
EndChar

StartChar: one
Encoding: 49 49 6
Width: 399
GlyphClass: 1
Flags: W
HStem: 0 21G<156 245.251> 503 68<99 244.095> 648 20G<318 383>
VStem: 325 58<635.256 668>
LayerCount: 2
Fore
SplineSet
156 0 m 1,0,-1
 263 503 l 1,1,-1
 85 503 l 1,2,-1
 99 571 l 1,3,4
 170 571 170 571 214.5 583 c 128,-1,5
 259 595 259 595 285 617 c 128,-1,6
 311 639 311 639 325 668 c 1,7,-1
 383 668 l 1,8,-1
 241 0 l 1,9,-1
 156 0 l 1,0,-1
EndSplineSet
Validated: 1
Substitution2: "'tnum' Tabular Numbers lookup 14 subtable" one.tf
Substitution2: "'sups' Superscript lookup 9 subtable" uni00B9
AlternateSubs2: "'aalt' Access All Alternates lookup 1 subtable" uni00B9 one.tf
EndChar

StartChar: two
Encoding: 50 50 7
Width: 561
GlyphClass: 1
Flags: W
HStem: 0 77<129 461> 498 21G<107 185.5> 610 70<250.613 408.942>
VStem: 453 93<418.353 568.327>
LayerCount: 2
Fore
SplineSet
-20 0 m 1,0,-1
 -4 76 l 1,1,2
 60 112 60 112 125 151.5 c 128,-1,3
 190 191 190 191 249 233 c 128,-1,4
 308 275 308 275 354 319.5 c 128,-1,5
 400 364 400 364 426.5 409.5 c 128,-1,6
 453 455 453 455 453 501 c 0,7,8
 453 554 453 554 418 582 c 128,-1,9
 383 610 383 610 339 610 c 0,10,11
 293 610 293 610 246 586.5 c 128,-1,12
 199 563 199 563 172 498 c 1,13,-1
 94 522 l 1,14,15
 165 680 165 680 342 680 c 0,16,17
 397 680 397 680 443 662 c 128,-1,18
 489 644 489 644 517.5 606.5 c 128,-1,19
 546 569 546 569 546 510 c 0,20,21
 546 441 546 441 508.5 379.5 c 128,-1,22
 471 318 471 318 409 264.5 c 128,-1,23
 347 211 347 211 274 164 c 128,-1,24
 201 117 201 117 129 77 c 1,25,-1
 477 77 l 1,26,-1
 461 0 l 1,27,-1
 -20 0 l 1,0,-1
EndSplineSet
Validated: 1
Substitution2: "'tnum' Tabular Numbers lookup 14 subtable" two.tf
Substitution2: "'sups' Superscript lookup 9 subtable" uni00B2
AlternateSubs2: "'aalt' Access All Alternates lookup 1 subtable" uni00B2 two.tf
EndChar

StartChar: three
Encoding: 51 51 8
Width: 576
GlyphClass: 1
Flags: W
HStem: -12 70<174.852 347.603> 315 75<228 352.75> 498 21G<104.6 175.5> 610 70<232.139 399.06>
VStem: 30 86<119.15 159.872> 414 89<119.39 262.215> 444 92<439.062 569.417>
LayerCount: 2
Fore
SplineSet
257 -12 m 0,0,1
 156 -12 156 -12 99.5 36.5 c 128,-1,2
 43 85 43 85 30 158 c 1,3,-1
 116 181 l 1,4,5
 124 126 124 126 159.5 92 c 128,-1,6
 195 58 195 58 259 58 c 0,7,8
 301 58 301 58 336 74 c 128,-1,9
 371 90 371 90 392.5 119 c 128,-1,10
 414 148 414 148 414 187 c 0,11,12
 414 234 414 234 394 260 c 128,-1,13
 374 286 374 286 343 297.5 c 128,-1,14
 312 309 312 309 277 312 c 128,-1,15
 242 315 242 315 212 315 c 1,16,-1
 228 390 l 1,17,18
 268 390 268 390 306.5 393.5 c 128,-1,19
 345 397 345 397 376 408 c 128,-1,20
 407 419 407 419 425.5 442.5 c 128,-1,21
 444 466 444 466 444 506 c 0,22,23
 444 558 444 558 406 584 c 128,-1,24
 368 610 368 610 316 610 c 0,25,26
 255 610 255 610 219.5 579.5 c 128,-1,27
 184 549 184 549 167 498 c 1,28,-1
 89 523 l 1,29,30
 110 593 110 593 170 636.5 c 128,-1,31
 230 680 230 680 321 680 c 0,32,33
 359 680 359 680 397 671.5 c 128,-1,34
 435 663 435 663 466.5 644.5 c 128,-1,35
 498 626 498 626 517 595.5 c 128,-1,36
 536 565 536 565 536 520 c 0,37,38
 536 453 536 453 498.5 410 c 128,-1,39
 461 367 461 367 401 347 c 1,40,41
 459 328 459 328 481 288 c 128,-1,42
 503 248 503 248 503 198 c 0,43,44
 503 145 503 145 476 97 c 128,-1,45
 449 49 449 49 394.5 18.5 c 128,-1,46
 340 -12 340 -12 257 -12 c 0,0,1
EndSplineSet
Validated: 1
Substitution2: "'tnum' Tabular Numbers lookup 14 subtable" three.tf
Substitution2: "'sups' Superscript lookup 9 subtable" uni00B3
AlternateSubs2: "'aalt' Access All Alternates lookup 1 subtable" uni00B3 three.tf
EndChar

StartChar: four
Encoding: 52 52 9
Width: 632
GlyphClass: 1
Flags: W
HStem: 0 21G<318 409.242> 165 79<125 354 457 564> 648 20G<439.811 547>
LayerCount: 2
Fore
SplineSet
318 0 m 1,0,-1
 354 165 l 1,1,-1
 15 165 l 1,2,-1
 32 244 l 1,3,-1
 460 668 l 1,4,-1
 547 668 l 1,5,-1
 457 244 l 1,6,-1
 581 244 l 1,7,-1
 564 165 l 1,8,-1
 440 165 l 1,9,-1
 405 0 l 1,10,-1
 318 0 l 1,0,-1
125 244 m 1,11,-1
 370 244 l 1,12,-1
 436 552 l 1,13,-1
 125 244 l 1,11,-1
EndSplineSet
Validated: 1
Substitution2: "'tnum' Tabular Numbers lookup 14 subtable" four.tf
Substitution2: "'sups' Superscript lookup 9 subtable" uni2074
AlternateSubs2: "'aalt' Access All Alternates lookup 1 subtable" four.tf uni2074
EndChar

StartChar: five
Encoding: 53 53 10
Width: 571
GlyphClass: 1
Flags: W
HStem: -12 72<169.213 330.694> 377 73<204.032 354.465> 587 81<227 541>
VStem: 23 83<124.398 155.94> 408 91<140.393 325.239>
LayerCount: 2
Fore
SplineSet
250 -12 m 0,0,1
 151 -12 151 -12 95.5 35.5 c 128,-1,2
 40 83 40 83 23 154 c 1,3,-1
 106 177 l 1,4,5
 122 118 122 118 156.5 90 c 128,-1,6
 191 62 191 62 240 60 c 0,7,8
 317 58 317 58 362.5 107 c 128,-1,9
 408 156 408 156 408 238 c 0,10,11
 408 310 408 310 370.5 343.5 c 128,-1,12
 333 377 333 377 272 377 c 0,13,14
 223 377 223 377 189.5 355.5 c 128,-1,15
 156 334 156 334 139 305 c 1,16,-1
 61 329 l 1,17,-1
 174 668 l 1,18,-1
 559 668 l 1,19,-1
 541 587 l 1,20,-1
 227 587 l 1,21,-1
 164 400 l 1,22,23
 218 450 218 450 299 450 c 0,24,25
 350 450 350 450 395.5 427 c 128,-1,26
 441 404 441 404 470 358.5 c 128,-1,27
 499 313 499 313 499 247 c 0,28,29
 499 170 499 170 467 111.5 c 128,-1,30
 435 53 435 53 379 20.5 c 128,-1,31
 323 -12 323 -12 250 -12 c 0,0,1
EndSplineSet
Validated: 33
Substitution2: "'tnum' Tabular Numbers lookup 14 subtable" five.tf
Substitution2: "'aalt' Access All Alternates lookup 0 subtable" five.tf
EndChar

StartChar: six
Encoding: 54 54 11
Width: 601
GlyphClass: 1
Flags: W
HStem: -12 70<209.001 363.527> 370 75<235.372 387.393> 610 70<283.501 434.096>
VStem: 60 89<121.839 348.132> 442 90<140.579 313.915>
LayerCount: 2
Fore
SplineSet
279 -12 m 0,0,1
 168 -12 168 -12 114 55 c 128,-1,2
 60 122 60 122 60 238 c 0,3,4
 60 324 60 324 80.5 403 c 128,-1,5
 101 482 101 482 140.5 544.5 c 128,-1,6
 180 607 180 607 238 643.5 c 128,-1,7
 296 680 296 680 370 680 c 0,8,9
 445 680 445 680 490 649 c 128,-1,10
 535 618 535 618 551 573 c 1,11,-1
 463 548 l 1,12,13
 452 577 452 577 427 593.5 c 128,-1,14
 402 610 402 610 361 610 c 0,15,16
 285 610 285 610 233.5 543 c 128,-1,17
 182 476 182 476 162 361 c 1,18,19
 187 398 187 398 231 421.5 c 128,-1,20
 275 445 275 445 334 445 c 256,21,22
 393 445 393 445 437.5 419 c 128,-1,23
 482 393 482 393 507 347 c 128,-1,24
 532 301 532 301 532 240 c 0,25,26
 532 173 532 173 503 115.5 c 128,-1,27
 474 58 474 58 417.5 23 c 128,-1,28
 361 -12 361 -12 279 -12 c 0,0,1
282 58 m 0,29,30
 329 58 329 58 365 80.5 c 128,-1,31
 401 103 401 103 421.5 142.5 c 128,-1,32
 442 182 442 182 442 232 c 0,33,34
 442 294 442 294 406.5 332 c 128,-1,35
 371 370 371 370 308 370 c 0,36,37
 238 370 238 370 193.5 324.5 c 128,-1,38
 149 279 149 279 149 205 c 0,39,40
 149 144 149 144 185 101 c 128,-1,41
 221 58 221 58 282 58 c 0,29,30
EndSplineSet
Validated: 1
Substitution2: "'tnum' Tabular Numbers lookup 14 subtable" six.tf
Substitution2: "'aalt' Access All Alternates lookup 0 subtable" six.tf
EndChar

StartChar: seven
Encoding: 55 55 12
Width: 533
GlyphClass: 1
Flags: W
HStem: 0 21G<29 151.003> 587 81<94 443>
LayerCount: 2
Fore
SplineSet
29 0 m 1,0,-1
 443 587 l 1,1,-1
 76 587 l 1,2,-1
 94 668 l 1,3,-1
 565 668 l 1,4,-1
 548 587 l 1,5,-1
 137 0 l 1,6,-1
 29 0 l 1,0,-1
EndSplineSet
Validated: 1
Substitution2: "'tnum' Tabular Numbers lookup 14 subtable" seven.tf
Substitution2: "'aalt' Access All Alternates lookup 0 subtable" seven.tf
EndChar

StartChar: eight
Encoding: 56 56 13
Width: 613
GlyphClass: 1
Flags: W
HStem: -12 75<177.939 370.578> 317 74<243.586 372.018> 605 75<260.233 390.776>
VStem: 36 91<108.773 249.561> 135 74<425.405 554.261> 425 74<443.161 570.199> 442 90<128.424 269.732>
LayerCount: 2
Fore
SplineSet
264 -12 m 0,0,1
 198 -12 198 -12 146.5 9 c 128,-1,2
 95 30 95 30 65.5 69.5 c 128,-1,3
 36 109 36 109 36 166 c 0,4,5
 36 240 36 240 76.5 291 c 128,-1,6
 117 342 117 342 179 365 c 1,7,8
 135 411 135 411 135 479 c 0,9,10
 135 533 135 533 163 579 c 128,-1,11
 191 625 191 625 237 652.5 c 128,-1,12
 283 680 283 680 336 680 c 0,13,14
 383 680 383 680 420 658 c 128,-1,15
 457 636 457 636 478 599 c 128,-1,16
 499 562 499 562 499 516 c 0,17,18
 499 472 499 472 479.5 432.5 c 128,-1,19
 460 393 460 393 427 365 c 1,20,21
 475 346 475 346 503.5 307 c 128,-1,22
 532 268 532 268 532 212 c 0,23,24
 532 140 532 140 495 90 c 128,-1,25
 458 40 458 40 397.5 14 c 128,-1,26
 337 -12 337 -12 264 -12 c 0,0,1
305 391 m 0,27,28
 337 391 337 391 364 407 c 128,-1,29
 391 423 391 423 408 450 c 128,-1,30
 425 477 425 477 425 509 c 0,31,32
 425 550 425 550 397 577.5 c 128,-1,33
 369 605 369 605 327 605 c 0,34,35
 296 605 296 605 269 589 c 128,-1,36
 242 573 242 573 225.5 546.5 c 128,-1,37
 209 520 209 520 209 487 c 0,38,39
 209 447 209 447 236.5 419 c 128,-1,40
 264 391 264 391 305 391 c 0,27,28
272 63 m 0,41,42
 347 63 347 63 394.5 100.5 c 128,-1,43
 442 138 442 138 442 203 c 0,44,45
 442 256 442 256 403.5 286.5 c 128,-1,46
 365 317 365 317 297 317 c 0,47,48
 223 317 223 317 175 278 c 128,-1,49
 127 239 127 239 127 174 c 0,50,51
 127 122 127 122 166 92.5 c 128,-1,52
 205 63 205 63 272 63 c 0,41,42
EndSplineSet
Validated: 1
Substitution2: "'tnum' Tabular Numbers lookup 14 subtable" eight.tf
Substitution2: "'aalt' Access All Alternates lookup 0 subtable" eight.tf
EndChar

StartChar: nine
Encoding: 57 57 14
Width: 597
GlyphClass: 1
Flags: W
HStem: 0 21G<149 272> 209 79<234.531 332.447> 596 84<266.433 430.606>
VStem: 90 87<346.33 508.537> 485 87<384.364 541.163>
LayerCount: 2
Fore
SplineSet
149 0 m 1,0,-1
 333 211 l 1,1,2
 325 210 325 210 316.5 209.5 c 128,-1,3
 308 209 308 209 300 209 c 0,4,5
 233 209 233 209 186 237.5 c 128,-1,6
 139 266 139 266 114.5 313.5 c 128,-1,7
 90 361 90 361 90 416 c 0,8,9
 90 489 90 489 125.5 548.5 c 128,-1,10
 161 608 161 608 221.5 644 c 128,-1,11
 282 680 282 680 357 680 c 0,12,13
 420 680 420 680 468.5 651.5 c 128,-1,14
 517 623 517 623 544.5 575 c 128,-1,15
 572 527 572 527 572 468 c 0,16,17
 572 437 572 437 562 403 c 128,-1,18
 552 369 552 369 529 335 c 0,19,20
 500 291 500 291 460.5 239.5 c 128,-1,21
 421 188 421 188 381.5 139.5 c 128,-1,22
 342 91 342 91 310.5 54 c 128,-1,23
 279 17 279 17 265 0 c 1,24,-1
 149 0 l 1,0,-1
310 288 m 0,25,26
 359 288 359 288 398.5 314 c 128,-1,27
 438 340 438 340 461.5 381 c 128,-1,28
 485 422 485 422 485 467 c 0,29,30
 485 498 485 498 471 527.5 c 128,-1,31
 457 557 457 557 427.5 576.5 c 128,-1,32
 398 596 398 596 351 596 c 0,33,34
 306 596 306 596 266 574.5 c 128,-1,35
 226 553 226 553 201.5 514 c 128,-1,36
 177 475 177 475 177 423 c 0,37,38
 177 365 177 365 214.5 326.5 c 128,-1,39
 252 288 252 288 310 288 c 0,25,26
EndSplineSet
Validated: 1
Substitution2: "'tnum' Tabular Numbers lookup 14 subtable" nine.tf
Substitution2: "'aalt' Access All Alternates lookup 0 subtable" nine.tf
EndChar

StartChar: A
Encoding: 65 65 15
Width: 623
GlyphClass: 2
Flags: W
HStem: 0 21G<-54 65.3699 457.123 563> 146 80<182 428> 648 20G<326.263 457.263>
AnchorPoint: "Anchor-2" 511 10 basechar 0
AnchorPoint: "Anchor-1" 385 668 basechar 0
AnchorPoint: "Anchor-0" 259 0 basechar 0
LayerCount: 2
Fore
SplineSet
-54 0 m 1,0,-1
 338 668 l 1,1,-1
 454 668 l 1,2,-1
 563 0 l 1,3,-1
 460 0 l 1,4,-1
 439 146 l 1,5,-1
 137 146 l 1,6,-1
 54 0 l 1,7,-1
 -54 0 l 1,0,-1
182 226 m 1,8,-1
 428 226 l 1,9,-1
 379 573 l 1,10,-1
 182 226 l 1,8,-1
EndSplineSet
Validated: 1
Substitution2: "Single Substitution lookup 12 subtable" ordfeminine
Substitution2: "'aalt' Access All Alternates lookup 0 subtable" ordfeminine
EndChar

StartChar: B
Encoding: 66 66 16
Width: 621
GlyphClass: 1
Flags: W
HStem: 0 79<125 393.398> 308 74<190 428.946> 588 80<233 470.335>
VStem: 466 104<146.801 271.383> 502 100<436.786 556.877>
LayerCount: 2
Fore
SplineSet
12 0 m 1,0,-1
 154 668 l 1,1,-1
 405 668 l 2,2,3
 473 668 473 668 516.5 647 c 128,-1,4
 560 626 560 626 581 591.5 c 128,-1,5
 602 557 602 557 602 518 c 0,6,7
 602 470 602 470 573 424 c 128,-1,8
 544 378 544 378 488 352 c 1,9,10
 529 336 529 336 549.5 300.5 c 128,-1,11
 570 265 570 265 570 221 c 0,12,13
 570 183 570 183 553.5 144 c 128,-1,14
 537 105 537 105 503.5 72.5 c 128,-1,15
 470 40 470 40 418.5 20 c 128,-1,16
 367 0 367 0 298 0 c 2,17,-1
 12 0 l 1,0,-1
190 382 m 1,18,-1
 362 382 l 2,19,20
 408 382 408 382 439 399.5 c 128,-1,21
 470 417 470 417 486 444 c 128,-1,22
 502 471 502 471 502 499 c 0,23,24
 502 534 502 534 476.5 561 c 128,-1,25
 451 588 451 588 398 588 c 2,26,-1
 233 588 l 1,27,-1
 190 382 l 1,18,-1
125 79 m 1,28,-1
 306 79 l 2,29,30
 357 79 357 79 392.5 99.5 c 128,-1,31
 428 120 428 120 447 151 c 128,-1,32
 466 182 466 182 466 213 c 0,33,34
 466 251 466 251 437 279.5 c 128,-1,35
 408 308 408 308 346 308 c 2,36,-1
 174 308 l 1,37,-1
 125 79 l 1,28,-1
EndSplineSet
Validated: 1
EndChar

StartChar: C
Encoding: 67 67 17
Width: 657
GlyphClass: 2
Flags: W
HStem: -12 79<237.359 427.318> 498 21G<556 623.333> 600 80<312.286 499.398>
VStem: 51 96<165.053 400.344>
AnchorPoint: "Anchor-1" 418 668 basechar 0
AnchorPoint: "Anchor-0" 293 0 basechar 0
LayerCount: 2
Fore
SplineSet
313 -12 m 0,0,1
 241 -12 241 -12 191 11 c 128,-1,2
 141 34 141 34 110 73 c 128,-1,3
 79 112 79 112 65 161.5 c 128,-1,4
 51 211 51 211 51 263 c 0,5,6
 51 346 51 346 78 421.5 c 128,-1,7
 105 497 105 497 154 555 c 128,-1,8
 203 613 203 613 270.5 646.5 c 128,-1,9
 338 680 338 680 419 680 c 0,10,11
 506 680 506 680 567.5 642.5 c 128,-1,12
 629 605 629 605 653 528 c 1,13,-1
 564 498 l 1,14,15
 548 548 548 548 507 574 c 128,-1,16
 466 600 466 600 409 600 c 0,17,18
 349 600 349 600 300.5 572 c 128,-1,19
 252 544 252 544 218 497 c 128,-1,20
 184 450 184 450 165.5 391.5 c 128,-1,21
 147 333 147 333 147 272 c 0,22,23
 147 212 147 212 168.5 165.5 c 128,-1,24
 190 119 190 119 230 93 c 128,-1,25
 270 67 270 67 323 67 c 0,26,27
 388 67 388 67 433 92 c 128,-1,28
 478 117 478 117 514 171 c 1,29,-1
 593 140 l 1,30,31
 546 64 546 64 474 26 c 128,-1,32
 402 -12 402 -12 313 -12 c 0,0,1
EndSplineSet
Validated: 1
EndChar

StartChar: D
Encoding: 68 68 18
Width: 670
GlyphClass: 2
Flags: W
HStem: 0 79<125 353.686> 588 80<233 447.731>
AnchorPoint: "Anchor-1" 395 668 basechar 0
AnchorPoint: "Anchor-0" 283 0 basechar 0
LayerCount: 2
Fore
SplineSet
12 0 m 1,0,-1
 154 668 l 1,1,-1
 338 668 l 2,2,3
 516 668 516 668 587 581 c 128,-1,4
 658 494 658 494 629 319 c 0,5,6
 611 212 611 212 552 141 c 128,-1,7
 493 70 493 70 402 35 c 128,-1,8
 311 0 311 0 197 0 c 2,9,-1
 12 0 l 1,0,-1
125 79 m 1,10,-1
 211 79 l 2,11,12
 293 79 293 79 360 102.5 c 128,-1,13
 427 126 427 126 473 180 c 128,-1,14
 519 234 519 234 534 325 c 0,15,16
 558 466 558 466 506.5 527 c 128,-1,17
 455 588 455 588 318 588 c 2,18,-1
 233 588 l 1,19,-1
 125 79 l 1,10,-1
EndSplineSet
Validated: 33
EndChar

StartChar: E
Encoding: 69 69 19
Width: 561
GlyphClass: 2
Flags: W
HStem: 0 81<125 467> 304 80<190 437> 587 81<233 592>
AnchorPoint: "Anchor-2" 436 0 basechar 0
AnchorPoint: "Anchor-1" 379 668 basechar 0
AnchorPoint: "Anchor-0" 228 0 basechar 0
LayerCount: 2
Fore
SplineSet
12 0 m 1,0,-1
 154 668 l 1,1,-1
 609 668 l 1,2,-1
 592 587 l 1,3,-1
 233 587 l 1,4,-1
 190 384 l 1,5,-1
 455 384 l 1,6,-1
 437 304 l 1,7,-1
 173 304 l 1,8,-1
 125 81 l 1,9,-1
 484 81 l 1,10,-1
 467 0 l 1,11,-1
 12 0 l 1,0,-1
EndSplineSet
Validated: 1
EndChar

StartChar: F
Encoding: 70 70 20
Width: 542
GlyphClass: 1
Flags: W
HStem: 0 21G<12 112.276> 304 80<190 512> 587 81<233 572>
LayerCount: 2
Fore
SplineSet
12 0 m 1,0,-1
 154 668 l 1,1,-1
 590 668 l 1,2,-1
 572 587 l 1,3,-1
 233 587 l 1,4,-1
 190 384 l 1,5,-1
 529 384 l 1,6,-1
 512 304 l 1,7,-1
 173 304 l 1,8,-1
 108 0 l 1,9,-1
 12 0 l 1,0,-1
EndSplineSet
Validated: 1
EndChar

StartChar: G
Encoding: 71 71 21
Width: 708
GlyphClass: 2
Flags: W
HStem: -12 79<236.348 413.356> 0 21G<521.537 583.302> 264 80<366 545> 498 21G<559 623.333> 600 80<311.4 501.511>
VStem: 52 96<163.287 404.444> 523 56<0 32.5405>
AnchorPoint: "Anchor-1" 443 668 basechar 0
AnchorPoint: "Anchor-0" 301 0 basechar 0
LayerCount: 2
Fore
SplineSet
298 -12 m 0,0,1
 220 -12 220 -12 165 23 c 128,-1,2
 110 58 110 58 81 120.5 c 128,-1,3
 52 183 52 183 52 265 c 0,4,5
 52 349 52 349 78.5 424 c 128,-1,6
 105 499 105 499 153.5 556.5 c 128,-1,7
 202 614 202 614 269 647 c 128,-1,8
 336 680 336 680 416 680 c 0,9,10
 509 680 509 680 570 642 c 128,-1,11
 631 604 631 604 653 528 c 1,12,-1
 564 498 l 1,13,14
 554 536 554 536 516 568 c 128,-1,15
 478 600 478 600 409 600 c 0,16,17
 348 600 348 600 300 572.5 c 128,-1,18
 252 545 252 545 218 498 c 128,-1,19
 184 451 184 451 166 393 c 128,-1,20
 148 335 148 335 148 273 c 0,21,22
 148 177 148 177 195.5 123 c 128,-1,23
 243 69 243 69 315 67 c 0,24,25
 365 65 365 65 410 80.5 c 128,-1,26
 455 96 455 96 489.5 135.5 c 128,-1,27
 524 175 524 175 540 243 c 2,28,-1
 545 264 l 1,29,-1
 349 264 l 1,30,-1
 366 344 l 1,31,-1
 653 344 l 1,32,-1
 579 0 l 1,33,-1
 523 0 l 1,34,-1
 517 82 l 1,35,36
 433 -12 433 -12 298 -12 c 0,0,1
EndSplineSet
Validated: 33
EndChar

StartChar: H
Encoding: 72 72 22
Width: 690
GlyphClass: 1
Flags: W
HStem: 0 21G<12 112.276 458 558.251> 304 80<190 522> 648 20G<149.749 250 595.775 696>
LayerCount: 2
Fore
SplineSet
12 0 m 1,0,-1
 154 668 l 1,1,-1
 250 668 l 1,2,-1
 190 384 l 1,3,-1
 540 384 l 1,4,-1
 600 668 l 1,5,-1
 696 668 l 1,6,-1
 554 0 l 1,7,-1
 458 0 l 1,8,-1
 522 304 l 1,9,-1
 173 304 l 1,10,-1
 108 0 l 1,11,-1
 12 0 l 1,0,-1
EndSplineSet
Validated: 1
EndChar

StartChar: I
Encoding: 73 73 23
Width: 410
GlyphClass: 2
Flags: W
HStem: 0 75<18 111 207 283> 593 75<144 221 316 410>
AnchorPoint: "Anchor-2" 194 0 basechar 0
AnchorPoint: "Anchor-1" 285 668 basechar 0
AnchorPoint: "Anchor-0" 148 0 basechar 0
LayerCount: 2
Fore
SplineSet
2 0 m 1,0,-1
 18 75 l 1,1,-1
 111 75 l 1,2,-1
 221 593 l 1,3,-1
 128 593 l 1,4,-1
 144 668 l 1,5,-1
 425 668 l 1,6,-1
 410 593 l 1,7,-1
 316 593 l 1,8,-1
 207 75 l 1,9,-1
 299 75 l 1,10,-1
 283 0 l 1,11,-1
 2 0 l 1,0,-1
EndSplineSet
Validated: 1
EndChar

StartChar: J
Encoding: 74 74 24
Width: 505
GlyphClass: 1
Flags: W
HStem: -12 77<105.091 250.021> 648 20G<410.736 511>
LayerCount: 2
Fore
SplineSet
161 -12 m 0,0,1
 73 -12 73 -12 27 43.5 c 128,-1,2
 -19 99 -19 99 -9 190 c 1,3,-1
 81 214 l 1,4,5
 79 201 79 201 77.5 189 c 128,-1,6
 76 177 76 177 76 166 c 0,7,8
 76 117 76 117 100 91 c 128,-1,9
 124 65 124 65 173 65 c 0,10,11
 205 65 205 65 233 77 c 128,-1,12
 261 89 261 89 283 121 c 128,-1,13
 305 153 305 153 318 213 c 2,14,-1
 415 668 l 1,15,-1
 511 668 l 1,16,-1
 414 212 l 2,17,18
 397 131 397 131 367 85 c 128,-1,19
 337 39 337 39 301 18.5 c 128,-1,20
 265 -2 265 -2 228.5 -7 c 128,-1,21
 192 -12 192 -12 161 -12 c 0,0,1
EndSplineSet
Validated: 33
EndChar

StartChar: K
Encoding: 75 75 25
Width: 619
GlyphClass: 2
Flags: W
HStem: 0 21G<12 112.286 433.815 549> 648 20G<149.749 250 515.895 668>
AnchorPoint: "Anchor-1" 399 668 basechar 0
AnchorPoint: "Anchor-0" 257 0 basechar 0
LayerCount: 2
Fore
SplineSet
12 0 m 1,0,-1
 154 668 l 1,1,-1
 250 668 l 1,2,-1
 181 345 l 1,3,-1
 538 668 l 1,4,-1
 668 668 l 1,5,-1
 349 385 l 1,6,-1
 549 0 l 1,7,-1
 444 0 l 1,8,-1
 279 324 l 1,9,-1
 153 210 l 1,10,-1
 108 0 l 1,11,-1
 12 0 l 1,0,-1
EndSplineSet
Validated: 1
EndChar

StartChar: L
Encoding: 76 76 26
Width: 537
GlyphClass: 2
Flags: W
HStem: 0 81<125 467> 648 20G<149.749 250>
AnchorPoint: "Anchor-1" 358 668 basechar 0
AnchorPoint: "Anchor-0" 216 0 basechar 0
LayerCount: 2
Fore
SplineSet
12 0 m 1,0,-1
 154 668 l 1,1,-1
 250 668 l 1,2,-1
 125 81 l 1,3,-1
 484 81 l 1,4,-1
 467 0 l 1,5,-1
 12 0 l 1,0,-1
EndSplineSet
Validated: 1
EndChar

StartChar: M
Encoding: 77 77 27
Width: 820
GlyphClass: 1
Flags: W
HStem: 0 21G<12 112.278 300.496 409.055 588 688.251> 648 20G<149.749 312.288 653.225 826>
LayerCount: 2
Fore
SplineSet
12 0 m 1,0,-1
 154 668 l 1,1,-1
 310 668 l 1,2,-1
 372 126 l 1,3,-1
 664 668 l 1,4,-1
 826 668 l 1,5,-1
 684 0 l 1,6,-1
 588 0 l 1,7,-1
 707 559 l 1,8,-1
 398 0 l 1,9,-1
 303 0 l 1,10,-1
 231 575 l 1,11,-1
 108 0 l 1,12,-1
 12 0 l 1,0,-1
EndSplineSet
Validated: 1
EndChar

StartChar: N
Encoding: 78 78 28
Width: 689
GlyphClass: 2
Flags: W
HStem: 0 21G<12 112.271 409.576 557.251> 648 20G<149.749 297.481 594.749 695>
AnchorPoint: "Anchor-1" 434 668 basechar 0
AnchorPoint: "Anchor-0" 262 0 basechar 0
LayerCount: 2
Fore
SplineSet
12 0 m 1,0,-1
 154 668 l 1,1,-1
 291 668 l 1,2,-1
 477 94 l 1,3,-1
 599 668 l 1,4,-1
 695 668 l 1,5,-1
 553 0 l 1,6,-1
 416 0 l 1,7,-1
 231 576 l 1,8,-1
 108 0 l 1,9,-1
 12 0 l 1,0,-1
EndSplineSet
Validated: 1
EndChar

StartChar: O
Encoding: 79 79 29
Width: 724
GlyphClass: 2
Flags: W
HStem: -12 79<237.011 425.429> 600 80<316.327 504.59>
VStem: 53 95<162.166 403.618> 594 95<266.193 504.46>
AnchorPoint: "Anchor-2" 602 10 basechar 0
AnchorPoint: "Anchor-1" 436 668 basechar 0
AnchorPoint: "Anchor-0" 309 0 basechar 0
LayerCount: 2
Fore
SplineSet
310 -12 m 0,0,1
 229 -12 229 -12 171.5 24.5 c 128,-1,2
 114 61 114 61 83.5 124.5 c 128,-1,3
 53 188 53 188 53 268 c 0,4,5
 53 355 53 355 80 429.5 c 128,-1,6
 107 504 107 504 156.5 560.5 c 128,-1,7
 206 617 206 617 276 648.5 c 128,-1,8
 346 680 346 680 431 680 c 0,9,10
 513 680 513 680 570.5 643 c 128,-1,11
 628 606 628 606 658.5 543 c 128,-1,12
 689 480 689 480 689 401 c 0,13,14
 689 315 689 315 661.5 240 c 128,-1,15
 634 165 634 165 583.5 108.5 c 128,-1,16
 533 52 533 52 463.5 20 c 128,-1,17
 394 -12 394 -12 310 -12 c 0,0,1
323 67 m 0,18,19
 386 67 386 67 436.5 94.5 c 128,-1,20
 487 122 487 122 522 169 c 128,-1,21
 557 216 557 216 575.5 275.5 c 128,-1,22
 594 335 594 335 594 399 c 0,23,24
 594 464 594 464 570.5 509 c 128,-1,25
 547 554 547 554 507 577 c 128,-1,26
 467 600 467 600 418 600 c 0,27,28
 355 600 355 600 305 573 c 128,-1,29
 255 546 255 546 220 500 c 128,-1,30
 185 454 185 454 166.5 394.5 c 128,-1,31
 148 335 148 335 148 269 c 0,32,33
 148 204 148 204 171.5 158.5 c 128,-1,34
 195 113 195 113 234.5 90 c 128,-1,35
 274 67 274 67 323 67 c 0,18,19
EndSplineSet
Validated: 1
Substitution2: "Single Substitution lookup 12 subtable" ordmasculine
Substitution2: "'aalt' Access All Alternates lookup 0 subtable" ordmasculine
EndChar

StartChar: P
Encoding: 80 80 30
Width: 593
GlyphClass: 1
Flags: W
HStem: 0 21G<12 112.226> 265 81<182 433.645> 588 80<233 462.979>
VStem: 501 98<406.168 553.717>
LayerCount: 2
Fore
SplineSet
12 0 m 1,0,-1
 154 668 l 1,1,-1
 340 668 l 2,2,3
 383 668 383 668 428.5 662.5 c 128,-1,4
 474 657 474 657 512.5 639.5 c 128,-1,5
 551 622 551 622 575 588 c 128,-1,6
 599 554 599 554 599 497 c 0,7,8
 599 410 599 410 559.5 359 c 128,-1,9
 520 308 520 308 449.5 286.5 c 128,-1,10
 379 265 379 265 285 265 c 2,11,-1
 164 265 l 1,12,-1
 108 0 l 1,13,-1
 12 0 l 1,0,-1
182 346 m 1,14,-1
 309 346 l 2,15,16
 368 346 368 346 411 359 c 128,-1,17
 454 372 454 372 477.5 403 c 128,-1,18
 501 434 501 434 501 488 c 0,19,20
 501 548 501 548 459.5 568 c 128,-1,21
 418 588 418 588 349 588 c 2,22,-1
 233 588 l 1,23,-1
 182 346 l 1,14,-1
EndSplineSet
Validated: 1
EndChar

StartChar: Q
Encoding: 81 81 31
Width: 744
GlyphClass: 1
Flags: W
HStem: 5 79<240.011 429.331> 617 79<319.327 507.59>
VStem: 56 95<179.166 420.119> 597 95<284.943 522.387>
LayerCount: 2
Fore
SplineSet
615 -55 m 1,0,-1
 515 62 l 1,1,2
 475 35 475 35 425 20 c 128,-1,3
 375 5 375 5 313 5 c 0,4,5
 232 5 232 5 174.5 41.5 c 128,-1,6
 117 78 117 78 86.5 141.5 c 128,-1,7
 56 205 56 205 56 285 c 0,8,9
 56 372 56 372 83 446.5 c 128,-1,10
 110 521 110 521 159.5 577 c 128,-1,11
 209 633 209 633 279 664.5 c 128,-1,12
 349 696 349 696 434 696 c 0,13,14
 516 696 516 696 573.5 659 c 128,-1,15
 631 622 631 622 661.5 559.5 c 128,-1,16
 692 497 692 497 692 418 c 0,17,18
 692 367 692 367 679.5 313 c 128,-1,19
 667 259 667 259 643 210 c 128,-1,20
 619 161 619 161 586 123 c 1,21,-1
 685 7 l 1,22,-1
 615 -55 l 1,0,-1
326 84 m 0,23,24
 402 84 402 84 462 124 c 1,25,-1
 326 284 l 1,26,-1
 397 344 l 1,27,-1
 529 190 l 1,28,29
 562 237 562 237 579.5 298.5 c 128,-1,30
 597 360 597 360 597 415 c 0,31,32
 597 481 597 481 573.5 526 c 128,-1,33
 550 571 550 571 510 594 c 128,-1,34
 470 617 470 617 421 617 c 0,35,36
 358 617 358 617 308 590 c 128,-1,37
 258 563 258 563 223 516.5 c 128,-1,38
 188 470 188 470 169.5 410.5 c 128,-1,39
 151 351 151 351 151 286 c 256,40,41
 151 221 151 221 174.5 175.5 c 128,-1,42
 198 130 198 130 237.5 107 c 128,-1,43
 277 84 277 84 326 84 c 0,23,24
EndSplineSet
Validated: 1
EndChar

StartChar: R
Encoding: 82 82 32
Width: 606
GlyphClass: 2
Flags: W
HStem: 0 21G<12 112.27 400.822 516> 281 79<185 268> 588 80<233 465.876>
VStem: 501 98<414.113 556.37>
AnchorPoint: "Anchor-1" 382 668 basechar 0
AnchorPoint: "Anchor-0" 250 0 basechar 0
LayerCount: 2
Fore
SplineSet
12 0 m 1,0,-1
 154 668 l 1,1,-1
 358 668 l 2,2,3
 431 668 431 668 485 653 c 128,-1,4
 539 638 539 638 569 603 c 128,-1,5
 599 568 599 568 599 508 c 0,6,7
 599 408 599 408 537.5 353 c 128,-1,8
 476 298 476 298 369 288 c 1,9,-1
 516 0 l 1,10,-1
 411 0 l 1,11,-1
 268 281 l 1,12,-1
 168 281 l 1,13,-1
 108 0 l 1,14,-1
 12 0 l 1,0,-1
185 360 m 1,15,-1
 309 360 l 2,16,17
 366 360 366 360 409.5 371 c 128,-1,18
 453 382 453 382 477 411 c 128,-1,19
 501 440 501 440 501 495 c 0,20,21
 501 551 501 551 460.5 569.5 c 128,-1,22
 420 588 420 588 350 588 c 2,23,-1
 233 588 l 1,24,-1
 185 360 l 1,15,-1
EndSplineSet
Validated: 1
EndChar

StartChar: S
Encoding: 83 83 33
Width: 605
GlyphClass: 2
Flags: W
HStem: -12 79<198.902 382.485> 601 79<227.674 413.29>
VStem: 85 95<441.809 558.467> 444 98<121.118 243.68>
AnchorPoint: "Anchor-1" 357 668 basechar 0
AnchorPoint: "Anchor-0" 275 0 basechar 0
LayerCount: 2
Fore
SplineSet
283 -12 m 0,0,1
 230 -12 230 -12 180 5 c 128,-1,2
 130 22 130 22 91.5 57.5 c 128,-1,3
 53 93 53 93 34 147 c 1,4,-1
 125 172 l 1,5,6
 144 118 144 118 191.5 92.5 c 128,-1,7
 239 67 239 67 291 67 c 0,8,9
 330 67 330 67 365 80.5 c 128,-1,10
 400 94 400 94 422 120.5 c 128,-1,11
 444 147 444 147 444 184 c 0,12,13
 444 220 444 220 424.5 241.5 c 128,-1,14
 405 263 405 263 373 277 c 128,-1,15
 341 291 341 291 303 302 c 128,-1,16
 265 313 265 313 226.5 326 c 128,-1,17
 188 339 188 339 156 359 c 128,-1,18
 124 379 124 379 104.5 411.5 c 128,-1,19
 85 444 85 444 85 495 c 0,20,21
 85 557 85 557 119.5 598 c 128,-1,22
 154 639 154 639 208 659.5 c 128,-1,23
 262 680 262 680 322 680 c 0,24,25
 371 680 371 680 418 666 c 128,-1,26
 465 652 465 652 502.5 624.5 c 128,-1,27
 540 597 540 597 559 555 c 1,28,-1
 467 529 l 1,29,30
 449 564 449 564 406.5 582.5 c 128,-1,31
 364 601 364 601 318 601 c 0,32,33
 282 601 282 601 250.5 590 c 128,-1,34
 219 579 219 579 199.5 556 c 128,-1,35
 180 533 180 533 180 498 c 0,36,37
 180 465 180 465 199.5 444 c 128,-1,38
 219 423 219 423 251.5 409.5 c 128,-1,39
 284 396 284 396 322.5 385 c 128,-1,40
 361 374 361 374 399.5 360.5 c 128,-1,41
 438 347 438 347 470.5 327 c 128,-1,42
 503 307 503 307 522.5 276 c 128,-1,43
 542 245 542 245 542 197 c 0,44,45
 542 147 542 147 520 108 c 128,-1,46
 498 69 498 69 461 42.5 c 128,-1,47
 424 16 424 16 378 2 c 128,-1,48
 332 -12 332 -12 283 -12 c 0,0,1
EndSplineSet
Validated: 1
EndChar

StartChar: T
Encoding: 84 84 34
Width: 554
GlyphClass: 2
Flags: W
HStem: 0 21G<167 268.191> 587 81<88 291 387 609>
AnchorPoint: "Anchor-1" 354 668 basechar 0
AnchorPoint: "Anchor-0" 216 0 basechar 0
LayerCount: 2
Fore
SplineSet
167 0 m 1,0,-1
 291 587 l 1,1,-1
 71 587 l 1,2,-1
 88 668 l 1,3,-1
 626 668 l 1,4,-1
 609 587 l 1,5,-1
 387 587 l 1,6,-1
 264 0 l 1,7,-1
 167 0 l 1,0,-1
EndSplineSet
Validated: 1
EndChar

StartChar: U
Encoding: 85 85 35
Width: 689
GlyphClass: 2
Flags: W
HStem: -12 81<196.491 402.436> 648 20G<150.722 251 594.707 695>
VStem: 59 98<107.6 316.375>
AnchorPoint: "Anchor-2" 350 0 basechar 0
AnchorPoint: "Anchor-1" 413 668 basechar 0
AnchorPoint: "Anchor-0" 292 0 basechar 0
LayerCount: 2
Fore
SplineSet
284 -12 m 0,0,1
 172 -12 172 -12 115.5 33 c 128,-1,2
 59 78 59 78 59 175 c 0,3,4
 59 198 59 198 62.5 224.5 c 128,-1,5
 66 251 66 251 72 280 c 2,6,-1
 155 668 l 1,7,-1
 251 668 l 1,8,-1
 167 272 l 2,9,10
 162 247 162 247 159.5 225.5 c 128,-1,11
 157 204 157 204 157 186 c 0,12,13
 157 125 157 125 188 97 c 128,-1,14
 219 69 219 69 289 69 c 0,15,16
 350 69 350 69 394 87 c 128,-1,17
 438 105 438 105 467.5 149.5 c 128,-1,18
 497 194 497 194 514 272 c 2,19,-1
 599 668 l 1,20,-1
 695 668 l 1,21,-1
 612 280 l 2,22,23
 591 180 591 180 555 121 c 128,-1,24
 519 62 519 62 474 33.5 c 128,-1,25
 429 5 429 5 380 -3.5 c 128,-1,26
 331 -12 331 -12 284 -12 c 0,0,1
EndSplineSet
Validated: 1
EndChar

StartChar: V
Encoding: 86 86 36
Width: 588
GlyphClass: 1
Flags: W
HStem: 0 21G<173.365 299.138> 648 20G<88 189.222 538.247 660>
VStem: 88 99<614.864 668>
LayerCount: 2
Fore
SplineSet
176 0 m 1,0,-1
 88 668 l 1,1,-1
 187 668 l 1,2,-1
 249 110 l 1,3,-1
 549 668 l 1,4,-1
 660 668 l 1,5,-1
 288 0 l 1,6,-1
 176 0 l 1,0,-1
EndSplineSet
Validated: 1
EndChar

StartChar: W
Encoding: 87 87 37
Width: 840
GlyphClass: 1
Flags: W
HStem: 0 21G<113.222 233.893 480.601 611.281> 648 20G<88 188.444 425.333 547.181 792.926 912>
VStem: 88 100<488.154 668> 114 86<128 179.846> 470 77<200.364 551> 481 71<117 350.636>
LayerCount: 2
Fore
SplineSet
114 0 m 1,0,-1
 88 668 l 1,1,-1
 188 668 l 1,2,-1
 200 128 l 1,3,-1
 434 668 l 1,4,-1
 547 668 l 1,5,-1
 552 117 l 1,6,-1
 802 668 l 1,7,-1
 912 668 l 1,8,-1
 602 0 l 1,9,-1
 481 0 l 1,10,-1
 470 551 l 1,11,-1
 225 0 l 1,12,-1
 114 0 l 1,0,-1
EndSplineSet
Validated: 1
EndChar

StartChar: X
Encoding: 88 88 38
Width: 620
GlyphClass: 1
Flags: W
HStem: 0 21G<-54 89.4848 437 550> 648 20G<114 225.878 545.469 689>
LayerCount: 2
Fore
SplineSet
-54 0 m 1,0,-1
 272 351 l 1,1,-1
 114 668 l 1,2,-1
 216 668 l 1,3,-1
 337 423 l 1,4,-1
 564 668 l 1,5,-1
 689 668 l 1,6,-1
 381 336 l 1,7,-1
 550 0 l 1,8,-1
 447 0 l 1,9,-1
 315 264 l 1,10,-1
 71 0 l 1,11,-1
 -54 0 l 1,0,-1
EndSplineSet
Validated: 1
EndChar

StartChar: Y
Encoding: 89 89 39
Width: 594
GlyphClass: 2
Flags: W
HStem: 0 21G<175 276.25> 648 20G<88 190.172 536.332 666>
AnchorPoint: "Anchor-1" 360 668 basechar 0
AnchorPoint: "Anchor-0" 244 0 basechar 0
LayerCount: 2
Fore
SplineSet
175 0 m 1,0,-1
 227 240 l 1,1,-1
 88 668 l 1,2,-1
 184 668 l 1,3,-1
 288 331 l 1,4,-1
 552 668 l 1,5,-1
 666 668 l 1,6,-1
 323 240 l 1,7,-1
 272 0 l 1,8,-1
 175 0 l 1,0,-1
EndSplineSet
Validated: 1
EndChar

StartChar: Z
Encoding: 90 90 40
Width: 609
GlyphClass: 2
Flags: W
HStem: 0 81<121 504> 587 81<143 498>
AnchorPoint: "Anchor-1" 386 668 basechar 0
AnchorPoint: "Anchor-0" 252 0 basechar 0
LayerCount: 2
Fore
SplineSet
-20 0 m 1,0,-1
 -3 81 l 1,1,-1
 498 587 l 1,2,-1
 126 587 l 1,3,-1
 143 668 l 1,4,-1
 638 668 l 1,5,-1
 621 587 l 1,6,-1
 121 81 l 1,7,-1
 522 81 l 1,8,-1
 504 0 l 1,9,-1
 -20 0 l 1,0,-1
EndSplineSet
Validated: 1
EndChar

StartChar: a
Encoding: 97 97 41
Width: 517
GlyphClass: 2
Flags: W
HStem: -12 69<118.824 255.897> 0 21G<325.73 406.5> 436 68<203.059 353.656>
VStem: 3 94<75.8781 182.127> 327 79<0 62.4489> 375 85<308.437 414.041>
AnchorPoint: "Anchor-2" 406 0 basechar 0
AnchorPoint: "Anchor-1" 309 496 basechar 0
AnchorPoint: "Anchor-0" 206 0 basechar 0
LayerCount: 2
Fore
SplineSet
152 -12 m 0,0,1
 88 -12 88 -12 45.5 23 c 128,-1,2
 3 58 3 58 3 117 c 0,3,4
 3 167 3 167 29.5 200 c 128,-1,5
 56 233 56 233 98.5 253 c 128,-1,6
 141 273 141 273 190.5 283.5 c 128,-1,7
 240 294 240 294 287 299 c 128,-1,8
 334 304 334 304 368 308 c 1,9,10
 371 322 371 322 373 334 c 128,-1,11
 375 346 375 346 375 357 c 0,12,13
 375 436 375 436 283 436 c 0,14,15
 237 436 237 436 205 415.5 c 128,-1,16
 173 395 173 395 156 359 c 1,17,-1
 81 382 l 1,18,19
 107 438 107 438 157 471 c 128,-1,20
 207 504 207 504 279 504 c 0,21,22
 366 504 366 504 413 469 c 128,-1,23
 460 434 460 434 460 361 c 0,24,25
 460 344 460 344 457.5 327 c 128,-1,26
 455 310 455 310 448.5 279 c 128,-1,27
 442 248 442 248 429 188 c 0,28,29
 416 126 416 126 411.5 80.5 c 128,-1,30
 407 35 407 35 406 0 c 1,31,-1
 327 0 l 1,32,-1
 323 63 l 1,33,34
 290 26 290 26 250.5 7 c 128,-1,35
 211 -12 211 -12 152 -12 c 0,0,1
179 57 m 0,36,37
 247 57 247 57 295.5 102.5 c 128,-1,38
 344 148 344 148 357 224 c 2,39,-1
 360 241 l 1,40,41
 277 233 277 233 218 222.5 c 128,-1,42
 159 212 159 212 128 190 c 128,-1,43
 97 168 97 168 97 125 c 0,44,45
 97 91 97 91 121 74 c 128,-1,46
 145 57 145 57 179 57 c 0,36,37
EndSplineSet
Validated: 1
Substitution2: "Single Substitution lookup 12 subtable" ordfeminine
Substitution2: "'aalt' Access All Alternates lookup 0 subtable" ordfeminine
EndChar

StartChar: b
Encoding: 98 98 42
Width: 551
GlyphClass: 1
Flags: W
HStem: -12 72<188.8 327.228> 0 21G<5 79> 432 72<239.367 373.104> 648 20G<142.749 233>
VStem: 417 90<175.311 383.983>
LayerCount: 2
Fore
SplineSet
264 -12 m 0,0,1
 208 -12 208 -12 170.5 13.5 c 128,-1,2
 133 39 133 39 110 82 c 1,3,-1
 69 0 l 1,4,-1
 5 0 l 1,5,-1
 147 668 l 1,6,-1
 233 668 l 1,7,-1
 182 430 l 1,8,9
 216 474 216 474 253 489 c 128,-1,10
 290 504 290 504 322 504 c 0,11,12
 393 504 393 504 433 473 c 128,-1,13
 473 442 473 442 490 393.5 c 128,-1,14
 507 345 507 345 507 293 c 0,15,16
 507 239 507 239 491.5 185.5 c 128,-1,17
 476 132 476 132 445.5 87 c 128,-1,18
 415 42 415 42 369.5 15 c 128,-1,19
 324 -12 324 -12 264 -12 c 0,0,1
255 60 m 0,20,21
 298 60 298 60 328.5 82.5 c 128,-1,22
 359 105 359 105 378.5 140 c 128,-1,23
 398 175 398 175 407.5 215 c 128,-1,24
 417 255 417 255 417 291 c 0,25,26
 417 353 417 353 390 392.5 c 128,-1,27
 363 432 363 432 305 432 c 0,28,29
 264 432 264 432 232.5 411.5 c 128,-1,30
 201 391 201 391 179.5 358 c 128,-1,31
 158 325 158 325 147 286 c 128,-1,32
 136 247 136 247 136 211 c 0,33,34
 136 172 136 172 149 137.5 c 128,-1,35
 162 103 162 103 188.5 81.5 c 128,-1,36
 215 60 215 60 255 60 c 0,20,21
EndSplineSet
Validated: 1
EndChar

StartChar: c
Encoding: 99 99 43
Width: 491
GlyphClass: 2
Flags: W
HStem: -12 74<160.374 316.755> 430 74<211.851 364.033>
VStem: 24 92<109.917 313.975>
AnchorPoint: "Anchor-1" 299 496 basechar 0
AnchorPoint: "Anchor-0" 193 0 basechar 0
LayerCount: 2
Fore
SplineSet
220 -12 m 0,0,1
 127 -12 127 -12 75.5 43 c 128,-1,2
 24 98 24 98 24 192 c 0,3,4
 24 277 24 277 57.5 347.5 c 128,-1,5
 91 418 91 418 152.5 461 c 128,-1,6
 214 504 214 504 296 504 c 0,7,8
 364 504 364 504 410 475.5 c 128,-1,9
 456 447 456 447 481 393 c 1,10,-1
 398 364 l 1,11,12
 388 394 388 394 359 412 c 128,-1,13
 330 430 330 430 292 430 c 0,14,15
 235 430 235 430 196 397 c 128,-1,16
 157 364 157 364 136.5 311 c 128,-1,17
 116 258 116 258 116 197 c 0,18,19
 116 140 116 140 143.5 101 c 128,-1,20
 171 62 171 62 239 62 c 0,21,22
 280 62 280 62 310.5 79.5 c 128,-1,23
 341 97 341 97 363 127 c 1,24,-1
 434 99 l 1,25,26
 400 44 400 44 343.5 16 c 128,-1,27
 287 -12 287 -12 220 -12 c 0,0,1
EndSplineSet
Validated: 1
EndChar

StartChar: d
Encoding: 100 100 44
Width: 551
GlyphClass: 2
Flags: W
HStem: -12 72<161.435 295.71> 0 21G<357.361 440.5> 432 72<205.255 346.861> 648 20G<474.778 565>
VStem: 25 90<109.02 316.004> 396 44<0 281>
AnchorPoint: "Anchor-1" 392 796 basechar 0
AnchorPoint: "Anchor-0" 223 0 basechar 0
LayerCount: 2
Fore
SplineSet
203 -12 m 0,0,1
 147 -12 147 -12 107 15 c 128,-1,2
 67 42 67 42 46 89.5 c 128,-1,3
 25 137 25 137 25 198 c 0,4,5
 25 258 25 258 42 312.5 c 128,-1,6
 59 367 59 367 90.5 410.5 c 128,-1,7
 122 454 122 454 167 479 c 128,-1,8
 212 504 212 504 269 504 c 0,9,10
 328 504 328 504 368 473.5 c 128,-1,11
 408 443 408 443 422 398 c 1,12,-1
 479 668 l 1,13,-1
 565 668 l 1,14,15
 565 668 565 668 559.5 641.5 c 128,-1,16
 554 615 554 615 544.5 570.5 c 128,-1,17
 535 526 535 526 523.5 473 c 128,-1,18
 512 420 512 420 500.5 365.5 c 128,-1,19
 489 311 489 311 479 264.5 c 128,-1,20
 469 218 469 218 463 188 c 0,21,22
 458 163 458 163 449.5 114 c 128,-1,23
 441 65 441 65 440 0 c 1,24,-1
 359 0 l 1,25,-1
 354 61 l 1,26,27
 329 29 329 29 293.5 8.5 c 128,-1,28
 258 -12 258 -12 203 -12 c 0,0,1
224 60 m 0,29,30
 276 60 276 60 314.5 90.5 c 128,-1,31
 353 121 353 121 374.5 171.5 c 128,-1,32
 396 222 396 222 396 281 c 0,33,34
 396 350 396 350 366 391 c 128,-1,35
 336 432 336 432 278 432 c 0,36,37
 226 432 226 432 189.5 397.5 c 128,-1,38
 153 363 153 363 134 309.5 c 128,-1,39
 115 256 115 256 115 199 c 0,40,41
 115 129 115 129 147.5 94.5 c 128,-1,42
 180 60 180 60 224 60 c 0,29,30
EndSplineSet
Validated: 1
EndChar

StartChar: e
Encoding: 101 101 45
Width: 538
GlyphClass: 2
Flags: W
HStem: -12 74<165.259 333.597> 225 68<126 419.924> 432 72<212.021 372.11>
VStem: 25 88<114.416 223.113> 420 87<293.224 384.176>
AnchorPoint: "Anchor-2" 335 10 basechar 0
AnchorPoint: "Anchor-1" 319 496 basechar 0
AnchorPoint: "Anchor-0" 216 0 basechar 0
LayerCount: 2
Fore
SplineSet
236 -12 m 0,0,1
 138 -12 138 -12 81.5 45 c 128,-1,2
 25 102 25 102 25 199 c 0,3,4
 25 286 25 286 59.5 355 c 128,-1,5
 94 424 94 424 157.5 464 c 128,-1,6
 221 504 221 504 307 504 c 0,7,8
 374 504 374 504 418 477 c 128,-1,9
 462 450 462 450 484.5 403.5 c 128,-1,10
 507 357 507 357 507 300 c 0,11,12
 507 264 507 264 498 225 c 1,13,-1
 114 225 l 1,14,15
 113 218 113 218 113 211 c 128,-1,16
 113 204 113 204 113 197 c 0,17,18
 113 146 113 146 132.5 116.5 c 128,-1,19
 152 87 152 87 183 74.5 c 128,-1,20
 214 62 214 62 246 62 c 0,21,22
 288 62 288 62 318 75.5 c 128,-1,23
 348 89 348 89 369 111 c 1,24,-1
 447 87 l 1,25,26
 413 43 413 43 360.5 15.5 c 128,-1,27
 308 -12 308 -12 236 -12 c 0,0,1
126 293 m 1,28,-1
 419 293 l 1,29,30
 420 298 420 298 420 302 c 128,-1,31
 420 306 420 306 420 310 c 0,32,33
 420 340 420 340 407.5 368 c 128,-1,34
 395 396 395 396 367.5 414 c 128,-1,35
 340 432 340 432 295 432 c 0,36,37
 258 432 258 432 223 416 c 128,-1,38
 188 400 188 400 162 369 c 128,-1,39
 136 338 136 338 126 293 c 1,28,-1
EndSplineSet
Validated: 1
EndChar

StartChar: f
Encoding: 102 102 46
Width: 316
GlyphClass: 1
Flags: W
HStem: 0 21G<35 125.252> 428 68<57 126 226 313> 635 71<262.138 357>
LayerCount: 2
Fore
SplineSet
35 0 m 1,0,-1
 126 428 l 1,1,-1
 42 428 l 1,2,-1
 57 496 l 1,3,-1
 140 496 l 1,4,-1
 152 549 l 2,5,6
 164 600 164 600 177 631 c 128,-1,7
 190 662 190 662 208 678 c 128,-1,8
 226 694 226 694 253 699.5 c 128,-1,9
 280 705 280 705 321 706 c 2,10,-1
 372 706 l 1,11,-1
 357 635 l 1,12,-1
 333 635 l 2,13,14
 309 635 309 635 291 631 c 128,-1,15
 273 627 273 627 261 612 c 128,-1,16
 249 597 249 597 241 563 c 2,17,-1
 226 496 l 1,18,-1
 328 496 l 1,19,-1
 313 428 l 1,20,-1
 212 428 l 1,21,-1
 121 0 l 1,22,-1
 35 0 l 1,0,-1
EndSplineSet
Validated: 1
EndChar

StartChar: g
Encoding: 103 103 47
Width: 551
GlyphClass: 2
Flags: W
HStem: -190 73<112.117 272.567> 16 73<171.682 303.669> 432 74<199.255 344.808> 476 20G<453.744 526>
VStem: 30 89<142.909 334.88>
AnchorPoint: "Anchor-1" 314 496 basechar 0
AnchorPoint: "Anchor-0" 170 -251 basechar 0
LayerCount: 2
Fore
SplineSet
178 -190 m 0,0,1
 115 -190 115 -190 63.5 -160 c 128,-1,2
 12 -130 12 -130 -6 -78 c 1,3,-1
 84 -53 l 1,4,5
 89 -77 89 -77 114 -97 c 128,-1,6
 139 -117 139 -117 184 -117 c 0,7,8
 237 -117 237 -117 268 -98.5 c 128,-1,9
 299 -80 299 -80 315 -48 c 128,-1,10
 331 -16 331 -16 340 23 c 2,11,-1
 353 80 l 1,12,13
 328 48 328 48 292 32 c 128,-1,14
 256 16 256 16 217 16 c 0,15,16
 171 16 171 16 128 38.5 c 128,-1,17
 85 61 85 61 57.5 107 c 128,-1,18
 30 153 30 153 30 222 c 0,19,20
 30 299 30 299 58.5 363.5 c 128,-1,21
 87 428 87 428 139.5 467 c 128,-1,22
 192 506 192 506 264 506 c 0,23,24
 317 506 317 506 361 482.5 c 128,-1,25
 405 459 405 459 424 418 c 1,26,-1
 464 496 l 1,27,-1
 526 496 l 1,28,29
 502 384 502 384 478.5 272 c 128,-1,30
 455 160 455 160 431 47 c 0,31,32
 426 25 426 25 419 -6 c 128,-1,33
 412 -37 412 -37 397.5 -69 c 128,-1,34
 383 -101 383 -101 356.5 -128.5 c 128,-1,35
 330 -156 330 -156 286.5 -173 c 128,-1,36
 243 -190 243 -190 178 -190 c 0,0,1
246 89 m 0,37,38
 293 89 293 89 327 120.5 c 128,-1,39
 361 152 361 152 379.5 199.5 c 128,-1,40
 398 247 398 247 398 296 c 0,41,42
 398 363 398 363 361 397.5 c 128,-1,43
 324 432 324 432 274 432 c 0,44,45
 223 432 223 432 188.5 402 c 128,-1,46
 154 372 154 372 136.5 325 c 128,-1,47
 119 278 119 278 119 226 c 0,48,49
 119 162 119 162 154 125.5 c 128,-1,50
 189 89 189 89 246 89 c 0,37,38
EndSplineSet
Validated: 1
EndChar

StartChar: h
Encoding: 104 104 48
Width: 544
GlyphClass: 1
Flags: W
HStem: 0 21G<5 95.2023 331 420.306> 430 74<247.934 380.575> 648 20G<142.749 233>
VStem: 331 85<0 32.5161> 399 88<230.688 412.962>
LayerCount: 2
Fore
SplineSet
5 0 m 1,0,-1
 147 668 l 1,1,-1
 233 668 l 1,2,-1
 182 427 l 1,3,4
 207 459 207 459 246.5 481.5 c 128,-1,5
 286 504 286 504 353 504 c 0,6,7
 416 504 416 504 451.5 470.5 c 128,-1,8
 487 437 487 437 487 366 c 0,9,10
 487 332 487 332 478 288 c 2,11,-1
 416 0 l 1,12,-1
 331 0 l 1,13,-1
 390 280 l 2,14,15
 399 324 399 324 399 352 c 0,16,17
 399 395 399 395 379 412.5 c 128,-1,18
 359 430 359 430 316 430 c 0,19,20
 280 430 280 430 246 414 c 128,-1,21
 212 398 212 398 185.5 360 c 128,-1,22
 159 322 159 322 145 257 c 2,23,-1
 91 0 l 1,24,-1
 5 0 l 1,0,-1
EndSplineSet
Validated: 1
EndChar

StartChar: i
Encoding: 105 105 49
Width: 266
GlyphClass: 1
Flags: W
HStem: 0 21G<44 134.234> 428 68<69 135> 591 125<180.722 270.92>
VStem: 165 125<606.722 696.92>
LayerCount: 2
Fore
SplineSet
227 591 m 0,0,1
 202 591 202 591 183.5 609.5 c 128,-1,2
 165 628 165 628 165 653 c 0,3,4
 165 679 165 679 183.5 697.5 c 128,-1,5
 202 716 202 716 227 716 c 0,6,7
 253 716 253 716 271.5 697.5 c 128,-1,8
 290 679 290 679 290 653 c 0,9,10
 290 628 290 628 271.5 609.5 c 128,-1,11
 253 591 253 591 227 591 c 0,0,1
44 0 m 1,12,-1
 135 428 l 1,13,-1
 55 428 l 1,14,-1
 69 496 l 1,15,-1
 235 496 l 1,16,-1
 130 0 l 1,17,-1
 44 0 l 1,12,-1
EndSplineSet
Validated: 1
Substitution2: "Single Substitution lookup 4 subtable" dotlessi
Substitution2: "Single Substitution lookup 3 subtable" dotlessi
EndChar

StartChar: j
Encoding: 106 106 50
Width: 254
GlyphClass: 1
Flags: W
HStem: -161 75<-140 -2.91943> 476 20G<126.735 217> 591 126<165.08 252.92>
VStem: 146 126<610.08 697.92>
LayerCount: 2
Fore
SplineSet
209 591 m 256,0,1
 183 591 183 591 164.5 609.5 c 128,-1,2
 146 628 146 628 146 654 c 256,3,4
 146 680 146 680 164.5 698.5 c 128,-1,5
 183 717 183 717 209 717 c 256,6,7
 235 717 235 717 253.5 698.5 c 128,-1,8
 272 680 272 680 272 654 c 256,9,10
 272 628 272 628 253.5 609.5 c 128,-1,11
 235 591 235 591 209 591 c 256,0,1
-87 -161 m 0,12,13
 -103 -161 -103 -161 -120 -160.5 c 128,-1,14
 -137 -160 -137 -160 -156 -159 c 1,15,-1
 -140 -86 l 1,16,-1
 -108 -86 l 2,17,18
 -55 -86 -55 -86 -29 -78.5 c 128,-1,19
 -3 -71 -3 -71 8.5 -49.5 c 128,-1,20
 20 -28 20 -28 28 13 c 2,21,-1
 131 496 l 1,22,-1
 217 496 l 1,23,-1
 113 8 l 2,24,25
 103 -41 103 -41 91.5 -73.5 c 128,-1,26
 80 -106 80 -106 60 -125 c 128,-1,27
 40 -144 40 -144 5 -152.5 c 128,-1,28
 -30 -161 -30 -161 -87 -161 c 0,12,13
EndSplineSet
Validated: 1
EndChar

StartChar: k
Encoding: 107 107 51
Width: 483
GlyphClass: 2
Flags: W
HStem: 0 21G<5 95.2169 308.741 413> 476 20G<363.725 498> 648 20G<142.749 233>
AnchorPoint: "Anchor-1" 358 796 basechar 0
AnchorPoint: "Anchor-0" 219 0 basechar 0
LayerCount: 2
Fore
SplineSet
5 0 m 1,0,-1
 147 668 l 1,1,-1
 233 668 l 1,2,-1
 151 285 l 1,3,-1
 386 496 l 1,4,-1
 498 496 l 1,5,-1
 264 289 l 1,6,-1
 413 0 l 1,7,-1
 319 0 l 1,8,-1
 200 232 l 1,9,-1
 126 166 l 1,10,-1
 91 0 l 1,11,-1
 5 0 l 1,0,-1
EndSplineSet
Validated: 1
EndChar

StartChar: l
Encoding: 108 108 52
Width: 255
GlyphClass: 2
Flags: W
HStem: 0 75<125.285 180> 648 20G<142.764 233>
VStem: 25 91<50 191.188> 147 86<635 668>
AnchorPoint: "Anchor-1" 244 796 basechar 0
AnchorPoint: "Anchor-0" 95 0 basechar 0
LayerCount: 2
Fore
SplineSet
124 0 m 2,0,1
 66 0 66 0 45.5 16.5 c 128,-1,2
 25 33 25 33 25 67 c 0,3,4
 25 94 25 94 32 125 c 2,5,-1
 147 668 l 1,6,-1
 233 668 l 1,7,-1
 121 140 l 2,8,9
 119 129 119 129 117.5 120 c 128,-1,10
 116 111 116 111 116 104 c 0,11,12
 116 89 116 89 125 82 c 128,-1,13
 134 75 134 75 159 75 c 2,14,-1
 196 75 l 1,15,-1
 180 0 l 1,16,-1
 124 0 l 2,0,1
EndSplineSet
Validated: 1
EndChar

StartChar: m
Encoding: 109 109 53
Width: 842
GlyphClass: 1
Flags: W
HStem: 0 21G<6 96.2222 317 407.222 628 718.2> 431 73<245.101 370.233 549.504 682.389> 476 20G<106.766 176.739>
VStem: 111 64<462.933 496> 698 88<239.195 414.496>
LayerCount: 2
Fore
SplineSet
6 0 m 1,0,-1
 111 496 l 1,1,-1
 175 496 l 1,2,-1
 181 427 l 1,3,4
 210 462 210 462 246.5 483 c 128,-1,5
 283 504 283 504 339 504 c 0,6,7
 398 504 398 504 428.5 480.5 c 128,-1,8
 459 457 459 457 473 416 c 1,9,10
 510 465 510 465 553.5 484.5 c 128,-1,11
 597 504 597 504 649 504 c 0,12,13
 662 504 662 504 684.5 501 c 128,-1,14
 707 498 707 498 730.5 486 c 128,-1,15
 754 474 754 474 770 447 c 128,-1,16
 786 420 786 420 786 372 c 0,17,18
 786 342 786 342 777 300 c 2,19,-1
 714 0 l 1,20,-1
 628 0 l 1,21,-1
 689 289 l 2,22,23
 698 330 698 330 698 359 c 0,24,25
 698 394 698 394 681.5 412.5 c 128,-1,26
 665 431 665 431 623 431 c 0,27,28
 560 431 560 431 518.5 388.5 c 128,-1,29
 477 346 477 346 460 270 c 2,30,-1
 403 0 l 1,31,-1
 317 0 l 1,32,-1
 378 289 l 2,33,34
 387 328 387 328 387 357 c 0,35,36
 387 394 387 394 369.5 412.5 c 128,-1,37
 352 431 352 431 311 431 c 0,38,39
 256 431 256 431 211.5 392 c 128,-1,40
 167 353 167 353 149 270 c 2,41,-1
 92 0 l 1,42,-1
 6 0 l 1,0,-1
EndSplineSet
Validated: 1
EndChar

StartChar: n
Encoding: 110 110 54
Width: 546
GlyphClass: 2
Flags: W
HStem: 0 21G<6 96.2023 332 421.321> 430 74<247.918 381.575> 476 20G<106.766 176.739>
VStem: 111 64<462.933 496> 332 85<0 32.4032> 400 88<229.875 412.497>
AnchorPoint: "Anchor-1" 326 496 basechar 0
AnchorPoint: "Anchor-0" 210 0 basechar 0
LayerCount: 2
Fore
SplineSet
6 0 m 1,0,-1
 111 496 l 1,1,-1
 175 496 l 1,2,-1
 181 427 l 1,3,4
 206 459 206 459 246.5 481.5 c 128,-1,5
 287 504 287 504 354 504 c 0,6,7
 417 504 417 504 452.5 470 c 128,-1,8
 488 436 488 436 488 365 c 0,9,10
 488 331 488 331 479 287 c 2,11,-1
 417 0 l 1,12,-1
 332 0 l 1,13,-1
 391 279 l 2,14,15
 400 323 400 323 400 351 c 0,16,17
 400 395 400 395 380 412.5 c 128,-1,18
 360 430 360 430 317 430 c 0,19,20
 281 430 281 430 247 414 c 128,-1,21
 213 398 213 398 186.5 360 c 128,-1,22
 160 322 160 322 146 257 c 2,23,-1
 92 0 l 1,24,-1
 6 0 l 1,0,-1
EndSplineSet
Validated: 1
EndChar

StartChar: o
Encoding: 111 111 55
Width: 543
GlyphClass: 2
Flags: W
HStem: -12 74<161.257 314.021> 430 74<206.823 366.708>
VStem: 25 88<112.609 315.157> 411 89<181.97 387.243>
AnchorPoint: "Anchor-2" 439 10 basechar 0
AnchorPoint: "Anchor-1" 319 496 basechar 0
AnchorPoint: "Anchor-0" 219 0 basechar 0
LayerCount: 2
Fore
SplineSet
228 -12 m 0,0,1
 128 -12 128 -12 76.5 47 c 128,-1,2
 25 106 25 106 25 199 c 0,3,4
 25 286 25 286 60 355 c 128,-1,5
 95 424 95 424 157.5 464 c 128,-1,6
 220 504 220 504 301 504 c 0,7,8
 352 504 352 504 397.5 482 c 128,-1,9
 443 460 443 460 471.5 414.5 c 128,-1,10
 500 369 500 369 500 298 c 0,11,12
 500 235 500 235 480 179 c 128,-1,13
 460 123 460 123 424 80 c 128,-1,14
 388 37 388 37 338 12.5 c 128,-1,15
 288 -12 288 -12 228 -12 c 0,0,1
235 62 m 0,16,17
 293 62 293 62 332 97 c 128,-1,18
 371 132 371 132 391 186.5 c 128,-1,19
 411 241 411 241 411 301 c 0,20,21
 411 374 411 374 375.5 402 c 128,-1,22
 340 430 340 430 288 430 c 0,23,24
 229 430 229 430 190 396 c 128,-1,25
 151 362 151 362 132 309 c 128,-1,26
 113 256 113 256 113 198 c 0,27,28
 113 137 113 137 144 99.5 c 128,-1,29
 175 62 175 62 235 62 c 0,16,17
EndSplineSet
Validated: 1
Substitution2: "Single Substitution lookup 12 subtable" ordmasculine
Substitution2: "'aalt' Access All Alternates lookup 0 subtable" ordmasculine
EndChar

StartChar: p
Encoding: 112 112 56
Width: 552
GlyphClass: 1
Flags: W
HStem: -162 21G<-28 62.2353> -12 71<190.532 327.429> 432 72<237.693 373.575> 476 20G<107.745 176.515>
VStem: 112 63<463.1 496> 418 90<176.694 383.923>
LayerCount: 2
Fore
SplineSet
-28 -162 m 1,0,-1
 112 496 l 1,1,-1
 175 496 l 1,2,-1
 180 430 l 1,3,4
 200 459 200 459 236.5 481.5 c 128,-1,5
 273 504 273 504 329 504 c 0,6,7
 390 504 390 504 429.5 475.5 c 128,-1,8
 469 447 469 447 488.5 399 c 128,-1,9
 508 351 508 351 508 293 c 0,10,11
 508 240 508 240 493 186.5 c 128,-1,12
 478 133 478 133 448.5 88 c 128,-1,13
 419 43 419 43 373.5 15.5 c 128,-1,14
 328 -12 328 -12 267 -12 c 0,15,16
 208 -12 208 -12 168.5 16 c 128,-1,17
 129 44 129 44 112 93 c 1,18,-1
 58 -162 l 1,19,-1
 -28 -162 l 1,0,-1
258 59 m 0,20,21
 297 59 297 59 326.5 80 c 128,-1,22
 356 101 356 101 376.5 135.5 c 128,-1,23
 397 170 397 170 407.5 212.5 c 128,-1,24
 418 255 418 255 418 297 c 0,25,26
 418 360 418 360 388 396 c 128,-1,27
 358 432 358 432 305 432 c 0,28,29
 253 432 253 432 215.5 398.5 c 128,-1,30
 178 365 178 365 157.5 314 c 128,-1,31
 137 263 137 263 137 209 c 0,32,33
 137 147 137 147 169 103 c 128,-1,34
 201 59 201 59 258 59 c 0,20,21
EndSplineSet
Validated: 1
EndChar

StartChar: q
Encoding: 113 113 57
Width: 551
GlyphClass: 1
Flags: W
HStem: -174 82<424.487 531.872> -12 72<159.576 295.463> 433 72<206.021 342.364> 476 20G<455.744 528>
VStem: 26 90<107.388 317.588> 326 90<-83.253 48.2344>
LayerCount: 2
Fore
SplineSet
205 -12 m 0,0,1
 124 -12 124 -12 75 44 c 128,-1,2
 26 100 26 100 26 198 c 0,3,4
 26 259 26 259 43 314.5 c 128,-1,5
 60 370 60 370 91.5 413 c 128,-1,6
 123 456 123 456 168 480.5 c 128,-1,7
 213 505 213 505 269 505 c 0,8,9
 328 505 328 505 367 480.5 c 128,-1,10
 406 456 406 456 426 418 c 1,11,-1
 466 496 l 1,12,-1
 528 496 l 1,13,14
 503 380 503 380 479 263 c 128,-1,15
 455 146 455 146 430 30 c 0,16,17
 425 6 425 6 420.5 -15 c 128,-1,18
 416 -36 416 -36 416 -50 c 0,19,20
 416 -69 416 -69 428 -80.5 c 128,-1,21
 440 -92 440 -92 467 -92 c 0,22,23
 498 -92 498 -92 549 -76 c 1,24,-1
 532 -154 l 1,25,26
 522 -161 522 -161 497.5 -167.5 c 128,-1,27
 473 -174 473 -174 445 -174 c 256,28,29
 417 -174 417 -174 389.5 -165 c 128,-1,30
 362 -156 362 -156 344 -134 c 128,-1,31
 326 -112 326 -112 326 -72 c 0,32,33
 326 -58 326 -58 328.5 -42.5 c 128,-1,34
 331 -27 331 -27 336.5 -3.5 c 128,-1,35
 342 20 342 20 350 59 c 1,36,37
 333 30 333 30 294.5 9 c 128,-1,38
 256 -12 256 -12 205 -12 c 0,0,1
230 60 m 0,39,40
 279 60 279 60 315.5 92 c 128,-1,41
 352 124 352 124 373 174.5 c 128,-1,42
 394 225 394 225 394 281 c 0,43,44
 394 353 394 353 361.5 393 c 128,-1,45
 329 433 329 433 274 433 c 0,46,47
 237 433 237 433 207.5 412.5 c 128,-1,48
 178 392 178 392 157.5 358 c 128,-1,49
 137 324 137 324 126.5 282 c 128,-1,50
 116 240 116 240 116 198 c 0,51,52
 116 134 116 134 144.5 97 c 128,-1,53
 173 60 173 60 230 60 c 0,39,40
EndSplineSet
Validated: 1
EndChar

StartChar: r
Encoding: 114 114 58
Width: 349
GlyphClass: 2
Flags: W
HStem: 0 21G<6 96.1951> 415 89<265.967 362> 476 20G<106.766 175.72>
VStem: 111 63<462.933 496>
AnchorPoint: "Anchor-1" 238 496 basechar 0
AnchorPoint: "Anchor-0" 122 0 basechar 0
LayerCount: 2
Fore
SplineSet
6 0 m 1,0,-1
 111 496 l 1,1,-1
 174 496 l 1,2,-1
 182 403 l 1,3,4
 213 447 213 447 254.5 475.5 c 128,-1,5
 296 504 296 504 370 504 c 2,6,-1
 381 504 l 1,7,-1
 362 415 l 1,8,9
 334 416 334 416 310 412 c 0,10,11
 234 400 234 400 193.5 344.5 c 128,-1,12
 153 289 153 289 135 205 c 2,13,-1
 92 0 l 1,14,-1
 6 0 l 1,0,-1
EndSplineSet
Validated: 33
EndChar

StartChar: s
Encoding: 115 115 59
Width: 475
GlyphClass: 2
Flags: W
HStem: -12 68<137.484 290.178> 435 69<153.519 315.903>
VStem: 47 85<326.413 413.12> 323 88<86.6224 181.532>
AnchorPoint: "Anchor-1" 258 496 basechar 0
AnchorPoint: "Anchor-0" 205 0 basechar 0
LayerCount: 2
Fore
SplineSet
211 -12 m 0,0,1
 136 -12 136 -12 85 17 c 128,-1,2
 34 46 34 46 8 113 c 1,3,-1
 94 142 l 1,4,5
 102 98 102 98 138 77 c 128,-1,6
 174 56 174 56 214 56 c 0,7,8
 255 56 255 56 289 77 c 128,-1,9
 323 98 323 98 323 137 c 0,10,11
 323 165 323 165 303 180.5 c 128,-1,12
 283 196 283 196 251.5 206 c 128,-1,13
 220 216 220 216 185 225.5 c 128,-1,14
 150 235 150 235 118.5 250.5 c 128,-1,15
 87 266 87 266 67 293 c 128,-1,16
 47 320 47 320 47 365 c 0,17,18
 47 412 47 412 75 442.5 c 128,-1,19
 103 473 103 473 146.5 488.5 c 128,-1,20
 190 504 190 504 238 504 c 0,21,22
 279 504 279 504 318 492.5 c 128,-1,23
 357 481 357 481 387 458.5 c 128,-1,24
 417 436 417 436 429 402 c 1,25,-1
 349 374 l 1,26,27
 339 404 339 404 304 419.5 c 128,-1,28
 269 435 269 435 231 435 c 256,29,30
 193 435 193 435 162.5 419 c 128,-1,31
 132 403 132 403 132 370 c 0,32,33
 132 343 132 343 152 327.5 c 128,-1,34
 172 312 172 312 204 302 c 128,-1,35
 236 292 236 292 271.5 282.5 c 128,-1,36
 307 273 307 273 339 257 c 128,-1,37
 371 241 371 241 391 214.5 c 128,-1,38
 411 188 411 188 411 143 c 0,39,40
 411 92 411 92 384 57.5 c 128,-1,41
 357 23 357 23 312 5.5 c 128,-1,42
 267 -12 267 -12 211 -12 c 0,0,1
EndSplineSet
Validated: 1
EndChar

StartChar: t
Encoding: 116 116 60
Width: 320
GlyphClass: 2
Flags: W
HStem: 0 75<158.285 220> 428 68<61 130 230 311>
VStem: 57 92<50 189.18>
AnchorPoint: "Anchor-1" 213 496 basechar 0
AnchorPoint: "Anchor-0" 107 0 basechar 0
LayerCount: 2
Fore
SplineSet
158 0 m 2,0,1
 100 0 100 0 78.5 16.5 c 128,-1,2
 57 33 57 33 57 67 c 0,3,4
 57 89 57 89 67 135 c 2,5,-1
 130 428 l 1,6,-1
 47 428 l 1,7,-1
 61 496 l 1,8,-1
 144 496 l 1,9,-1
 171 620 l 1,10,-1
 257 620 l 1,11,-1
 230 496 l 1,12,-1
 325 496 l 1,13,-1
 311 428 l 1,14,-1
 216 428 l 1,15,-1
 158 159 l 2,16,17
 154 141 154 141 151.5 126.5 c 128,-1,18
 149 112 149 112 149 104 c 0,19,20
 149 88 149 88 158 81.5 c 128,-1,21
 167 75 167 75 192 75 c 2,22,-1
 236 75 l 1,23,-1
 220 0 l 1,24,-1
 158 0 l 2,0,1
EndSplineSet
Validated: 1
EndChar

StartChar: u
Encoding: 117 117 61
Width: 536
GlyphClass: 2
Flags: W
HStem: -11 73<141.071 269.142> 0 21G<339.286 410.234> 476 20G<104.768 195 421.692 511>
VStem: 38 86<81.0458 263.312> 341 65<0 33.0667>
AnchorPoint: "Anchor-2" 433 10 basechar 0
AnchorPoint: "Anchor-1" 306 496 basechar 0
AnchorPoint: "Anchor-0" 215 0 basechar 0
LayerCount: 2
Fore
SplineSet
171 -11 m 0,0,1
 98 -11 98 -11 68 29 c 128,-1,2
 38 69 38 69 38 128 c 0,3,4
 38 164 38 164 47 203 c 2,5,-1
 109 496 l 1,6,-1
 195 496 l 1,7,-1
 133 205 l 2,8,9
 129 187 129 187 126.5 169.5 c 128,-1,10
 124 152 124 152 124 137 c 0,11,12
 124 104 124 104 140.5 83 c 128,-1,13
 157 62 157 62 201 62 c 0,14,15
 260 62 260 62 305 102.5 c 128,-1,16
 350 143 350 143 370 236 c 2,17,-1
 426 496 l 1,18,-1
 511 496 l 1,19,-1
 406 0 l 1,20,-1
 341 0 l 1,21,-1
 335 70 l 1,22,23
 303 28 303 28 265.5 8.5 c 128,-1,24
 228 -11 228 -11 171 -11 c 0,0,1
EndSplineSet
Validated: 1
EndChar

StartChar: v
Encoding: 118 118 62
Width: 440
GlyphClass: 1
Flags: W
HStem: 0 21G<110.097 213.411> 476 20G<41 130.435 376.016 485>
LayerCount: 2
Fore
SplineSet
113 0 m 1,0,-1
 41 496 l 1,1,-1
 128 496 l 1,2,-1
 175 110 l 1,3,-1
 387 496 l 1,4,-1
 485 496 l 1,5,-1
 202 0 l 1,6,-1
 113 0 l 1,0,-1
EndSplineSet
Validated: 1
EndChar

StartChar: w
Encoding: 119 119 63
Width: 654
GlyphClass: 1
Flags: W
HStem: 0 21G<76.5081 161.65 366.85 460.04> 476 20G<41 128.95 307.391 408.093 593.383 699>
VStem: 41 87<402.162 496>
LayerCount: 2
Fore
SplineSet
78 0 m 1,0,-1
 41 496 l 1,1,-1
 128 496 l 1,2,-1
 145 138 l 1,3,-1
 317 496 l 1,4,-1
 407 496 l 1,5,-1
 427 130 l 1,6,-1
 603 496 l 1,7,-1
 699 496 l 1,8,-1
 450 0 l 1,9,-1
 368 0 l 1,10,-1
 345 400 l 1,11,-1
 152 0 l 1,12,-1
 78 0 l 1,0,-1
EndSplineSet
Validated: 1
EndChar

StartChar: x
Encoding: 120 120 64
Width: 458
GlyphClass: 1
Flags: W
HStem: 0 21G<-65 62.4865 297.054 397> 476 20G<59 159.058 375.404 503>
LayerCount: 2
Fore
SplineSet
-65 0 m 1,0,-1
 177 262 l 1,1,-1
 59 496 l 1,2,-1
 149 496 l 1,3,-1
 235 325 l 1,4,-1
 394 496 l 1,5,-1
 503 496 l 1,6,-1
 273 248 l 1,7,-1
 397 0 l 1,8,-1
 307 0 l 1,9,-1
 215 185 l 1,10,-1
 44 0 l 1,11,-1
 -65 0 l 1,0,-1
EndSplineSet
Validated: 1
EndChar

StartChar: y
Encoding: 121 121 65
Width: 431
GlyphClass: 2
Flags: W
HStem: -161 75<-48 74.7178> 476 20G<41 132.073 365.326 476>
VStem: 41 89<448.438 496>
AnchorPoint: "Anchor-1" 264 496 basechar 0
AnchorPoint: "Anchor-0" 163 0 basechar 0
LayerCount: 2
Fore
SplineSet
-64 -161 m 1,0,-1
 -48 -86 l 1,1,-1
 -14 -86 l 2,2,3
 27 -86 27 -86 48 -80 c 128,-1,4
 69 -74 69 -74 82.5 -55.5 c 128,-1,5
 96 -37 96 -37 114 0 c 1,6,-1
 41 496 l 1,7,-1
 130 496 l 1,8,-1
 170 110 l 1,9,-1
 376 496 l 1,10,-1
 476 496 l 1,11,-1
 189 -21 l 2,12,13
 164 -67 164 -67 145 -94.5 c 128,-1,14
 126 -122 126 -122 105.5 -136.5 c 128,-1,15
 85 -151 85 -151 55.5 -156 c 128,-1,16
 26 -161 26 -161 -21 -161 c 2,17,-1
 -64 -161 l 1,0,-1
EndSplineSet
Validated: 1
EndChar

StartChar: z
Encoding: 122 122 66
Width: 463
GlyphClass: 2
Flags: W
HStem: 0 73<99 373> 424 73<97 353>
AnchorPoint: "Anchor-1" 287 496 basechar 0
AnchorPoint: "Anchor-0" 179 0 basechar 0
LayerCount: 2
Fore
SplineSet
-23 0 m 1,0,-1
 -8 73 l 1,1,-1
 353 424 l 1,2,-1
 81 424 l 1,3,-1
 97 497 l 1,4,-1
 474 497 l 1,5,-1
 458 424 l 1,6,-1
 99 73 l 1,7,-1
 388 73 l 1,8,-1
 373 0 l 1,9,-1
 -23 0 l 1,0,-1
EndSplineSet
Validated: 1
EndChar

StartChar: circumflex
Encoding: 258 710 67
Width: 425
GlyphClass: 1
Flags: W
HStem: 575 120<343 345.422>
VStem: 112 323
LayerCount: 2
Fore
SplineSet
112 575 m 1,0,-1
 245 676 l 2,1,2
 269 695 269 695 299 695 c 0,3,4
 327 695 327 695 344 676 c 2,5,-1
 435 575 l 1,6,-1
 343 575 l 1,7,-1
 288 636 l 1,8,-1
 208 575 l 1,9,-1
 112 575 l 1,0,-1
EndSplineSet
Validated: 1
EndChar

StartChar: caron
Encoding: 259 711 68
Width: 425
GlyphClass: 1
Flags: W
HStem: 562 120<223.578 225>
VStem: 134 323
LayerCount: 2
Fore
SplineSet
271 562 m 0,0,1
 241 562 241 562 225 581 c 2,2,-1
 134 682 l 1,3,-1
 225 682 l 1,4,-1
 279 621 l 1,5,-1
 360 682 l 1,6,-1
 457 682 l 1,7,-1
 324 581 l 2,8,9
 299 562 299 562 271 562 c 0,0,1
EndSplineSet
Validated: 1
EndChar

StartChar: breve
Encoding: 260 728 69
Width: 396
GlyphClass: 1
Flags: W
HStem: 562 67<220.885 330.433>
VStem: 134 69<646.532 682>
LayerCount: 2
Fore
SplineSet
263 562 m 0,0,1
 221 562 221 562 192 580.5 c 128,-1,2
 163 599 163 599 148.5 627 c 128,-1,3
 134 655 134 655 134 682 c 1,4,-1
 203 682 l 1,5,6
 207 663 207 663 222.5 646 c 128,-1,7
 238 629 238 629 270 629 c 256,8,9
 302 629 302 629 324 645.5 c 128,-1,10
 346 662 346 662 359 682 c 1,11,-1
 428 682 l 1,12,13
 416 653 416 653 393.5 625 c 128,-1,14
 371 597 371 597 338.5 579.5 c 128,-1,15
 306 562 306 562 263 562 c 0,0,1
EndSplineSet
Validated: 1
EndChar

StartChar: dotaccent
Encoding: 261 729 70
Width: 212
GlyphClass: 1
Flags: W
HStem: 583 108<142.501 218.014>
VStem: 126 108<599.501 675.014>
LayerCount: 2
Fore
SplineSet
180 583 m 0,0,1
 158 583 158 583 142 599 c 128,-1,2
 126 615 126 615 126 637 c 0,3,4
 126 660 126 660 142 675.5 c 128,-1,5
 158 691 158 691 180 691 c 0,6,7
 203 691 203 691 218.5 675.5 c 128,-1,8
 234 660 234 660 234 637 c 0,9,10
 234 615 234 615 218.5 599 c 128,-1,11
 203 583 203 583 180 583 c 0,0,1
EndSplineSet
Validated: 1
EndChar

StartChar: ring
Encoding: 262 730 71
Width: 325
GlyphClass: 1
Flags: W
HStem: 552 58<201.348 280.728> 712 58<201.348 280.728>
VStem: 132 57<622.61 699.718> 293 57<622.673 699.327>
LayerCount: 2
Fore
SplineSet
243 552 m 0,0,1
 212 552 212 552 187 567 c 128,-1,2
 162 582 162 582 147 607 c 128,-1,3
 132 632 132 632 132 661 c 0,4,5
 132 691 132 691 147 715.5 c 128,-1,6
 162 740 162 740 187 755 c 128,-1,7
 212 770 212 770 243 770 c 0,8,9
 289 770 289 770 319.5 737.5 c 128,-1,10
 350 705 350 705 350 661 c 256,11,12
 350 617 350 617 319.5 584.5 c 128,-1,13
 289 552 289 552 243 552 c 0,0,1
241 610 m 256,14,15
 263 610 263 610 278 625 c 128,-1,16
 293 640 293 640 293 661 c 256,17,18
 293 682 293 682 278 697 c 128,-1,19
 263 712 263 712 241 712 c 256,20,21
 219 712 219 712 204 697 c 128,-1,22
 189 682 189 682 189 661 c 256,23,24
 189 640 189 640 204 625 c 128,-1,25
 219 610 219 610 241 610 c 256,14,15
EndSplineSet
Validated: 1
EndChar

StartChar: ogonek
Encoding: 263 731 72
Width: 266
GlyphClass: 1
Flags: W
HStem: -173 57<48.8564 119.099> -20 20G<50 153>
VStem: -32 77<-110.566 -51.1006>
LayerCount: 2
Fore
SplineSet
52 -173 m 0,0,1
 11 -173 11 -173 -10.5 -153.5 c 128,-1,2
 -32 -134 -32 -134 -32 -106 c 0,3,4
 -32 -72 -32 -72 -3 -43 c 128,-1,5
 26 -14 26 -14 74 0 c 1,6,-1
 153 0 l 1,7,8
 106 -17 106 -17 75.5 -40 c 128,-1,9
 45 -63 45 -63 45 -89 c 0,10,11
 45 -101 45 -101 56.5 -108.5 c 128,-1,12
 68 -116 68 -116 86 -116 c 0,13,14
 106 -116 106 -116 130 -107 c 1,15,-1
 119 -161 l 1,16,17
 80 -173 80 -173 52 -173 c 0,0,1
EndSplineSet
Validated: 1
EndChar

StartChar: quoteleft
Encoding: 264 8216 73
Width: 234
GlyphClass: 1
Flags: W
HStem: 418 250
VStem: 93 129<438.626 530.944>
LayerCount: 2
Fore
SplineSet
159 418 m 0,0,1
 129 418 129 418 111 438 c 128,-1,2
 93 458 93 458 93 483 c 0,3,4
 93 501 93 501 103 517 c 2,5,-1
 194 668 l 1,6,-1
 255 668 l 1,7,-1
 179 543 l 1,8,9
 222 527 222 527 222 482 c 0,10,11
 222 454 222 454 203.5 436 c 128,-1,12
 185 418 185 418 159 418 c 0,0,1
EndSplineSet
Validated: 1
EndChar

StartChar: quoteright
Encoding: 265 8217 74
Width: 234
GlyphClass: 1
Flags: W
HStem: 429 251
VStem: 121 130<567.531 660.405>
LayerCount: 2
Fore
SplineSet
89 429 m 1,0,-1
 164 555 l 1,1,2
 145 562 145 562 133 578 c 128,-1,3
 121 594 121 594 121 617 c 0,4,5
 121 643 121 643 141 661.5 c 128,-1,6
 161 680 161 680 186 680 c 0,7,8
 215 680 215 680 233 661 c 128,-1,9
 251 642 251 642 251 616 c 0,10,11
 251 598 251 598 235 572 c 2,12,-1
 150 429 l 1,13,-1
 89 429 l 1,0,-1
EndSplineSet
Validated: 1
EndChar

StartChar: quotesinglbase
Encoding: 266 8218 75
Width: 235
GlyphClass: 1
Flags: W
HStem: -133 251
VStem: 2 130<7.10938 98.4043>
LayerCount: 2
Fore
SplineSet
-30 -133 m 1,0,-1
 45 -8 l 1,1,2
 27 0 27 0 14.5 15.5 c 128,-1,3
 2 31 2 31 2 53 c 0,4,5
 2 78 2 78 20 98 c 128,-1,6
 38 118 38 118 65 118 c 0,7,8
 94 118 94 118 113 99 c 128,-1,9
 132 80 132 80 132 53 c 0,10,11
 132 43 132 43 128 32.5 c 128,-1,12
 124 22 124 22 119 14 c 2,13,-1
 31 -133 l 1,14,-1
 -30 -133 l 1,0,-1
EndSplineSet
Validated: 1
EndChar

StartChar: quotedblleft
Encoding: 267 8220 76
Width: 391
GlyphClass: 1
Flags: W
HStem: 418 250
VStem: 93 129<438.626 530.944> 250 129<438.626 530.944>
LayerCount: 2
Fore
SplineSet
159 418 m 0,0,1
 129 418 129 418 111 438 c 128,-1,2
 93 458 93 458 93 483 c 0,3,4
 93 501 93 501 103 517 c 2,5,-1
 194 668 l 1,6,-1
 255 668 l 1,7,-1
 179 543 l 1,8,9
 222 527 222 527 222 482 c 0,10,11
 222 454 222 454 203.5 436 c 128,-1,12
 185 418 185 418 159 418 c 0,0,1
316 418 m 0,13,14
 286 418 286 418 268 438 c 128,-1,15
 250 458 250 458 250 483 c 0,16,17
 250 501 250 501 260 517 c 2,18,-1
 351 668 l 1,19,-1
 412 668 l 1,20,-1
 336 543 l 1,21,22
 379 527 379 527 379 482 c 0,23,24
 379 454 379 454 360.5 436 c 128,-1,25
 342 418 342 418 316 418 c 0,13,14
EndSplineSet
Validated: 1
EndChar

StartChar: quotedblright
Encoding: 268 8221 77
Width: 390
GlyphClass: 1
Flags: W
HStem: 429 250
VStem: 120 129<566.056 658.374> 277 129<566.056 658.374>
LayerCount: 2
Fore
SplineSet
244 429 m 1,0,-1
 320 554 l 1,1,2
 277 570 277 570 277 615 c 0,3,4
 277 643 277 643 296 661 c 128,-1,5
 315 679 315 679 340 679 c 0,6,7
 370 679 370 679 388 659 c 128,-1,8
 406 639 406 639 406 614 c 0,9,10
 406 596 406 596 396 580 c 2,11,-1
 305 429 l 1,12,-1
 244 429 l 1,0,-1
87 429 m 1,13,-1
 163 554 l 1,14,15
 120 570 120 570 120 615 c 0,16,17
 120 643 120 643 139 661 c 128,-1,18
 158 679 158 679 183 679 c 0,19,20
 213 679 213 679 231 659 c 128,-1,21
 249 639 249 639 249 614 c 0,22,23
 249 596 249 596 239 580 c 2,24,-1
 148 429 l 1,25,-1
 87 429 l 1,13,-1
EndSplineSet
Validated: 1
EndChar

StartChar: dagger
Encoding: 270 8224 79
Width: 537
GlyphClass: 1
Flags: W
HStem: 0 21G<166 252.221> 417 79<82 255 353 525> 648 20G<304.698 389>
LayerCount: 2
Fore
SplineSet
166 0 m 1,0,-1
 255 417 l 1,1,-1
 65 417 l 1,2,-1
 82 496 l 1,3,-1
 272 496 l 1,4,-1
 309 668 l 1,5,-1
 389 668 l 1,6,-1
 353 496 l 1,7,-1
 542 496 l 1,8,-1
 525 417 l 1,9,-1
 336 417 l 1,10,-1
 248 0 l 1,11,-1
 166 0 l 1,0,-1
EndSplineSet
Validated: 1
EndChar

StartChar: daggerdbl
Encoding: 271 8225 80
Width: 537
GlyphClass: 1
Flags: W
HStem: 0 21G<166 252.162> 173 79<30 203 301 473> 417 79<82 255 352 525> 648 20G<304.698 389>
LayerCount: 2
Fore
SplineSet
166 0 m 1,0,-1
 203 173 l 1,1,-1
 13 173 l 1,2,-1
 30 252 l 1,3,-1
 220 252 l 1,4,-1
 255 417 l 1,5,-1
 65 417 l 1,6,-1
 82 496 l 1,7,-1
 272 496 l 1,8,-1
 309 668 l 1,9,-1
 389 668 l 1,10,-1
 352 496 l 1,11,-1
 542 496 l 1,12,-1
 525 417 l 1,13,-1
 335 417 l 1,14,-1
 301 252 l 1,15,-1
 490 252 l 1,16,-1
 473 173 l 1,17,-1
 284 173 l 1,18,-1
 248 0 l 1,19,-1
 166 0 l 1,0,-1
EndSplineSet
Validated: 1
EndChar

StartChar: bullet
Encoding: 272 8226 81
Width: 442
GlyphClass: 1
Flags: W
HStem: 88 332<130.674 295.326>
VStem: 47 332<172.189 336.326>
LayerCount: 2
Fore
SplineSet
213 88 m 256,0,1
 167 88 167 88 129.5 110.5 c 128,-1,2
 92 133 92 133 69.5 171 c 128,-1,3
 47 209 47 209 47 254 c 0,4,5
 47 300 47 300 69.5 337.5 c 128,-1,6
 92 375 92 375 129.5 397.5 c 128,-1,7
 167 420 167 420 213 420 c 256,8,9
 259 420 259 420 296.5 397.5 c 128,-1,10
 334 375 334 375 356.5 337.5 c 128,-1,11
 379 300 379 300 379 254 c 0,12,13
 379 209 379 209 356.5 171 c 128,-1,14
 334 133 334 133 296.5 110.5 c 128,-1,15
 259 88 259 88 213 88 c 256,0,1
EndSplineSet
Validated: 1
EndChar

StartChar: ellipsis
Encoding: 273 8230 82
Width: 695
GlyphClass: 1
Flags: W
HStem: -12 129<21.5955 111.404 252.08 342.404 482.596 572.405>
VStem: 2 129<7.59546 97.4043> 233 129<7.59546 97.4043> 463 129<7.59546 97.4043>
LayerCount: 2
Fore
SplineSet
528 -12 m 0,0,1
 501 -12 501 -12 482 7 c 128,-1,2
 463 26 463 26 463 52 c 0,3,4
 463 79 463 79 482 98 c 128,-1,5
 501 117 501 117 528 117 c 0,6,7
 554 117 554 117 573 98 c 128,-1,8
 592 79 592 79 592 52 c 0,9,10
 592 26 592 26 573 7 c 128,-1,11
 554 -12 554 -12 528 -12 c 0,0,1
66 -12 m 0,12,13
 40 -12 40 -12 21 7 c 128,-1,14
 2 26 2 26 2 52 c 0,15,16
 2 79 2 79 21 98 c 128,-1,17
 40 117 40 117 66 117 c 0,18,19
 93 117 93 117 112 98 c 128,-1,20
 131 79 131 79 131 52 c 0,21,22
 131 26 131 26 112 7 c 128,-1,23
 93 -12 93 -12 66 -12 c 0,12,13
297 -12 m 256,24,25
 270 -12 270 -12 251.5 7 c 128,-1,26
 233 26 233 26 233 52 c 0,27,28
 233 79 233 79 251.5 98 c 128,-1,29
 270 117 270 117 297 117 c 256,30,31
 324 117 324 117 343 98 c 128,-1,32
 362 79 362 79 362 52 c 0,33,34
 362 26 362 26 343 7 c 128,-1,35
 324 -12 324 -12 297 -12 c 256,24,25
EndSplineSet
Validated: 1
EndChar

StartChar: perthousand
Encoding: 274 8240 83
Width: 1402
GlyphClass: 1
Flags: W
HStem: -12 74<688.997 818.399 1090 1219.4> 0 21G<232 334.012> 277 74<688.997 818.399 1090 1219.4> 316 75<201.311 330.399> 605 75<201.311 330.399> 648 20G<685.988 788>
VStem: 84 74<434.173 561.827> 373 74<433.482 562.518> 572 74<104.601 234.336> 861 74<104.601 234.336> 973 74<104.601 234.336> 1262 74<104.601 234.336>
LayerCount: 2
Fore
SplineSet
266 316 m 256,0,1
 216 316 216 316 174.5 340.5 c 128,-1,2
 133 365 133 365 108.5 406.5 c 128,-1,3
 84 448 84 448 84 498 c 256,4,5
 84 548 84 548 108.5 589.5 c 128,-1,6
 133 631 133 631 174.5 655.5 c 128,-1,7
 216 680 216 680 266 680 c 256,8,9
 316 680 316 680 357 655.5 c 128,-1,10
 398 631 398 631 422.5 589.5 c 128,-1,11
 447 548 447 548 447 498 c 256,12,13
 447 448 447 448 422.5 406.5 c 128,-1,14
 398 365 398 365 357 340.5 c 128,-1,15
 316 316 316 316 266 316 c 256,0,1
232 0 m 1,16,-1
 700 668 l 1,17,-1
 788 668 l 1,18,-1
 320 0 l 1,19,-1
 232 0 l 1,16,-1
266 391 m 256,20,21
 310 391 310 391 341.5 422.5 c 128,-1,22
 373 454 373 454 373 498 c 256,23,24
 373 542 373 542 341.5 573.5 c 128,-1,25
 310 605 310 605 266 605 c 256,26,27
 222 605 222 605 190 573.5 c 128,-1,28
 158 542 158 542 158 498 c 256,29,30
 158 454 158 454 190 422.5 c 128,-1,31
 222 391 222 391 266 391 c 256,20,21
754 -12 m 256,32,33
 704 -12 704 -12 662.5 12.5 c 128,-1,34
 621 37 621 37 596.5 78 c 128,-1,35
 572 119 572 119 572 169 c 0,36,37
 572 220 572 220 596.5 261 c 128,-1,38
 621 302 621 302 662.5 326.5 c 128,-1,39
 704 351 704 351 754 351 c 256,40,41
 804 351 804 351 845 326.5 c 128,-1,42
 886 302 886 302 910.5 261 c 128,-1,43
 935 220 935 220 935 169 c 0,44,45
 935 119 935 119 910.5 78 c 128,-1,46
 886 37 886 37 845 12.5 c 128,-1,47
 804 -12 804 -12 754 -12 c 256,32,33
1155 -12 m 256,48,49
 1105 -12 1105 -12 1063.5 12.5 c 128,-1,50
 1022 37 1022 37 997.5 78 c 128,-1,51
 973 119 973 119 973 169 c 0,52,53
 973 220 973 220 997.5 261 c 128,-1,54
 1022 302 1022 302 1063.5 326.5 c 128,-1,55
 1105 351 1105 351 1155 351 c 256,56,57
 1205 351 1205 351 1246 326.5 c 128,-1,58
 1287 302 1287 302 1311.5 261 c 128,-1,59
 1336 220 1336 220 1336 169 c 0,60,61
 1336 119 1336 119 1311.5 78 c 128,-1,62
 1287 37 1287 37 1246 12.5 c 128,-1,63
 1205 -12 1205 -12 1155 -12 c 256,48,49
754 62 m 0,64,65
 798 62 798 62 829.5 93.5 c 128,-1,66
 861 125 861 125 861 169 c 0,67,68
 861 214 861 214 829.5 245.5 c 128,-1,69
 798 277 798 277 754 277 c 0,70,71
 709 277 709 277 677.5 245.5 c 128,-1,72
 646 214 646 214 646 169 c 0,73,74
 646 125 646 125 677.5 93.5 c 128,-1,75
 709 62 709 62 754 62 c 0,64,65
1155 62 m 0,76,77
 1199 62 1199 62 1230.5 93.5 c 128,-1,78
 1262 125 1262 125 1262 169 c 0,79,80
 1262 214 1262 214 1230.5 245.5 c 128,-1,81
 1199 277 1199 277 1155 277 c 0,82,83
 1110 277 1110 277 1078.5 245.5 c 128,-1,84
 1047 214 1047 214 1047 169 c 0,85,86
 1047 125 1047 125 1078.5 93.5 c 128,-1,87
 1110 62 1110 62 1155 62 c 0,76,77
EndSplineSet
Validated: 1
EndChar

StartChar: guilsinglleft
Encoding: 275 8249 84
Width: 351
GlyphClass: 1
Flags: W
VStem: 43 276
LayerCount: 2
Fore
SplineSet
146 40 m 1,0,-1
 43 250 l 1,1,-1
 215 461 l 1,2,-1
 319 461 l 1,3,-1
 138 240 l 1,4,-1
 235 40 l 1,5,-1
 146 40 l 1,0,-1
EndSplineSet
Validated: 1
EndChar

StartChar: guilsinglright
Encoding: 276 8250 85
Width: 343
GlyphClass: 1
Flags: W
VStem: 7 276
LayerCount: 2
Fore
SplineSet
7 40 m 1,0,-1
 188 261 l 1,1,-1
 91 461 l 1,2,-1
 180 461 l 1,3,-1
 283 251 l 1,4,-1
 111 40 l 1,5,-1
 7 40 l 1,0,-1
EndSplineSet
Validated: 1
EndChar

StartChar: fraction
Encoding: 277 8260 86
Width: 440
GlyphClass: 1
Flags: W
HStem: 0 21G<-49 53.012> 648 20G<404.988 507>
LayerCount: 2
Fore
SplineSet
-49 0 m 1,0,-1
 419 668 l 1,1,-1
 507 668 l 1,2,-1
 39 0 l 1,3,-1
 -49 0 l 1,0,-1
EndSplineSet
Validated: 1
EndChar

StartChar: ordfeminine
Encoding: 170 170 87
Width: 359
GlyphClass: 1
Flags: W
HStem: 396 51<143.855 230.007> 643 48<173.124 264.594>
VStem: 70 73<448.244 508.558> 253 59<403 441> 273 67<576.088 633.781>
LayerCount: 2
Fore
SplineSet
157 396 m 0,0,1
 118 396 118 396 94 416 c 128,-1,2
 70 436 70 436 70 468 c 0,3,4
 70 508 70 508 98.5 529.5 c 128,-1,5
 127 551 127 551 172.5 561 c 128,-1,6
 218 571 218 571 270 577 c 1,7,8
 273 589 273 589 273 601 c 0,9,10
 273 618 273 618 262 630.5 c 128,-1,11
 251 643 251 643 219 643 c 0,12,13
 202 643 202 643 187 634 c 128,-1,14
 172 625 172 625 163 606 c 1,15,-1
 106 624 l 1,16,17
 139 691 139 691 229 691 c 0,18,19
 281 691 281 691 310.5 669.5 c 128,-1,20
 340 648 340 648 340 605 c 0,21,22
 340 598 340 598 339 589.5 c 128,-1,23
 338 581 338 581 336 572 c 0,24,25
 326 530 326 530 319 488.5 c 128,-1,26
 312 447 312 447 312 403 c 1,27,-1
 253 403 l 1,28,-1
 250 441 l 1,29,30
 233 414 233 414 207.5 405 c 128,-1,31
 182 396 182 396 157 396 c 0,0,1
177 447 m 0,32,33
 218 447 218 447 233.5 468 c 128,-1,34
 249 489 249 489 257 518 c 2,35,-1
 260 529 l 1,36,-1
 237 526 l 2,37,38
 182 520 182 520 162.5 508.5 c 128,-1,39
 143 497 143 497 143 476 c 0,40,41
 143 447 143 447 177 447 c 0,32,33
EndSplineSet
Validated: 1
EndChar

StartChar: guillemotleft
Encoding: 171 171 88
Width: 559
GlyphClass: 1
Flags: W
LayerCount: 2
Fore
SplineSet
354 40 m 1,0,-1
 251 250 l 1,1,-1
 423 461 l 1,2,-1
 527 461 l 1,3,-1
 346 240 l 1,4,-1
 443 40 l 1,5,-1
 354 40 l 1,0,-1
146 40 m 1,6,-1
 43 250 l 1,7,-1
 215 461 l 1,8,-1
 319 461 l 1,9,-1
 138 240 l 1,10,-1
 235 40 l 1,11,-1
 146 40 l 1,6,-1
EndSplineSet
Validated: 1
EndChar

StartChar: logicalnot
Encoding: 172 172 89
Width: 663
GlyphClass: 1
Flags: W
HStem: 317 79<73 488>
VStem: 488 81<90 317>
LayerCount: 2
Fore
SplineSet
488 90 m 1,0,-1
 488 317 l 1,1,-1
 73 317 l 1,2,-1
 73 396 l 1,3,-1
 569 396 l 1,4,-1
 569 90 l 1,5,-1
 488 90 l 1,0,-1
EndSplineSet
Validated: 1
EndChar

StartChar: registered
Encoding: 174 174 90
Width: 810
GlyphClass: 1
Flags: W
HStem: -12 61<304.396 523.604> 301 58<355 397> 469 61<355 464.247> 619 61<305.197 522.803>
VStem: 68 62<224.376 442.762> 279 76<162 301 359 469> 489 76<372.484 456.897> 698 62<224.376 442.762>
LayerCount: 2
Fore
SplineSet
414 -12 m 256,0,1
 342 -12 342 -12 279.5 15 c 128,-1,2
 217 42 217 42 169.5 89.5 c 128,-1,3
 122 137 122 137 95 199.5 c 128,-1,4
 68 262 68 262 68 333 c 0,5,6
 68 405 68 405 95 468 c 128,-1,7
 122 531 122 531 169.5 578.5 c 128,-1,8
 217 626 217 626 279.5 653 c 128,-1,9
 342 680 342 680 414 680 c 256,10,11
 486 680 486 680 548.5 653 c 128,-1,12
 611 626 611 626 658.5 578.5 c 128,-1,13
 706 531 706 531 733 468 c 128,-1,14
 760 405 760 405 760 333 c 0,15,16
 760 262 760 262 733 199.5 c 128,-1,17
 706 137 706 137 658.5 89.5 c 128,-1,18
 611 42 611 42 548.5 15 c 128,-1,19
 486 -12 486 -12 414 -12 c 256,0,1
414 49 m 256,20,21
 473 49 473 49 524.5 71 c 128,-1,22
 576 93 576 93 615 132.5 c 128,-1,23
 654 172 654 172 676 223.5 c 128,-1,24
 698 275 698 275 698 333 c 0,25,26
 698 392 698 392 676 443.5 c 128,-1,27
 654 495 654 495 615 534.5 c 128,-1,28
 576 574 576 574 524.5 596.5 c 128,-1,29
 473 619 473 619 414 619 c 256,30,31
 355 619 355 619 303.5 596.5 c 128,-1,32
 252 574 252 574 213 534.5 c 128,-1,33
 174 495 174 495 152 443.5 c 128,-1,34
 130 392 130 392 130 333 c 0,35,36
 130 275 130 275 152 223.5 c 128,-1,37
 174 172 174 172 213 132.5 c 128,-1,38
 252 93 252 93 303.5 71 c 128,-1,39
 355 49 355 49 414 49 c 256,20,21
279 162 m 1,40,-1
 279 530 l 1,41,-1
 391 530 l 2,42,43
 446 530 446 530 484.5 521 c 128,-1,44
 523 512 523 512 544 487.5 c 128,-1,45
 565 463 565 463 565 414 c 0,46,47
 565 399 565 399 559 378.5 c 128,-1,48
 553 358 553 358 534 340 c 128,-1,49
 515 322 515 322 477 311 c 1,50,-1
 585 162 l 1,51,-1
 499 162 l 1,52,-1
 397 301 l 1,53,-1
 355 301 l 1,54,-1
 355 162 l 1,55,-1
 279 162 l 1,40,-1
355 359 m 1,56,-1
 408 359 l 2,57,58
 451 359 451 359 470 373 c 128,-1,59
 489 387 489 387 489 413 c 0,60,61
 489 447 489 447 465 458 c 128,-1,62
 441 469 441 469 403 469 c 2,63,-1
 355 469 l 1,64,-1
 355 359 l 1,56,-1
EndSplineSet
Validated: 1
EndChar

StartChar: macron
Encoding: 175 175 91
Width: 378
GlyphClass: 1
Flags: W
HStem: 601 67<131 393>
VStem: 117 290
LayerCount: 2
Fore
SplineSet
117 601 m 1,0,-1
 131 668 l 1,1,-1
 407 668 l 1,2,-1
 393 601 l 1,3,-1
 117 601 l 1,0,-1
EndSplineSet
Validated: 1
EndChar

StartChar: degree
Encoding: 176 176 92
Width: 354
GlyphClass: 1
Flags: W
HStem: 408 63<170.033 272.555> 617 63<169.524 273.061>
VStem: 85 63<493.033 595.555> 294 63<492.524 596.061>
LayerCount: 2
Fore
SplineSet
221 408 m 0,0,1
 184 408 184 408 153 426.5 c 128,-1,2
 122 445 122 445 103.5 476 c 128,-1,3
 85 507 85 507 85 544 c 0,4,5
 85 582 85 582 103.5 612.5 c 128,-1,6
 122 643 122 643 153 661.5 c 128,-1,7
 184 680 184 680 221 680 c 0,8,9
 259 680 259 680 289.5 661.5 c 128,-1,10
 320 643 320 643 338.5 612.5 c 128,-1,11
 357 582 357 582 357 544 c 0,12,13
 357 507 357 507 338.5 476 c 128,-1,14
 320 445 320 445 289.5 426.5 c 128,-1,15
 259 408 259 408 221 408 c 0,0,1
221 471 m 0,16,17
 252 471 252 471 273 492.5 c 128,-1,18
 294 514 294 514 294 544 c 0,19,20
 294 575 294 575 273 596 c 128,-1,21
 252 617 252 617 221 617 c 0,22,23
 191 617 191 617 169.5 596 c 128,-1,24
 148 575 148 575 148 544 c 0,25,26
 148 514 148 514 169.5 492.5 c 128,-1,27
 191 471 191 471 221 471 c 0,16,17
EndSplineSet
Validated: 1
EndChar

StartChar: plusminus
Encoding: 177 177 93
Width: 649
GlyphClass: 1
Flags: W
HStem: 0 79<63 536> 270 79<63 260 339 536> 476 20G<260 339>
VStem: 260 79<124 270 349 496>
LayerCount: 2
Fore
SplineSet
260 124 m 1,0,-1
 260 270 l 1,1,-1
 63 270 l 1,2,-1
 63 349 l 1,3,-1
 260 349 l 1,4,-1
 260 496 l 1,5,-1
 339 496 l 1,6,-1
 339 349 l 1,7,-1
 536 349 l 1,8,-1
 536 270 l 1,9,-1
 339 270 l 1,10,-1
 339 124 l 1,11,-1
 260 124 l 1,0,-1
63 0 m 1,12,-1
 63 79 l 1,13,-1
 536 79 l 1,14,-1
 536 0 l 1,15,-1
 63 0 l 1,12,-1
EndSplineSet
Validated: 1
EndChar

StartChar: uni00B2
Encoding: 178 178 94
Width: 380
GlyphClass: 1
Flags: W
HStem: 403 58<166 333> 676 21G<117 182.5> 736 50<200.597 297.32>
VStem: 310 70<619.301 724.016>
LayerCount: 2
Fore
SplineSet
57 403 m 1,0,-1
 69 457 l 1,1,2
 163 509 163 509 215 547.5 c 128,-1,3
 267 586 267 586 288.5 619 c 128,-1,4
 310 652 310 652 310 684 c 0,5,6
 310 708 310 708 294.5 722 c 128,-1,7
 279 736 279 736 255 736 c 0,8,9
 232 736 232 736 210 722 c 128,-1,10
 188 708 188 708 177 676 c 1,11,-1
 117 695 l 1,12,13
 134 737 134 737 169.5 761.5 c 128,-1,14
 205 786 205 786 256 786 c 256,15,16
 307 786 307 786 343.5 762.5 c 128,-1,17
 380 739 380 739 380 689 c 0,18,19
 380 631 380 631 324.5 571.5 c 128,-1,20
 269 512 269 512 166 461 c 1,21,-1
 345 461 l 1,22,-1
 333 403 l 1,23,-1
 57 403 l 1,0,-1
EndSplineSet
Validated: 1
EndChar

StartChar: uni00B3
Encoding: 179 179 95
Width: 390
GlyphClass: 1
Flags: W
HStem: 396 51<168.194 276.861> 483 20G<85 152.5> 572 54<203 282.592> 736 50<197.297 301.885>
VStem: 296 69<464.332 554.637> 315 68<644.11 725.027>
LayerCount: 2
Fore
SplineSet
218 396 m 0,0,1
 169 396 169 396 134 420 c 128,-1,2
 99 444 99 444 85 486 c 1,3,-1
 149 503 l 1,4,5
 156 479 156 479 173.5 463 c 128,-1,6
 191 447 191 447 221 447 c 0,7,8
 253 447 253 447 274.5 464 c 128,-1,9
 296 481 296 481 296 513 c 0,10,11
 296 539 296 539 283 551.5 c 128,-1,12
 270 564 270 564 251.5 568 c 128,-1,13
 233 572 233 572 215 572 c 2,14,-1
 192 572 l 1,15,-1
 203 626 l 1,16,-1
 219 626 l 2,17,18
 237 627 237 627 259.5 630.5 c 128,-1,19
 282 634 282 634 298.5 645.5 c 128,-1,20
 315 657 315 657 315 682 c 0,21,22
 315 712 315 712 297.5 724 c 128,-1,23
 280 736 280 736 256 736 c 0,24,25
 228 736 228 736 209 724 c 128,-1,26
 190 712 190 712 176 683 c 1,27,-1
 118 701 l 1,28,29
 139 745 139 745 176 765.5 c 128,-1,30
 213 786 213 786 259 786 c 0,31,32
 290 786 290 786 318.5 777 c 128,-1,33
 347 768 347 768 365 747 c 128,-1,34
 383 726 383 726 383 689 c 0,35,36
 383 661 383 661 366 638 c 128,-1,37
 349 615 349 615 315 602 c 1,38,39
 343 589 343 589 354 565.5 c 128,-1,40
 365 542 365 542 365 519 c 0,41,42
 365 479 365 479 344.5 451.5 c 128,-1,43
 324 424 324 424 290.5 410 c 128,-1,44
 257 396 257 396 218 396 c 0,0,1
EndSplineSet
Validated: 1
EndChar

StartChar: acute
Encoding: 180 180 96
Width: 267
GlyphClass: 1
Flags: W
HStem: 572 135
VStem: 111 184
LayerCount: 2
Fore
SplineSet
111 572 m 1,0,1
 111 572 111 572 126.5 589 c 128,-1,2
 142 606 142 606 164 629 c 128,-1,3
 186 652 186 652 205.5 672 c 128,-1,4
 225 692 225 692 232 698 c 0,5,6
 243 707 243 707 257 707 c 0,7,8
 274 707 274 707 286 695 c 0,9,10
 295 685 295 685 295 669 c 0,11,12
 295 652 295 652 283 641 c 0,13,14
 276 635 276 635 260 623.5 c 128,-1,15
 244 612 244 612 226.5 600 c 128,-1,16
 209 588 209 588 197 580 c 128,-1,17
 185 572 185 572 185 572 c 1,18,-1
 111 572 l 1,0,1
EndSplineSet
Validated: 1
EndChar

StartChar: uni03BC
Encoding: 278 956 97
Width: 539
GlyphClass: 1
Flags: W
HStem: -162 21G<-28 64.1748> -12 69<149.477 280.044> 0 21G<342.529 413.283> 475 20G<107.738 200 424.769 515>
VStem: 344 65<0 32.6887>
LayerCount: 2
Fore
SplineSet
-28 -162 m 1,0,-1
 112 495 l 1,1,-1
 200 495 l 1,2,-1
 136 196 l 2,3,4
 123 131 123 131 139 94 c 128,-1,5
 155 57 155 57 222 57 c 0,6,7
 252 57 252 57 281 72 c 128,-1,8
 310 87 310 87 334.5 126 c 128,-1,9
 359 165 359 165 374 235 c 2,10,-1
 429 495 l 1,11,-1
 515 495 l 1,12,-1
 409 0 l 1,13,-1
 344 0 l 1,14,-1
 339 68 l 1,15,16
 312 31 312 31 280 9.5 c 128,-1,17
 248 -12 248 -12 193 -12 c 0,18,19
 166 -12 166 -12 141 2 c 128,-1,20
 116 16 116 16 103 44 c 1,21,-1
 60 -162 l 1,22,-1
 -28 -162 l 1,0,-1
EndSplineSet
Validated: 33
EndChar

StartChar: paragraph
Encoding: 182 182 98
Width: 518
GlyphClass: 1
Flags: W
HStem: -162 21G<89 176.252 266 353.226> 600 68<334 427 510 551>
LayerCount: 2
Fore
SplineSet
89 -162 m 1,0,-1
 186 294 l 1,1,2
 134 306 134 306 103 345.5 c 128,-1,3
 72 385 72 385 72 438 c 0,4,5
 72 448 72 448 73 458 c 128,-1,6
 74 468 74 468 76 478 c 0,7,8
 88 531 88 531 122.5 574 c 128,-1,9
 157 617 157 617 205.5 642.5 c 128,-1,10
 254 668 254 668 306 668 c 2,11,-1
 566 668 l 1,12,-1
 551 600 l 1,13,-1
 510 600 l 1,14,-1
 349 -162 l 1,15,-1
 266 -162 l 1,16,-1
 427 600 l 1,17,-1
 334 600 l 1,18,-1
 172 -162 l 1,19,-1
 89 -162 l 1,0,-1
EndSplineSet
Validated: 1
EndChar

StartChar: periodcentered
Encoding: 183 183 99
Width: 231
GlyphClass: 1
Flags: W
HStem: 183 129<70.5955 160.404>
VStem: 51 129<202.596 292.405>
LayerCount: 2
Fore
SplineSet
115 183 m 0,0,1
 89 183 89 183 70 202 c 128,-1,2
 51 221 51 221 51 248 c 0,3,4
 51 274 51 274 70 293 c 128,-1,5
 89 312 89 312 115 312 c 0,6,7
 142 312 142 312 161 293 c 128,-1,8
 180 274 180 274 180 248 c 0,9,10
 180 221 180 221 161 202 c 128,-1,11
 142 183 142 183 115 183 c 0,0,1
EndSplineSet
Validated: 1
EndChar

StartChar: cedilla
Encoding: 184 184 100
Width: 290
GlyphClass: 1
Flags: W
HStem: -181 41<-13.4551 104.638>
VStem: 111 63<-132.12 -86.0335>
LayerCount: 2
Fore
SplineSet
61 -181 m 0,0,1
 24 -181 24 -181 -26 -163 c 1,2,-1
 -3 -126 l 1,3,4
 14 -133 14 -133 28 -136.5 c 128,-1,5
 42 -140 42 -140 54 -140 c 0,6,7
 81 -140 81 -140 96 -128 c 128,-1,8
 111 -116 111 -116 111 -104 c 0,9,10
 111 -95 111 -95 103 -88.5 c 128,-1,11
 95 -82 95 -82 76 -82 c 0,12,13
 61 -82 61 -82 54 -84.5 c 128,-1,14
 47 -87 47 -87 41 -87 c 0,15,16
 23 -87 23 -87 23 -70 c 0,17,18
 23 -64 23 -64 28 -57 c 2,19,-1
 96 25 l 1,20,-1
 126 4 l 1,21,-1
 85 -45 l 1,22,23
 92 -44 92 -44 97.5 -43.5 c 128,-1,24
 103 -43 103 -43 109 -43 c 0,25,26
 142 -43 142 -43 158 -59 c 128,-1,27
 174 -75 174 -75 174 -96 c 0,28,29
 174 -125 174 -125 145.5 -153 c 128,-1,30
 117 -181 117 -181 61 -181 c 0,0,1
EndSplineSet
Validated: 1
EndChar

StartChar: uni00B9
Encoding: 185 185 101
Width: 253
GlyphClass: 1
Flags: W
HStem: 682 48<124 196.444>
VStem: 114 172
LayerCount: 2
Fore
SplineSet
137 403 m 1,0,-1
 197 682 l 1,1,-1
 114 682 l 1,2,-1
 124 730 l 1,3,4
 164 730 164 730 189.5 740.5 c 128,-1,5
 215 751 215 751 229 779 c 1,6,-1
 286 779 l 1,7,-1
 206 403 l 1,8,-1
 137 403 l 1,0,-1
EndSplineSet
Validated: 1
EndChar

StartChar: ordmasculine
Encoding: 186 186 102
Width: 379
GlyphClass: 1
Flags: W
HStem: 399 53<170.593 262.899> 639 53<184.407 276.689>
VStem: 85 69<470.065 607.389> 293 69<483.094 621.232>
LayerCount: 2
Fore
SplineSet
208 399 m 0,0,1
 159 399 159 399 122 429 c 128,-1,2
 85 459 85 459 85 523 c 0,3,4
 85 581 85 581 107.5 618.5 c 128,-1,5
 130 656 130 656 165.5 674 c 128,-1,6
 201 692 201 692 239 692 c 0,7,8
 289 692 289 692 325.5 661.5 c 128,-1,9
 362 631 362 631 362 567 c 0,10,11
 362 509 362 509 339.5 472 c 128,-1,12
 317 435 317 435 281.5 417 c 128,-1,13
 246 399 246 399 208 399 c 0,0,1
214 452 m 0,14,15
 247 452 247 452 270 481.5 c 128,-1,16
 293 511 293 511 293 563 c 0,17,18
 293 599 293 599 276.5 619 c 128,-1,19
 260 639 260 639 233 639 c 0,20,21
 201 639 201 639 177.5 610 c 128,-1,22
 154 581 154 581 154 529 c 0,23,24
 154 492 154 492 170.5 472 c 128,-1,25
 187 452 187 452 214 452 c 0,14,15
EndSplineSet
Validated: 1
EndChar

StartChar: guillemotright
Encoding: 187 187 103
Width: 551
GlyphClass: 1
Flags: W
LayerCount: 2
Fore
SplineSet
215 40 m 1,0,-1
 396 261 l 1,1,-1
 299 461 l 1,2,-1
 388 461 l 1,3,-1
 491 251 l 1,4,-1
 319 40 l 1,5,-1
 215 40 l 1,0,-1
7 40 m 1,6,-1
 188 261 l 1,7,-1
 91 461 l 1,8,-1
 180 461 l 1,9,-1
 283 251 l 1,10,-1
 111 40 l 1,11,-1
 7 40 l 1,6,-1
EndSplineSet
Validated: 1
EndChar

StartChar: onequarter
Encoding: 188 188 104
Width: 820
GlyphClass: 1
Flags: W
HStem: 0 21G<98 200.012 572 646.186> 86 57<490 590 672 725> 571 47<120 192.444> 648 20G<218 282 551.988 654>
LayerCount: 2
Fore
SplineSet
98 0 m 1,0,-1
 566 668 l 1,1,-1
 654 668 l 1,2,-1
 186 0 l 1,3,-1
 98 0 l 1,0,-1
134 292 m 1,4,-1
 193 571 l 1,5,-1
 110 571 l 1,6,-1
 120 618 l 1,7,8
 160 618 160 618 185.5 628.5 c 128,-1,9
 211 639 211 639 225 667 c 1,10,-1
 282 667 l 1,11,-1
 202 292 l 1,12,-1
 134 292 l 1,4,-1
572 0 m 1,13,-1
 590 86 l 1,14,-1
 397 86 l 1,15,-1
 409 140 l 1,16,-1
 645 375 l 1,17,-1
 722 375 l 1,18,-1
 672 143 l 1,19,-1
 737 143 l 1,20,-1
 725 86 l 1,21,-1
 660 86 l 1,22,-1
 642 0 l 1,23,-1
 572 0 l 1,13,-1
490 143 m 1,24,-1
 602 143 l 1,25,-1
 634 289 l 1,26,-1
 490 143 l 1,24,-1
EndSplineSet
Validated: 1
Ligature2: "'frac' Diagonal Fractions lookup 10 subtable" one slash four
EndChar

StartChar: onehalf
Encoding: 189 189 105
Width: 798
GlyphClass: 1
Flags: W
HStem: 0 58<518 685> 333 49<552.597 649.117> 571 47<120 191.695> 648 20G<218 282 544.988 647>
VStem: 662 71<215.722 320.107>
LayerCount: 2
Fore
SplineSet
91 0 m 1,0,-1
 559 668 l 1,1,-1
 647 668 l 1,2,-1
 179 0 l 1,3,-1
 91 0 l 1,0,-1
133 292 m 1,4,-1
 192 571 l 1,5,-1
 110 571 l 1,6,-1
 120 618 l 1,7,8
 160 618 160 618 185.5 628.5 c 128,-1,9
 211 639 211 639 225 667 c 1,10,-1
 282 667 l 1,11,-1
 202 292 l 1,12,-1
 133 292 l 1,4,-1
409 0 m 1,13,-1
 420 54 l 1,14,15
 514 106 514 106 566.5 144.5 c 128,-1,16
 619 183 619 183 640.5 215.5 c 128,-1,17
 662 248 662 248 662 280 c 0,18,19
 662 304 662 304 646 318.5 c 128,-1,20
 630 333 630 333 606 333 c 0,21,22
 584 333 584 333 562 319 c 128,-1,23
 540 305 540 305 529 273 c 1,24,-1
 469 292 l 1,25,26
 486 334 486 334 521.5 358 c 128,-1,27
 557 382 557 382 608 382 c 256,28,29
 659 382 659 382 696 359 c 128,-1,30
 733 336 733 336 733 286 c 0,31,32
 733 227 733 227 676.5 168 c 128,-1,33
 620 109 620 109 518 58 c 1,34,-1
 697 58 l 1,35,-1
 685 0 l 1,36,-1
 409 0 l 1,13,-1
EndSplineSet
Validated: 1
Ligature2: "'frac' Diagonal Fractions lookup 10 subtable" one slash two
EndChar

StartChar: threequarters
Encoding: 190 190 106
Width: 902
GlyphClass: 1
Flags: W
HStem: 0 21G<191 293.012 654 728.419> 86 57<572 673 754 807> 291 51<163.194 271.861> 467 54<198 277.592> 631 50<192.297 296.885> 648 20G<644.988 747>
VStem: 291 69<359.332 449.637> 310 68<539.11 620.027>
LayerCount: 2
Fore
SplineSet
213 291 m 0,0,1
 164 291 164 291 129 315 c 128,-1,2
 94 339 94 339 80 381 c 1,3,-1
 144 398 l 1,4,5
 151 374 151 374 168.5 358 c 128,-1,6
 186 342 186 342 216 342 c 0,7,8
 248 342 248 342 269.5 359 c 128,-1,9
 291 376 291 376 291 408 c 0,10,11
 291 434 291 434 278 446.5 c 128,-1,12
 265 459 265 459 246.5 463 c 128,-1,13
 228 467 228 467 210 467 c 2,14,-1
 187 467 l 1,15,-1
 198 521 l 1,16,-1
 214 521 l 2,17,18
 232 522 232 522 254.5 525.5 c 128,-1,19
 277 529 277 529 293.5 540.5 c 128,-1,20
 310 552 310 552 310 577 c 0,21,22
 310 607 310 607 292.5 619 c 128,-1,23
 275 631 275 631 251 631 c 0,24,25
 223 631 223 631 204 619 c 128,-1,26
 185 607 185 607 171 578 c 1,27,-1
 113 596 l 1,28,29
 134 640 134 640 171 660.5 c 128,-1,30
 208 681 208 681 254 681 c 0,31,32
 285 681 285 681 313.5 672 c 128,-1,33
 342 663 342 663 360 642 c 128,-1,34
 378 621 378 621 378 584 c 0,35,36
 378 556 378 556 361 533 c 128,-1,37
 344 510 344 510 310 497 c 1,38,39
 338 484 338 484 349 460.5 c 128,-1,40
 360 437 360 437 360 414 c 0,41,42
 360 374 360 374 339.5 346.5 c 128,-1,43
 319 319 319 319 285.5 305 c 128,-1,44
 252 291 252 291 213 291 c 0,0,1
191 0 m 1,45,-1
 659 668 l 1,46,-1
 747 668 l 1,47,-1
 279 0 l 1,48,-1
 191 0 l 1,45,-1
654 0 m 1,49,-1
 673 86 l 1,50,-1
 480 86 l 1,51,-1
 491 140 l 1,52,-1
 728 375 l 1,53,-1
 804 375 l 1,54,-1
 754 143 l 1,55,-1
 819 143 l 1,56,-1
 807 86 l 1,57,-1
 743 86 l 1,58,-1
 724 0 l 1,59,-1
 654 0 l 1,49,-1
572 143 m 1,60,-1
 685 143 l 1,61,-1
 716 289 l 1,62,-1
 572 143 l 1,60,-1
EndSplineSet
Validated: 1
Ligature2: "'frac' Diagonal Fractions lookup 10 subtable" three slash four
EndChar

StartChar: less
Encoding: 60 60 107
Width: 609
GlyphClass: 1
Flags: W
HStem: 0 21G<464.587 509> 476 20G<464.587 509>
LayerCount: 2
Fore
SplineSet
509 0 m 1,0,-1
 36 213 l 1,1,-1
 36 283 l 1,2,-1
 509 496 l 1,3,-1
 509 406 l 1,4,-1
 141 248 l 1,5,-1
 509 90 l 1,6,-1
 509 0 l 1,0,-1
EndSplineSet
Validated: 1
EndChar

StartChar: equal
Encoding: 61 61 108
Width: 654
GlyphClass: 1
Flags: W
HStem: 121 79<61 557> 307 79<61 557>
LayerCount: 2
Fore
SplineSet
61 307 m 1,0,-1
 61 386 l 1,1,-1
 557 386 l 1,2,-1
 557 307 l 1,3,-1
 61 307 l 1,0,-1
61 121 m 1,4,-1
 61 200 l 1,5,-1
 557 200 l 1,6,-1
 557 121 l 1,7,-1
 61 121 l 1,4,-1
EndSplineSet
Validated: 1
EndChar

StartChar: greater
Encoding: 62 62 109
Width: 609
GlyphClass: 1
Flags: W
HStem: 0 21G<81 125.413> 476 20G<81 125.413>
LayerCount: 2
Fore
SplineSet
81 0 m 1,0,-1
 81 90 l 1,1,-1
 449 248 l 1,2,-1
 81 406 l 1,3,-1
 81 496 l 1,4,-1
 554 283 l 1,5,-1
 554 213 l 1,6,-1
 81 0 l 1,0,-1
EndSplineSet
Validated: 1
EndChar

StartChar: question
Encoding: 63 63 110
Width: 523
GlyphClass: 1
Flags: W
HStem: -12 129<141.626 233.861> 500 21G<99.833 182.5> 609 70<232.771 400.092>
VStem: 121 130<8.62598 98.4348> 168 85<190 265.127> 431 91<471.184 579.567>
LayerCount: 2
Fore
SplineSet
168 190 m 1,0,1
 170 199 170 199 172 208.5 c 128,-1,2
 174 218 174 218 175 227 c 0,3,4
 188 284 188 284 211.5 319 c 128,-1,5
 235 354 235 354 268 377.5 c 128,-1,6
 301 401 301 401 340 421 c 0,7,8
 375 439 375 439 403 464.5 c 128,-1,9
 431 490 431 490 431 527 c 0,10,11
 431 565 431 565 401 587 c 128,-1,12
 371 609 371 609 327 609 c 0,13,14
 201 609 201 609 164 500 c 1,15,-1
 87 524 l 1,16,17
 116 604 116 604 180.5 641.5 c 128,-1,18
 245 679 245 679 330 679 c 0,19,20
 374 679 374 679 418 665 c 128,-1,21
 462 651 462 651 492 619.5 c 128,-1,22
 522 588 522 588 522 533 c 0,23,24
 522 487 522 487 501.5 454 c 128,-1,25
 481 421 481 421 447 396.5 c 128,-1,26
 413 372 413 372 370 351 c 0,27,28
 312 323 312 323 290.5 292.5 c 128,-1,29
 269 262 269 262 261 224 c 0,30,31
 259 216 259 216 257 207 c 128,-1,32
 255 198 255 198 253 190 c 1,33,-1
 168 190 l 1,0,1
186 -12 m 0,34,35
 156 -12 156 -12 138.5 8 c 128,-1,36
 121 28 121 28 121 52 c 0,37,38
 121 81 121 81 141 99 c 128,-1,39
 161 117 161 117 186 117 c 0,40,41
 212 117 212 117 231.5 98 c 128,-1,42
 251 79 251 79 251 53 c 0,43,44
 251 26 251 26 231.5 7 c 128,-1,45
 212 -12 212 -12 186 -12 c 0,34,35
EndSplineSet
Validated: 1
EndChar

StartChar: at
Encoding: 64 64 111
Width: 780
GlyphClass: 1
Flags: W
HStem: -12 60<295.36 514.85> 155 73<305.087 398.871> 155 64<523.993 632.827> 446 73<359.473 473> 619 61<299.896 519.293>
VStem: 63 62<214.91 444.859> 211 81<240.639 372.664> 680 62<273.435 464.814>
LayerCount: 2
Fore
SplineSet
412 -12 m 256,0,1
 342 -12 342 -12 279 10 c 128,-1,2
 216 32 216 32 167 75.5 c 128,-1,3
 118 119 118 119 90.5 183.5 c 128,-1,4
 63 248 63 248 63 334 c 0,5,6
 63 406 63 406 90 468.5 c 128,-1,7
 117 531 117 531 164.5 578.5 c 128,-1,8
 212 626 212 626 274.5 653 c 128,-1,9
 337 680 337 680 409 680 c 0,10,11
 466 680 466 680 524.5 659.5 c 128,-1,12
 583 639 583 639 632.5 599 c 128,-1,13
 682 559 682 559 712 500.5 c 128,-1,14
 742 442 742 442 742 366 c 256,15,16
 742 290 742 290 715 243.5 c 128,-1,17
 688 197 688 197 647 176 c 128,-1,18
 606 155 606 155 565 155 c 0,19,20
 523 155 523 155 491 174 c 128,-1,21
 459 193 459 193 452 225 c 1,22,23
 426 190 426 190 391.5 172.5 c 128,-1,24
 357 155 357 155 324 155 c 0,25,26
 279 155 279 155 245 185.5 c 128,-1,27
 211 216 211 216 211 275 c 0,28,29
 211 344 211 344 241.5 399 c 128,-1,30
 272 454 272 454 326 486.5 c 128,-1,31
 380 519 380 519 450 519 c 0,32,33
 481 519 481 519 511 513.5 c 128,-1,34
 541 508 541 508 567 499 c 1,35,-1
 526 303 l 2,36,37
 523 290 523 290 520.5 278.5 c 128,-1,38
 518 267 518 267 518 258 c 0,39,40
 518 242 518 242 534 230.5 c 128,-1,41
 550 219 550 219 572 219 c 0,42,43
 608 219 608 219 632 240 c 128,-1,44
 656 261 656 261 668 295 c 128,-1,45
 680 329 680 329 680 368 c 0,46,47
 680 419 680 419 659 464 c 128,-1,48
 638 509 638 509 601 544 c 128,-1,49
 564 579 564 579 515 599 c 128,-1,50
 466 619 466 619 409 619 c 0,51,52
 351 619 351 619 299.5 597 c 128,-1,53
 248 575 248 575 208.5 536 c 128,-1,54
 169 497 169 497 147 445 c 128,-1,55
 125 393 125 393 125 334 c 0,56,57
 125 243 125 243 164.5 179 c 128,-1,58
 204 115 204 115 269 81.5 c 128,-1,59
 334 48 334 48 410 48 c 0,60,61
 481 48 481 48 545 85 c 1,62,-1
 545 16 l 1,63,64
 482 -12 482 -12 412 -12 c 256,0,1
344 228 m 0,65,66
 374 228 374 228 407 256 c 128,-1,67
 440 284 440 284 451 339 c 0,68,69
 462 390 462 390 466.5 411.5 c 128,-1,70
 471 433 471 433 472 437.5 c 128,-1,71
 473 442 473 442 473 442 c 1,72,73
 463 444 463 444 452.5 445 c 128,-1,74
 442 446 442 446 430 446 c 0,75,76
 387 446 387 446 356 422.5 c 128,-1,77
 325 399 325 399 308.5 363 c 128,-1,78
 292 327 292 327 292 287 c 0,79,80
 292 258 292 258 307.5 243 c 128,-1,81
 323 228 323 228 344 228 c 0,65,66
EndSplineSet
Validated: 1
EndChar

StartChar: colon
Encoding: 58 58 112
Width: 204
GlyphClass: 1
Flags: W
HStem: -12 129<6.59546 96.4043> 375 129<88.5955 178.404>
VStem: -13 129<7.59546 97.4043> 69 129<394.596 484.405>
LayerCount: 2
Fore
SplineSet
133 375 m 0,0,1
 107 375 107 375 88 394 c 128,-1,2
 69 413 69 413 69 440 c 0,3,4
 69 466 69 466 88 485 c 128,-1,5
 107 504 107 504 133 504 c 0,6,7
 160 504 160 504 179 485 c 128,-1,8
 198 466 198 466 198 440 c 0,9,10
 198 413 198 413 179 394 c 128,-1,11
 160 375 160 375 133 375 c 0,0,1
51 -12 m 0,12,13
 25 -12 25 -12 6 7 c 128,-1,14
 -13 26 -13 26 -13 52 c 0,15,16
 -13 79 -13 79 6 98 c 128,-1,17
 25 117 25 117 51 117 c 0,18,19
 78 117 78 117 97 98 c 128,-1,20
 116 79 116 79 116 52 c 0,21,22
 116 26 116 26 97 7 c 128,-1,23
 78 -12 78 -12 51 -12 c 0,12,13
EndSplineSet
Validated: 1
EndChar

StartChar: bracketleft
Encoding: 91 91 114
Width: 313
GlyphClass: 1
Flags: W
HStem: -161 74<77 186> 593 75<222 346>
LayerCount: 2
Fore
SplineSet
-22 -161 m 1,0,-1
 154 668 l 1,1,-1
 361 668 l 1,2,-1
 346 593 l 1,3,-1
 222 593 l 1,4,-1
 77 -87 l 1,5,-1
 202 -87 l 1,6,-1
 186 -161 l 1,7,-1
 -22 -161 l 1,0,-1
EndSplineSet
Validated: 1
EndChar

StartChar: backslash
Encoding: 92 92 115
Width: 515
GlyphClass: 1
Flags: W
HStem: 0 21G<345.216 440> 648 20G<93 187.784>
LayerCount: 2
Fore
SplineSet
353 0 m 1,0,-1
 93 668 l 1,1,-1
 180 668 l 1,2,-1
 440 0 l 1,3,-1
 353 0 l 1,0,-1
EndSplineSet
Validated: 1
EndChar

StartChar: bracketright
Encoding: 93 93 116
Width: 313
GlyphClass: 1
Flags: W
HStem: -161 74<-49 76> 593 75<111 221>
LayerCount: 2
Fore
SplineSet
-65 -161 m 1,0,-1
 -49 -87 l 1,1,-1
 76 -87 l 1,2,-1
 221 593 l 1,3,-1
 96 593 l 1,4,-1
 111 668 l 1,5,-1
 318 668 l 1,6,-1
 143 -161 l 1,7,-1
 -65 -161 l 1,0,-1
EndSplineSet
Validated: 1
EndChar

StartChar: asciicircum
Encoding: 94 94 117
Width: 548
GlyphClass: 1
Flags: W
HStem: 648 20G<219.636 316.364>
LayerCount: 2
Fore
SplineSet
45 311 m 1,0,-1
 230 668 l 1,1,-1
 306 668 l 1,2,-1
 491 311 l 1,3,-1
 402 311 l 1,4,-1
 268 569 l 1,5,-1
 134 311 l 1,6,-1
 45 311 l 1,0,-1
EndSplineSet
Validated: 1
EndChar

StartChar: underscore
Encoding: 95 95 118
Width: 409
GlyphClass: 1
Flags: W
HStem: -79 79<-34 342>
LayerCount: 2
Fore
SplineSet
-34 -79 m 1,0,-1
 -34 0 l 1,1,-1
 342 0 l 1,2,-1
 342 -79 l 1,3,-1
 -34 -79 l 1,0,-1
EndSplineSet
Validated: 1
EndChar

StartChar: grave
Encoding: 96 96 119
Width: 268
GlyphClass: 1
Flags: W
HStem: 571 136
VStem: 132 144
LayerCount: 2
Fore
SplineSet
208 571 m 1,0,1
 208 571 208 571 194 585.5 c 128,-1,2
 180 600 180 600 163.5 618 c 128,-1,3
 147 636 147 636 139 647 c 0,4,5
 132 657 132 657 132 669 c 0,6,7
 132 690 132 690 147 700 c 0,8,9
 157 707 157 707 170 707 c 0,10,11
 190 707 190 707 200 692 c 0,12,13
 206 684 206 684 218.5 664.5 c 128,-1,14
 231 645 231 645 244 623.5 c 128,-1,15
 257 602 257 602 266.5 586.5 c 128,-1,16
 276 571 276 571 276 571 c 1,17,-1
 208 571 l 1,0,1
EndSplineSet
Validated: 1
EndChar

StartChar: exclam
Encoding: 33 33 120
Width: 280
GlyphClass: 1
Flags: W
HStem: -12 129<45.1107 134.405> 648 20G<170.723 266>
VStem: 25 129<8.11072 97.4043> 93 54<195 220.301>
LayerCount: 2
Fore
SplineSet
93 195 m 1,0,-1
 138 495 l 1,1,-1
 175 668 l 1,2,-1
 266 668 l 1,3,-1
 230 495 l 1,4,-1
 147 195 l 1,5,-1
 93 195 l 1,0,-1
89 -12 m 0,6,7
 64 -12 64 -12 44.5 6.5 c 128,-1,8
 25 25 25 25 25 53 c 0,9,10
 25 79 25 79 43.5 98 c 128,-1,11
 62 117 62 117 90 117 c 0,12,13
 116 117 116 117 135 98 c 128,-1,14
 154 79 154 79 154 52 c 0,15,16
 154 27 154 27 135.5 7.5 c 128,-1,17
 117 -12 117 -12 89 -12 c 0,6,7
EndSplineSet
Validated: 1
EndChar

StartChar: quotedbl
Encoding: 34 34 121
Width: 330
GlyphClass: 1
Flags: W
HStem: 447 221<107 159 248 300>
VStem: 107 52<447 557.5> 248 52<447 557.5>
LayerCount: 2
Fore
SplineSet
248 447 m 1,0,-1
 234 668 l 1,1,-1
 314 668 l 1,2,-1
 300 447 l 1,3,-1
 248 447 l 1,0,-1
107 447 m 1,4,-1
 93 668 l 1,5,-1
 173 668 l 1,6,-1
 159 447 l 1,7,-1
 107 447 l 1,4,-1
EndSplineSet
Validated: 1
EndChar

StartChar: numbersign
Encoding: 35 35 122
Width: 630
GlyphClass: 1
Flags: W
HStem: 0 21G<134 218.791 339 423.791> 172 81<46 159 252 363 457 569> 415 81<80 193 286 397 491 603> 648 20G<225.209 310 430.209 515>
LayerCount: 2
Fore
SplineSet
134 0 m 1,0,-1
 159 172 l 1,1,-1
 35 172 l 1,2,-1
 46 253 l 1,3,-1
 170 253 l 1,4,-1
 193 415 l 1,5,-1
 69 415 l 1,6,-1
 80 496 l 1,7,-1
 204 496 l 1,8,-1
 228 668 l 1,9,-1
 310 668 l 1,10,-1
 286 496 l 1,11,-1
 409 496 l 1,12,-1
 433 668 l 1,13,-1
 515 668 l 1,14,-1
 491 496 l 1,15,-1
 614 496 l 1,16,-1
 603 415 l 1,17,-1
 479 415 l 1,18,-1
 457 253 l 1,19,-1
 580 253 l 1,20,-1
 569 172 l 1,21,-1
 445 172 l 1,22,-1
 421 0 l 1,23,-1
 339 0 l 1,24,-1
 363 172 l 1,25,-1
 240 172 l 1,26,-1
 216 0 l 1,27,-1
 134 0 l 1,0,-1
252 253 m 1,28,-1
 375 253 l 1,29,-1
 397 415 l 1,30,-1
 274 415 l 1,31,-1
 252 253 l 1,28,-1
EndSplineSet
Validated: 1
EndChar

StartChar: dollar
Encoding: 36 36 123
Width: 606
GlyphClass: 1
Flags: W
HStem: -5 79<273 385.641> 608 80<228.397 334>
VStem: 86 95<449.35 565.147> 446 98<127.481 250.398>
LayerCount: 2
Fore
SplineSet
188 -80 m 1,0,-1
 206 4 l 1,1,2
 148 18 148 18 102 55 c 128,-1,3
 56 92 56 92 35 153 c 1,4,-1
 126 179 l 1,5,6
 138 143 138 143 164.5 120 c 128,-1,7
 191 97 191 97 223 86 c 1,8,-1
 273 319 l 1,9,10
 227 333 227 333 184 352 c 128,-1,11
 141 371 141 371 113.5 406.5 c 128,-1,12
 86 442 86 442 86 503 c 0,13,14
 86 565 86 565 120.5 606 c 128,-1,15
 155 647 155 647 209.5 667.5 c 128,-1,16
 264 688 264 688 324 688 c 0,17,18
 331 688 331 688 337.5 688 c 128,-1,19
 344 688 344 688 351 687 c 1,20,-1
 364 750 l 1,21,-1
 416 750 l 1,22,-1
 401 679 l 1,23,24
 454 667 454 667 497 638 c 128,-1,25
 540 609 540 609 561 563 c 1,26,-1
 469 537 l 1,27,28
 457 560 457 560 435 575.5 c 128,-1,29
 413 591 413 591 384 599 c 1,30,-1
 339 388 l 1,31,32
 376 377 376 377 412 363.5 c 128,-1,33
 448 350 448 350 478 330 c 128,-1,34
 508 310 508 310 526 279.5 c 128,-1,35
 544 249 544 249 544 204 c 0,36,37
 544 154 544 154 522 115 c 128,-1,38
 500 76 500 76 463 49.5 c 128,-1,39
 426 23 426 23 380 9 c 128,-1,40
 334 -5 334 -5 285 -5 c 0,41,42
 278 -5 278 -5 271 -5 c 128,-1,43
 264 -5 264 -5 256 -4 c 1,44,-1
 240 -80 l 1,45,-1
 188 -80 l 1,0,-1
291 403 m 1,46,-1
 334 608 l 1,47,48
 297 611 297 611 261.5 600.5 c 128,-1,49
 226 590 226 590 203.5 566.5 c 128,-1,50
 181 543 181 543 181 505 c 0,51,52
 181 463 181 463 213 440.5 c 128,-1,53
 245 418 245 418 291 403 c 1,46,-1
294 74 m 0,54,55
 333 74 333 74 368 87.5 c 128,-1,56
 403 101 403 101 424.5 127.5 c 128,-1,57
 446 154 446 154 446 191 c 0,58,59
 446 224 446 224 429 245 c 128,-1,60
 412 266 412 266 384 279.5 c 128,-1,61
 356 293 356 293 322 304 c 1,62,-1
 273 75 l 1,63,64
 278 74 278 74 283.5 74 c 128,-1,65
 289 74 289 74 294 74 c 0,54,55
EndSplineSet
Validated: 33
EndChar

StartChar: percent
Encoding: 37 37 124
Width: 996
GlyphClass: 1
Flags: W
HStem: -12 74<677.188 806.625> 0 21G<229 331.012> 277 74<694.257 825.077> 317 74<189.188 318.625> 606 74<206.257 337.077> 648 20G<682.988 785>
VStem: 80 74<426.039 553.766> 371 75<443.124 572.434> 568 74<97.0391 224.766> 859 75<114.124 243.434>
LayerCount: 2
Fore
SplineSet
244 317 m 0,0,1
 197 317 197 317 160 338.5 c 128,-1,2
 123 360 123 360 101.5 397 c 128,-1,3
 80 434 80 434 80 479 c 0,4,5
 80 534 80 534 108 579.5 c 128,-1,6
 136 625 136 625 182.5 652.5 c 128,-1,7
 229 680 229 680 282 680 c 0,8,9
 329 680 329 680 366 658.5 c 128,-1,10
 403 637 403 637 424.5 600.5 c 128,-1,11
 446 564 446 564 446 519 c 0,12,13
 446 464 446 464 417.5 418 c 128,-1,14
 389 372 389 372 343 344.5 c 128,-1,15
 297 317 297 317 244 317 c 0,0,1
229 0 m 1,16,-1
 697 668 l 1,17,-1
 785 668 l 1,18,-1
 317 0 l 1,19,-1
 229 0 l 1,16,-1
252 391 m 0,20,21
 284 391 284 391 311 407.5 c 128,-1,22
 338 424 338 424 354.5 451.5 c 128,-1,23
 371 479 371 479 371 512 c 0,24,25
 371 552 371 552 343.5 579 c 128,-1,26
 316 606 316 606 274 606 c 0,27,28
 243 606 243 606 215.5 590 c 128,-1,29
 188 574 188 574 171 547 c 128,-1,30
 154 520 154 520 154 488 c 0,31,32
 154 447 154 447 182 419 c 128,-1,33
 210 391 210 391 252 391 c 0,20,21
732 -12 m 0,34,35
 685 -12 685 -12 648 9.5 c 128,-1,36
 611 31 611 31 589.5 68 c 128,-1,37
 568 105 568 105 568 150 c 0,38,39
 568 205 568 205 596 250.5 c 128,-1,40
 624 296 624 296 670.5 323.5 c 128,-1,41
 717 351 717 351 770 351 c 0,42,43
 817 351 817 351 854 329.5 c 128,-1,44
 891 308 891 308 912.5 271.5 c 128,-1,45
 934 235 934 235 934 190 c 0,46,47
 934 135 934 135 905.5 89 c 128,-1,48
 877 43 877 43 831 15.5 c 128,-1,49
 785 -12 785 -12 732 -12 c 0,34,35
740 62 m 0,50,51
 772 62 772 62 799 78.5 c 128,-1,52
 826 95 826 95 842.5 122.5 c 128,-1,53
 859 150 859 150 859 183 c 0,54,55
 859 223 859 223 831.5 250 c 128,-1,56
 804 277 804 277 762 277 c 0,57,58
 731 277 731 277 703.5 261 c 128,-1,59
 676 245 676 245 659 218 c 128,-1,60
 642 191 642 191 642 159 c 0,61,62
 642 118 642 118 670 90 c 128,-1,63
 698 62 698 62 740 62 c 0,50,51
EndSplineSet
Validated: 1
EndChar

StartChar: ampersand
Encoding: 38 38 125
Width: 687
GlyphClass: 1
Flags: W
HStem: -12 78<134.268 309.159> 0 21G<490.116 617> 609 70<298.584 432.81>
VStem: 13 86<100.16 240.363> 180 88<447.566 578.389> 452 83<485.944 588.921>
LayerCount: 2
Fore
SplineSet
202 -12 m 0,0,1
 139 -12 139 -12 97 11.5 c 128,-1,2
 55 35 55 35 34 74.5 c 128,-1,3
 13 114 13 114 13 162 c 0,4,5
 13 215 13 215 41 260 c 128,-1,6
 69 305 69 305 116 338 c 128,-1,7
 163 371 163 371 220 389 c 1,8,9
 202 418 202 418 191 449.5 c 128,-1,10
 180 481 180 481 180 513 c 0,11,12
 180 564 180 564 204.5 601.5 c 128,-1,13
 229 639 229 639 272 659 c 128,-1,14
 315 679 315 679 369 679 c 0,15,16
 415 679 415 679 452.5 664.5 c 128,-1,17
 490 650 490 650 512.5 622 c 128,-1,18
 535 594 535 594 535 552 c 0,19,20
 535 502 535 502 508.5 466.5 c 128,-1,21
 482 431 482 431 439.5 406 c 128,-1,22
 397 381 397 381 349 362 c 1,23,-1
 454 222 l 1,24,25
 476 248 476 248 495.5 284 c 128,-1,26
 515 320 515 320 527 360 c 1,27,-1
 614 360 l 1,28,29
 598 307 598 307 567.5 254.5 c 128,-1,30
 537 202 537 202 501 157 c 1,31,-1
 617 0 l 1,32,-1
 505 0 l 1,33,-1
 441 86 l 1,34,35
 389 41 389 41 331.5 14.5 c 128,-1,36
 274 -12 274 -12 202 -12 c 0,0,1
310 416 m 1,37,38
 346 428 346 428 378.5 445.5 c 128,-1,39
 411 463 411 463 431.5 487 c 128,-1,40
 452 511 452 511 452 540 c 0,41,42
 452 567 452 567 433 588 c 128,-1,43
 414 609 414 609 371 609 c 0,44,45
 324 609 324 609 296 585 c 128,-1,46
 268 561 268 561 268 520 c 0,47,48
 268 496 268 496 277 474 c 128,-1,49
 286 452 286 452 296.5 437 c 128,-1,50
 307 422 307 422 310 416 c 1,37,38
210 66 m 0,51,52
 263 66 263 66 307.5 87 c 128,-1,53
 352 108 352 108 398 145 c 1,54,-1
 261 333 l 1,55,56
 191 311 191 311 145 269 c 128,-1,57
 99 227 99 227 99 165 c 0,58,59
 99 116 99 116 130 91 c 128,-1,60
 161 66 161 66 210 66 c 0,51,52
EndSplineSet
Validated: 1
EndChar

StartChar: quotesingle
Encoding: 39 39 126
Width: 189
GlyphClass: 1
Flags: W
HStem: 447 221<107 159>
VStem: 107 52<447 557.5>
LayerCount: 2
Fore
SplineSet
107 447 m 1,0,-1
 93 668 l 1,1,-1
 173 668 l 1,2,-1
 159 447 l 1,3,-1
 107 447 l 1,0,-1
EndSplineSet
Validated: 1
EndChar

StartChar: parenleft
Encoding: 40 40 127
Width: 297
GlyphClass: 1
Flags: W
HStem: -162 21G<75 168> 648 20G<200.5 335>
VStem: 27 80<-39.4957 293.251>
LayerCount: 2
Fore
SplineSet
91 -162 m 1,0,1
 59 -88 59 -88 43 -14.5 c 128,-1,2
 27 59 27 59 27 131 c 0,3,4
 27 274 27 274 86 409.5 c 128,-1,5
 145 545 145 545 256 668 c 1,6,-1
 335 668 l 1,7,8
 268 586 268 586 216.5 499 c 128,-1,9
 165 412 165 412 136 319 c 128,-1,10
 107 226 107 226 107 124 c 0,11,12
 107 57 107 57 122 -14.5 c 128,-1,13
 137 -86 137 -86 168 -162 c 1,14,-1
 91 -162 l 1,0,1
EndSplineSet
Validated: 1
EndChar

StartChar: parenright
Encoding: 41 41 128
Width: 298
GlyphClass: 1
Flags: W
HStem: -162 21G<-55 81> 648 20G<113 222>
VStem: 174 80<215.547 545.094>
LayerCount: 2
Fore
SplineSet
-55 -162 m 1,0,1
 12 -80 12 -80 63.5 7 c 128,-1,2
 115 94 115 94 144.5 187.5 c 128,-1,3
 174 281 174 281 174 382 c 0,4,5
 174 450 174 450 159.5 521 c 128,-1,6
 145 592 145 592 113 668 c 1,7,-1
 190 668 l 1,8,9
 254 522 254 522 254 375 c 0,10,11
 254 233 254 233 195 97 c 128,-1,12
 136 -39 136 -39 26 -162 c 1,13,-1
 -55 -162 l 1,0,1
EndSplineSet
Validated: 1
EndChar

StartChar: asterisk
Encoding: 42 42 129
Width: 435
GlyphClass: 1
Flags: W
HStem: 373 294
VStem: 104 289
LayerCount: 2
Fore
SplineSet
278 373 m 1,0,-1
 234 470 l 1,1,-1
 155 399 l 1,2,-1
 117 442 l 1,3,-1
 196 513 l 1,4,-1
 104 566 l 1,5,-1
 133 615 l 1,6,-1
 225 562 l 1,7,-1
 247 667 l 1,8,-1
 303 655 l 1,9,-1
 281 550 l 1,10,-1
 386 561 l 1,11,-1
 393 505 l 1,12,-1
 287 493 l 1,13,-1
 330 396 l 1,14,-1
 278 373 l 1,0,-1
EndSplineSet
Validated: 1
EndChar

StartChar: plus
Encoding: 43 43 130
Width: 615
GlyphClass: 1
Flags: W
HStem: 0 21G<248 328> 208 80<40 248 328 536> 476 20G<248 328>
VStem: 248 80<0 208 288 496>
LayerCount: 2
Fore
SplineSet
248 0 m 1,0,-1
 248 208 l 1,1,-1
 40 208 l 1,2,-1
 40 288 l 1,3,-1
 248 288 l 1,4,-1
 248 496 l 1,5,-1
 328 496 l 1,6,-1
 328 288 l 1,7,-1
 536 288 l 1,8,-1
 536 208 l 1,9,-1
 328 208 l 1,10,-1
 328 0 l 1,11,-1
 248 0 l 1,0,-1
EndSplineSet
Validated: 1
EndChar

StartChar: comma
Encoding: 44 44 131
Width: 205
GlyphClass: 1
Flags: W
HStem: -134 250
VStem: -13 129<3.05591 95.3738>
LayerCount: 2
Fore
SplineSet
-46 -134 m 1,0,-1
 30 -9 l 1,1,2
 -13 7 -13 7 -13 52 c 0,3,4
 -13 80 -13 80 6 98 c 128,-1,5
 25 116 25 116 50 116 c 0,6,7
 80 116 80 116 98 96 c 128,-1,8
 116 76 116 76 116 51 c 0,9,10
 116 39 116 39 112 29.5 c 128,-1,11
 108 20 108 20 100 7 c 2,12,-1
 15 -134 l 1,13,-1
 -46 -134 l 1,0,-1
EndSplineSet
Validated: 1
EndChar

StartChar: hyphen
Encoding: 45 45 132
Width: 368
GlyphClass: 1
Flags: W
HStem: 208 81<47 321>
VStem: 29 310
LayerCount: 2
Fore
SplineSet
29 208 m 1,0,-1
 47 289 l 1,1,-1
 339 289 l 1,2,-1
 321 208 l 1,3,-1
 29 208 l 1,0,-1
EndSplineSet
Validated: 1
EndChar

StartChar: period
Encoding: 46 46 133
Width: 204
GlyphClass: 1
Flags: W
HStem: -12 129<16.5955 106.404>
VStem: -3 129<7.59546 97.4043>
LayerCount: 2
Fore
SplineSet
61 -12 m 0,0,1
 35 -12 35 -12 16 7 c 128,-1,2
 -3 26 -3 26 -3 52 c 0,3,4
 -3 79 -3 79 16 98 c 128,-1,5
 35 117 35 117 61 117 c 0,6,7
 88 117 88 117 107 98 c 128,-1,8
 126 79 126 79 126 52 c 0,9,10
 126 26 126 26 107 7 c 128,-1,11
 88 -12 88 -12 61 -12 c 0,0,1
EndSplineSet
Validated: 1
EndChar

StartChar: slash
Encoding: 47 47 134
Width: 367
GlyphClass: 1
Flags: W
HStem: 0 21G<-52 47.0359> 648 20G<337.964 437>
LayerCount: 2
Fore
SplineSet
-52 0 m 1,0,-1
 350 668 l 1,1,-1
 437 668 l 1,2,-1
 35 0 l 1,3,-1
 -52 0 l 1,0,-1
EndSplineSet
Validated: 1
EndChar

StartChar: braceleft
Encoding: 123 123 135
Width: 318
GlyphClass: 1
Flags: W
HStem: -162 71<125.771 190> 220 67<35 72.5146> 596 72<264.865 351>
LayerCount: 2
Fore
SplineSet
147 -162 m 2,0,1
 65 -162 65 -162 44 -130 c 128,-1,2
 23 -98 23 -98 39 -25 c 2,3,-1
 71 125 l 2,4,5
 80 168 80 168 74 194 c 128,-1,6
 68 220 68 220 21 220 c 1,7,-1
 35 287 l 1,8,9
 82 287 82 287 99.5 313 c 128,-1,10
 117 339 117 339 126 382 c 2,11,-1
 161 545 l 2,12,13
 171 592 171 592 187.5 619 c 128,-1,14
 204 646 204 646 235.5 657 c 128,-1,15
 267 668 267 668 323 668 c 2,16,-1
 366 668 l 1,17,-1
 351 596 l 1,18,-1
 309 596 l 2,19,20
 276 596 276 596 264.5 583.5 c 128,-1,21
 253 571 253 571 245 533 c 2,22,-1
 212 380 l 2,23,24
 199 317 199 317 170.5 290.5 c 128,-1,25
 142 264 142 264 104 254 c 1,26,-1
 104 253 l 1,27,28
 139 243 139 243 155 216 c 128,-1,29
 171 189 171 189 158 127 c 2,30,-1
 126 -26 l 2,31,32
 117 -69 117 -69 125.5 -80 c 128,-1,33
 134 -91 134 -91 163 -91 c 2,34,-1
 205 -91 l 1,35,-1
 190 -162 l 1,36,-1
 147 -162 l 2,0,1
EndSplineSet
Validated: 33
EndChar

StartChar: bar
Encoding: 124 124 136
Width: 285
GlyphClass: 1
Flags: W
HStem: -161 21G<94 175> 648 20G<94 175>
VStem: 94 81<-161 668>
LayerCount: 2
Fore
SplineSet
94 -161 m 1,0,-1
 94 668 l 1,1,-1
 175 668 l 1,2,-1
 175 -161 l 1,3,-1
 94 -161 l 1,0,-1
EndSplineSet
Validated: 1
EndChar

StartChar: braceright
Encoding: 125 125 137
Width: 318
GlyphClass: 1
Flags: W
HStem: -163 72<-49 37.1354> 218 67<230.066 267> 596 71<112 176.714>
LayerCount: 2
Fore
SplineSet
-64 -163 m 1,0,-1
 -49 -91 l 1,1,-1
 -7 -91 l 2,2,3
 26 -91 26 -91 37.5 -78.5 c 128,-1,4
 49 -66 49 -66 57 -28 c 2,5,-1
 90 125 l 2,6,7
 104 188 104 188 132 214.5 c 128,-1,8
 160 241 160 241 198 251 c 1,9,-1
 198 252 l 1,10,11
 163 263 163 263 147 289.5 c 128,-1,12
 131 316 131 316 144 378 c 2,13,-1
 179 542 l 2,14,15
 186 575 186 575 177 585.5 c 128,-1,16
 168 596 168 596 139 596 c 2,17,-1
 97 596 l 1,18,-1
 112 667 l 1,19,-1
 155 667 l 2,20,21
 237 667 237 667 258 635.5 c 128,-1,22
 279 604 279 604 263 530 c 2,23,-1
 231 380 l 2,24,25
 222 337 222 337 228.5 311 c 128,-1,26
 235 285 235 285 281 285 c 1,27,-1
 267 218 l 1,28,29
 221 218 221 218 203 192 c 128,-1,30
 185 166 185 166 176 123 c 2,31,-1
 141 -40 l 2,32,33
 131 -87 131 -87 114.5 -114 c 128,-1,34
 98 -141 98 -141 66.5 -152 c 128,-1,35
 35 -163 35 -163 -21 -163 c 2,36,-1
 -64 -163 l 1,0,-1
EndSplineSet
Validated: 33
EndChar

StartChar: asciitilde
Encoding: 126 126 138
Width: 535
GlyphClass: 1
Flags: W
HStem: 195 73<286.164 410.769> 249 74<115.517 244.562>
LayerCount: 2
Fore
SplineSet
362 195 m 0,0,1
 326 195 326 195 291.5 208.5 c 128,-1,2
 257 222 257 222 224.5 235.5 c 128,-1,3
 192 249 192 249 162 249 c 0,4,5
 137 249 137 249 120 236.5 c 128,-1,6
 103 224 103 224 98 199 c 1,7,-1
 23 221 l 1,8,9
 34 267 34 267 70 295 c 128,-1,10
 106 323 106 323 160 323 c 0,11,12
 202 323 202 323 237.5 309.5 c 128,-1,13
 273 296 273 296 304 282 c 128,-1,14
 335 268 335 268 361 268 c 0,15,16
 384 268 384 268 401.5 281 c 128,-1,17
 419 294 419 294 424 319 c 1,18,-1
 498 297 l 1,19,20
 487 251 487 251 451 223 c 128,-1,21
 415 195 415 195 362 195 c 0,0,1
EndSplineSet
Validated: 1
EndChar

StartChar: exclamdown
Encoding: 161 161 139
Width: 279
GlyphClass: 1
Flags: W
HStem: -161 21G<-2 93.2775> 390 129<129.596 219.405>
VStem: 110 129<409.596 499.405> 117 55<285.476 311>
LayerCount: 2
Fore
SplineSet
175 390 m 0,0,1
 148 390 148 390 129 409 c 128,-1,2
 110 428 110 428 110 455 c 0,3,4
 110 481 110 481 129 500 c 128,-1,5
 148 519 148 519 175 519 c 0,6,7
 201 519 201 519 220 500 c 128,-1,8
 239 481 239 481 239 455 c 0,9,10
 239 428 239 428 220 409 c 128,-1,11
 201 390 201 390 175 390 c 0,0,1
-2 -161 m 1,12,-1
 35 12 l 1,13,-1
 117 311 l 1,14,-1
 172 311 l 1,15,-1
 126 12 l 1,16,-1
 89 -161 l 1,17,-1
 -2 -161 l 1,12,-1
EndSplineSet
Validated: 1
EndChar

StartChar: cent
Encoding: 162 162 140
Width: 488
GlyphClass: 1
Flags: W
HStem: -12 73<238 312.345> 427 74<330 363.978>
VStem: 23 91<108.893 312.497>
LayerCount: 2
Fore
SplineSet
155 -87 m 1,0,-1
 172 -8 l 1,1,2
 101 5 101 5 62 57.5 c 128,-1,3
 23 110 23 110 23 191 c 0,4,5
 23 205 23 205 24 219 c 128,-1,6
 25 233 25 233 27 247 c 0,7,8
 38 318 38 318 71.5 375 c 128,-1,9
 105 432 105 432 158.5 466 c 128,-1,10
 212 500 212 500 281 503 c 1,11,-1
 295 571 l 1,12,-1
 345 571 l 1,13,-1
 330 501 l 1,14,15
 434 486 434 486 478 392 c 1,16,-1
 395 364 l 1,17,18
 387 389 387 389 366 405.5 c 128,-1,19
 345 422 345 422 316 427 c 1,20,-1
 238 61 l 1,21,22
 278 62 278 62 308 79.5 c 128,-1,23
 338 97 338 97 360 127 c 1,24,-1
 431 98 l 1,25,26
 398 43 398 43 342.5 16 c 128,-1,27
 287 -11 287 -11 222 -12 c 1,28,-1
 206 -87 l 1,29,-1
 155 -87 l 1,0,-1
188 68 m 1,30,-1
 265 428 l 1,31,32
 220 421 220 421 189.5 393.5 c 128,-1,33
 159 366 159 366 142 327.5 c 128,-1,34
 125 289 125 289 118 248 c 0,35,36
 116 235 116 235 115 221.5 c 128,-1,37
 114 208 114 208 114 196 c 0,38,39
 114 150 114 150 131 116 c 128,-1,40
 148 82 148 82 188 68 c 1,30,-1
EndSplineSet
Validated: 1
EndChar

StartChar: sterling
Encoding: 163 163 141
Width: 581
GlyphClass: 1
Flags: W
HStem: -12 78<276.391 473.428> 25 77<109.452 280.7> 317 51<84 170 274 455> 608 71<293.368 462.768>
VStem: 151 90<368.89 558.54> 190 90<188.794 316.514>
LayerCount: 2
Fore
SplineSet
33 -12 m 1,0,-1
 20 55 l 1,1,2
 37 61 37 61 65 77 c 128,-1,3
 93 93 93 93 122 118.5 c 128,-1,4
 151 144 151 144 170.5 180.5 c 128,-1,5
 190 217 190 217 190 264 c 0,6,7
 190 294 190 294 182 317 c 1,8,-1
 73 317 l 1,9,-1
 84 368 l 1,10,-1
 170 368 l 1,11,12
 162 396 162 396 156.5 424 c 128,-1,13
 151 452 151 452 151 483 c 0,14,15
 151 537 151 537 171 574.5 c 128,-1,16
 191 612 191 612 224.5 635 c 128,-1,17
 258 658 258 658 299.5 668.5 c 128,-1,18
 341 679 341 679 384 679 c 0,19,20
 464 679 464 679 518.5 646 c 128,-1,21
 573 613 573 613 589 549 c 1,22,-1
 506 526 l 1,23,24
 489 574 489 574 460.5 591 c 128,-1,25
 432 608 432 608 380 608 c 0,26,27
 349 608 349 608 316.5 597 c 128,-1,28
 284 586 284 586 262.5 558.5 c 128,-1,29
 241 531 241 531 241 480 c 0,30,31
 241 452 241 452 248 424.5 c 128,-1,32
 255 397 255 397 263 368 c 1,33,-1
 466 368 l 1,34,-1
 455 317 l 1,35,-1
 274 317 l 1,36,37
 277 309 277 309 278.5 297.5 c 128,-1,38
 280 286 280 286 280 273 c 0,39,40
 280 209 280 209 240.5 163.5 c 128,-1,41
 201 118 201 118 148 90 c 1,42,43
 166 97 166 97 181.5 99.5 c 128,-1,44
 197 102 197 102 210 102 c 0,45,46
 240 102 240 102 263 93 c 128,-1,47
 286 84 286 84 311 75 c 128,-1,48
 336 66 336 66 370 66 c 0,49,50
 393 66 393 66 421 71.5 c 128,-1,51
 449 77 449 77 485 91 c 1,52,-1
 495 18 l 1,53,54
 453 1 453 1 421.5 -5.5 c 128,-1,55
 390 -12 390 -12 364 -12 c 0,56,57
 327 -12 327 -12 298 -2.5 c 128,-1,58
 269 7 269 7 241 16 c 128,-1,59
 213 25 213 25 176 25 c 0,60,61
 148 25 148 25 114 17 c 128,-1,62
 80 9 80 9 33 -12 c 1,0,-1
EndSplineSet
Validated: 1
EndChar

StartChar: currency
Encoding: 164 164 142
Width: 662
GlyphClass: 1
Flags: W
HStem: 103 75<261.848 412.65> 463 76<261.848 412.65>
VStem: 119 76<245.376 396.151> 479 76<245.566 396.151>
LayerCount: 2
Fore
SplineSet
136 84 m 1,0,-1
 100 119 l 1,1,-1
 166 185 l 1,2,3
 119 246 119 246 119 321 c 0,4,5
 119 357 119 357 131 392 c 128,-1,6
 143 427 143 427 166 456 c 1,7,-1
 100 522 l 1,8,-1
 136 558 l 1,9,-1
 202 492 l 1,10,11
 232 516 232 516 266.5 527.5 c 128,-1,12
 301 539 301 539 337 539 c 256,13,14
 373 539 373 539 408 527.5 c 128,-1,15
 443 516 443 516 472 492 c 1,16,-1
 538 558 l 1,17,-1
 574 522 l 1,18,-1
 508 456 l 1,19,20
 532 427 532 427 543.5 392 c 128,-1,21
 555 357 555 357 555 321 c 256,22,23
 555 285 555 285 543.5 250 c 128,-1,24
 532 215 532 215 508 185 c 1,25,-1
 574 119 l 1,26,-1
 538 84 l 1,27,-1
 472 149 l 1,28,29
 443 126 443 126 408 114.5 c 128,-1,30
 373 103 373 103 337 103 c 256,31,32
 301 103 301 103 266.5 114.5 c 128,-1,33
 232 126 232 126 202 149 c 1,34,-1
 136 84 l 1,0,-1
337 178 m 0,35,36
 377 178 377 178 409 197.5 c 128,-1,37
 441 217 441 217 460 249.5 c 128,-1,38
 479 282 479 282 479 321 c 256,39,40
 479 360 479 360 460 392 c 128,-1,41
 441 424 441 424 409 443.5 c 128,-1,42
 377 463 377 463 337 463 c 0,43,44
 298 463 298 463 265.5 443.5 c 128,-1,45
 233 424 233 424 214 392 c 128,-1,46
 195 360 195 360 195 321 c 256,47,48
 195 282 195 282 214 249.5 c 128,-1,49
 233 217 233 217 265.5 197.5 c 128,-1,50
 298 178 298 178 337 178 c 0,35,36
EndSplineSet
Validated: 1
EndChar

StartChar: yen
Encoding: 165 165 143
Width: 594
GlyphClass: 1
Flags: W
HStem: 0 21G<176 277.186> 86 51<56 194 302 437> 223 51<85 216 350 466> 648 20G<88 190.195 536.484 666>
LayerCount: 2
Fore
SplineSet
176 0 m 1,0,-1
 194 86 l 1,1,-1
 45 86 l 1,2,-1
 56 137 l 1,3,-1
 205 137 l 1,4,-1
 223 223 l 1,5,-1
 74 223 l 1,6,-1
 85 274 l 1,7,-1
 216 274 l 1,8,-1
 88 668 l 1,9,-1
 184 668 l 1,10,-1
 289 329 l 1,11,-1
 552 668 l 1,12,-1
 666 668 l 1,13,-1
 350 274 l 1,14,-1
 477 274 l 1,15,-1
 466 223 l 1,16,-1
 320 223 l 1,17,-1
 302 137 l 1,18,-1
 448 137 l 1,19,-1
 437 86 l 1,20,-1
 291 86 l 1,21,-1
 273 0 l 1,22,-1
 176 0 l 1,0,-1
EndSplineSet
Validated: 1
EndChar

StartChar: brokenbar
Encoding: 166 166 144
Width: 285
GlyphClass: 1
Flags: W
HStem: -161 21G<94 175> 648 20G<94 175>
VStem: 94 81<-161 149 358 668>
LayerCount: 2
Fore
SplineSet
94 358 m 1,0,-1
 94 668 l 1,1,-1
 175 668 l 1,2,-1
 175 358 l 1,3,-1
 94 358 l 1,0,-1
94 -161 m 1,4,-1
 94 149 l 1,5,-1
 175 149 l 1,6,-1
 175 -161 l 1,7,-1
 94 -161 l 1,4,-1
EndSplineSet
Validated: 1
EndChar

StartChar: section
Encoding: 167 167 145
Width: 522
GlyphClass: 1
Flags: W
HStem: -174 72<71.0934 214.606> 612 68<289.165 435.797>
VStem: 37 86<225.47 329.674> 176 87<491.438 587.11> 249 89<-70.4772 36.4153> 395 90<188.513 293.982>
LayerCount: 2
Fore
SplineSet
133 -174 m 0,0,1
 63 -174 63 -174 15.5 -142 c 128,-1,2
 -32 -110 -32 -110 -45 -55 c 1,3,-1
 41 -32 l 1,4,5
 46 -69 46 -69 74.5 -85.5 c 128,-1,6
 103 -102 103 -102 138 -102 c 0,7,8
 181 -102 181 -102 215 -80 c 128,-1,9
 249 -58 249 -58 249 -18 c 0,10,11
 249 17 249 17 220 44 c 128,-1,12
 191 71 191 71 150 102 c 0,13,14
 119 126 119 126 93.5 148 c 128,-1,15
 68 170 68 170 52.5 195.5 c 128,-1,16
 37 221 37 221 37 256 c 0,17,18
 37 305 37 305 60.5 341.5 c 128,-1,19
 84 378 84 378 123.5 401.5 c 128,-1,20
 163 425 163 425 211 435 c 1,21,22
 194 452 194 452 185 474.5 c 128,-1,23
 176 497 176 497 176 522 c 0,24,25
 176 560 176 560 197 596 c 128,-1,26
 218 632 218 632 259.5 656 c 128,-1,27
 301 680 301 680 364 680 c 0,28,29
 400 680 400 680 435.5 670 c 128,-1,30
 471 660 471 660 498 639 c 128,-1,31
 525 618 525 618 535 584 c 1,32,-1
 452 561 l 1,33,34
 448 587 448 587 422 599.5 c 128,-1,35
 396 612 396 612 365 612 c 0,36,37
 327 612 327 612 295 594 c 128,-1,38
 263 576 263 576 263 539 c 0,39,40
 263 517 263 517 278 499 c 128,-1,41
 293 481 293 481 317 463.5 c 128,-1,42
 341 446 341 446 369 422 c 0,43,44
 399 398 399 398 425.5 377 c 128,-1,45
 452 356 452 356 468.5 331.5 c 128,-1,46
 485 307 485 307 485 272 c 0,47,48
 485 221 485 221 461.5 184 c 128,-1,49
 438 147 438 147 398.5 122.5 c 128,-1,50
 359 98 359 98 311 82 c 1,51,52
 338 49 338 49 338 2 c 0,53,54
 338 -39 338 -39 315 -79.5 c 128,-1,55
 292 -120 292 -120 246.5 -147 c 128,-1,56
 201 -174 201 -174 133 -174 c 0,0,1
264 129 m 1,57,58
 329 149 329 149 362 177.5 c 128,-1,59
 395 206 395 206 395 239 c 0,60,61
 395 281 395 281 344 323 c 0,62,63
 333 333 333 333 315.5 346.5 c 128,-1,64
 298 360 298 360 282 372.5 c 128,-1,65
 266 385 266 385 258 391 c 1,66,67
 222 384 222 384 191 366.5 c 128,-1,68
 160 349 160 349 141.5 326 c 128,-1,69
 123 303 123 303 123 277 c 0,70,71
 123 260 123 260 132.5 242.5 c 128,-1,72
 142 225 142 225 164 208 c 0,73,74
 174 201 174 201 190.5 187.5 c 128,-1,75
 207 174 207 174 224 161 c 128,-1,76
 241 148 241 148 252.5 138.5 c 128,-1,77
 264 129 264 129 264 129 c 1,57,58
EndSplineSet
Validated: 1
EndChar

StartChar: dieresis
Encoding: 168 168 146
Width: 423
GlyphClass: 1
Flags: W
HStem: 590 107<143.501 219.014 354.986 430.014>
VStem: 127 108<606.501 681.014> 339 107<606.501 681.014>
LayerCount: 2
Fore
SplineSet
181 590 m 0,0,1
 159 590 159 590 143 606 c 128,-1,2
 127 622 127 622 127 644 c 256,3,4
 127 666 127 666 143 681.5 c 128,-1,5
 159 697 159 697 181 697 c 0,6,7
 204 697 204 697 219.5 681.5 c 128,-1,8
 235 666 235 666 235 644 c 256,9,10
 235 622 235 622 219.5 606 c 128,-1,11
 204 590 204 590 181 590 c 0,0,1
392 590 m 0,12,13
 370 590 370 590 354.5 606 c 128,-1,14
 339 622 339 622 339 644 c 256,15,16
 339 666 339 666 354.5 681.5 c 128,-1,17
 370 697 370 697 392 697 c 0,18,19
 415 697 415 697 430.5 681.5 c 128,-1,20
 446 666 446 666 446 644 c 256,21,22
 446 622 446 622 430.5 606 c 128,-1,23
 415 590 415 590 392 590 c 0,12,13
EndSplineSet
Validated: 1
EndChar

StartChar: copyright
Encoding: 169 169 147
Width: 810
GlyphClass: 1
Flags: W
HStem: -12 62<304.396 523.604> 150 59<356.342 481.343> 473 58<355.515 475.298> 618 62<304.396 523.604>
VStem: 68 62<224.396 443.604> 242 76<249.579 432.726> 698 62<224.396 443.604>
LayerCount: 2
Fore
SplineSet
414 -12 m 256,0,1
 342 -12 342 -12 279.5 15 c 128,-1,2
 217 42 217 42 169.5 89.5 c 128,-1,3
 122 137 122 137 95 199.5 c 128,-1,4
 68 262 68 262 68 334 c 256,5,6
 68 406 68 406 95 468.5 c 128,-1,7
 122 531 122 531 169.5 578.5 c 128,-1,8
 217 626 217 626 279.5 653 c 128,-1,9
 342 680 342 680 414 680 c 256,10,11
 486 680 486 680 548.5 653 c 128,-1,12
 611 626 611 626 658.5 578.5 c 128,-1,13
 706 531 706 531 733 468.5 c 128,-1,14
 760 406 760 406 760 334 c 256,15,16
 760 262 760 262 733 199.5 c 128,-1,17
 706 137 706 137 658.5 89.5 c 128,-1,18
 611 42 611 42 548.5 15 c 128,-1,19
 486 -12 486 -12 414 -12 c 256,0,1
414 50 m 256,20,21
 473 50 473 50 524.5 72 c 128,-1,22
 576 94 576 94 615 133 c 128,-1,23
 654 172 654 172 676 223.5 c 128,-1,24
 698 275 698 275 698 334 c 256,25,26
 698 393 698 393 676 444.5 c 128,-1,27
 654 496 654 496 615 535 c 128,-1,28
 576 574 576 574 524.5 596 c 128,-1,29
 473 618 473 618 414 618 c 256,30,31
 355 618 355 618 303.5 596 c 128,-1,32
 252 574 252 574 213 535 c 128,-1,33
 174 496 174 496 152 444.5 c 128,-1,34
 130 393 130 393 130 334 c 256,35,36
 130 275 130 275 152 223.5 c 128,-1,37
 174 172 174 172 213 133 c 128,-1,38
 252 94 252 94 303.5 72 c 128,-1,39
 355 50 355 50 414 50 c 256,20,21
416 150 m 0,40,41
 332 150 332 150 287 201.5 c 128,-1,42
 242 253 242 253 242 342 c 256,43,44
 242 431 242 431 289.5 481 c 128,-1,45
 337 531 337 531 418 531 c 0,46,47
 472 531 472 531 508 508 c 128,-1,48
 544 485 544 485 563 449 c 1,49,-1
 496 424 l 1,50,51
 470 473 470 473 416 473 c 0,52,53
 373 473 373 473 345.5 441 c 128,-1,54
 318 409 318 409 318 342 c 256,55,56
 318 275 318 275 345.5 242 c 128,-1,57
 373 209 373 209 416 209 c 0,58,59
 441 209 441 209 463.5 219 c 128,-1,60
 486 229 486 229 499 254 c 1,61,-1
 565 230 l 1,62,63
 546 196 546 196 509 173 c 128,-1,64
 472 150 472 150 416 150 c 0,40,41
EndSplineSet
Validated: 1
EndChar

StartChar: questiondown
Encoding: 191 191 148
Width: 523
GlyphClass: 1
Flags: W
HStem: -175 70<106.486 272.191> 388 129<275.565 365.404>
VStem: -16 91<-75.2627 33.682> 253 85<239.398 316> 257 128<407.595 497.404>
LayerCount: 2
Fore
SplineSet
320 388 m 256,0,1
 293 388 293 388 275 407 c 128,-1,2
 257 426 257 426 257 452 c 0,3,4
 257 479 257 479 275 498 c 128,-1,5
 293 517 293 517 320 517 c 256,6,7
 347 517 347 517 366 498 c 128,-1,8
 385 479 385 479 385 452 c 0,9,10
 385 426 385 426 366 407 c 128,-1,11
 347 388 347 388 320 388 c 256,0,1
338 316 m 1,12,13
 337 307 337 307 334.5 296.5 c 128,-1,14
 332 286 332 286 330 277 c 0,15,16
 318 221 318 221 294 185.5 c 128,-1,17
 270 150 270 150 237.5 126.5 c 128,-1,18
 205 103 205 103 166 83 c 0,19,20
 131 65 131 65 103 40 c 128,-1,21
 75 15 75 15 75 -23 c 256,22,23
 75 -61 75 -61 105.5 -83 c 128,-1,24
 136 -105 136 -105 179 -105 c 0,25,26
 305 -105 305 -105 342 4 c 1,27,-1
 419 -20 l 1,28,29
 391 -99 391 -99 326 -137 c 128,-1,30
 261 -175 261 -175 176 -175 c 0,31,32
 133 -175 133 -175 88.5 -161 c 128,-1,33
 44 -147 44 -147 14 -115 c 128,-1,34
 -16 -83 -16 -83 -16 -29 c 0,35,36
 -16 17 -16 17 4.5 50 c 128,-1,37
 25 83 25 83 59.5 108 c 128,-1,38
 94 133 94 133 136 153 c 0,39,40
 175 172 175 172 196 191.5 c 128,-1,41
 217 211 217 211 228 233 c 128,-1,42
 239 255 239 255 246 280 c 0,43,44
 251 298 251 298 253 316 c 1,45,-1
 338 316 l 1,12,13
EndSplineSet
Validated: 1
EndChar

StartChar: germandbls
Encoding: 223 223 149
Width: 601
GlyphClass: 1
Flags: W
HStem: -13 77<237 378.441> 0 21G<12 102.248> 329 77<303 402.719> 610 70<273.724 450.481>
VStem: 452 94<132.145 286.215> 481 87<460.504 580.301>
LayerCount: 2
Fore
SplineSet
264 -13 m 0,0,1
 257 -13 257 -13 250.5 -13 c 128,-1,2
 244 -13 244 -13 237 -12 c 1,3,-1
 231 67 l 1,4,5
 255 64 255 64 278 64 c 0,6,7
 327 64 327 64 366.5 80 c 128,-1,8
 406 96 406 96 429 130 c 128,-1,9
 452 164 452 164 452 218 c 0,10,11
 452 276 452 276 413 301.5 c 128,-1,12
 374 327 374 327 301 329 c 2,13,-1
 287 329 l 1,14,-1
 303 406 l 1,15,-1
 318 406 l 2,16,17
 390 409 390 409 435.5 439.5 c 128,-1,18
 481 470 481 470 481 522 c 0,19,20
 481 563 481 563 453 586.5 c 128,-1,21
 425 610 425 610 372 610 c 0,22,23
 295 610 295 610 253.5 574 c 128,-1,24
 212 538 212 538 194 452 c 2,25,-1
 98 0 l 1,26,-1
 12 0 l 1,27,-1
 108 452 l 2,28,29
 116 488 116 488 129.5 527.5 c 128,-1,30
 143 567 143 567 170.5 601.5 c 128,-1,31
 198 636 198 636 247.5 658 c 128,-1,32
 297 680 297 680 376 680 c 0,33,34
 428 680 428 680 471.5 664.5 c 128,-1,35
 515 649 515 649 541.5 617 c 128,-1,36
 568 585 568 585 568 534 c 0,37,38
 568 498 568 498 553.5 464.5 c 128,-1,39
 539 431 539 431 510 406 c 128,-1,40
 481 381 481 381 437 372 c 1,41,42
 496 350 496 350 523 311 c 128,-1,43
 550 272 550 272 546 197 c 0,44,45
 542 123 542 123 501 76 c 128,-1,46
 460 29 460 29 397 8 c 128,-1,47
 334 -13 334 -13 264 -13 c 0,0,1
EndSplineSet
Validated: 33
EndChar

StartChar: AE
Encoding: 198 198 150
Width: 983
GlyphClass: 1
Flags: W
HStem: 0 81<547 889> 145 81<265 464> 303 80<611 860> 586 81<654 1013>
LayerCount: 2
Fore
SplineSet
-54 0 m 1,0,-1
 575 667 l 1,1,-1
 1030 667 l 1,2,-1
 1013 586 l 1,3,-1
 654 586 l 1,4,-1
 611 383 l 1,5,-1
 877 383 l 1,6,-1
 860 303 l 1,7,-1
 594 303 l 1,8,-1
 547 81 l 1,9,-1
 906 81 l 1,10,-1
 889 0 l 1,11,-1
 433 0 l 1,12,-1
 464 145 l 1,13,-1
 192 145 l 1,14,-1
 58 0 l 1,15,-1
 -54 0 l 1,0,-1
265 226 m 1,16,-1
 481 226 l 1,17,-1
 546 529 l 1,18,-1
 265 226 l 1,16,-1
EndSplineSet
Validated: 1
EndChar

StartChar: florin
Encoding: 279 402 151
Width: 326
GlyphClass: 1
Flags: W
HStem: -165 75<-59.4933 -24.2191> 428 68<67 136 235 323> 635 71<279.111 366>
LayerCount: 2
Fore
SplineSet
-8 -173 m 0,0,1
 -23 -173 -23 -173 -39 -171 c 128,-1,2
 -55 -169 -55 -169 -74 -165 c 1,3,-1
 -58 -90 l 1,4,5
 -48 -92 -48 -92 -39.5 -93.5 c 128,-1,6
 -31 -95 -31 -95 -24 -95 c 0,7,8
 2 -95 2 -95 17 -78.5 c 128,-1,9
 32 -62 32 -62 40 -24 c 2,10,-1
 136 428 l 1,11,-1
 52 428 l 1,12,-1
 67 496 l 1,13,-1
 151 496 l 1,14,-1
 163 555 l 2,15,16
 176 616 176 616 192.5 648.5 c 128,-1,17
 209 681 209 681 241.5 693.5 c 128,-1,18
 274 706 274 706 333 706 c 2,19,-1
 382 706 l 1,20,-1
 366 635 l 1,21,-1
 326 635 l 2,22,23
 298 635 298 635 278.5 621.5 c 128,-1,24
 259 608 259 608 251 570 c 2,25,-1
 235 496 l 1,26,-1
 337 496 l 1,27,-1
 323 428 l 1,28,-1
 222 428 l 1,29,-1
 123 -38 l 2,30,31
 109 -107 109 -107 79.5 -140 c 128,-1,32
 50 -173 50 -173 -8 -173 c 0,0,1
EndSplineSet
Validated: 1
EndChar

StartChar: integral
Encoding: 280 8747 152
Width: 302
GlyphClass: 1
Flags: W
HStem: -173 112<-5.18579 53.076> 569 112<233.439 292.186>
VStem: -32 99<-126.225 -76.9855> 101 84<-99.4657 604.323> 219 100<584.985 634.225>
LayerCount: 2
Fore
SplineSet
53 -173 m 0,0,1
 20 -173 20 -173 -6 -159.5 c 128,-1,2
 -32 -146 -32 -146 -32 -111 c 0,3,4
 -32 -91 -32 -91 -17.5 -76 c 128,-1,5
 -3 -61 -3 -61 18 -61 c 0,6,7
 40 -61 40 -61 53.5 -76.5 c 128,-1,8
 67 -92 67 -92 67 -112 c 0,9,10
 67 -116 67 -116 67 -119.5 c 128,-1,11
 67 -123 67 -123 65 -127 c 1,12,13
 65 -127 65 -127 70.5 -126 c 128,-1,14
 76 -125 76 -125 83.5 -117 c 128,-1,15
 91 -109 91 -109 96.5 -89 c 128,-1,16
 102 -69 102 -69 102 -31 c 0,17,18
 102 93 102 93 101.5 216.5 c 128,-1,19
 101 340 101 340 101 464 c 0,20,21
 101 533 101 533 113 576 c 128,-1,22
 125 619 125 619 145 642 c 128,-1,23
 165 665 165 665 188.5 673 c 128,-1,24
 212 681 212 681 234 681 c 0,25,26
 267 681 267 681 293 667.5 c 128,-1,27
 319 654 319 654 319 619 c 0,28,29
 319 598 319 598 304.5 583.5 c 128,-1,30
 290 569 290 569 269 569 c 0,31,32
 247 569 247 569 233 584.5 c 128,-1,33
 219 600 219 600 219 619 c 0,34,35
 219 628 219 628 222 635 c 1,36,37
 222 635 222 635 216.5 634 c 128,-1,38
 211 633 211 633 203.5 625 c 128,-1,39
 196 617 196 617 190.5 596.5 c 128,-1,40
 185 576 185 576 185 538 c 0,41,42
 185 414 185 414 185.5 291 c 128,-1,43
 186 168 186 168 186 44 c 0,44,45
 186 -26 186 -26 174 -69 c 128,-1,46
 162 -112 162 -112 142 -134.5 c 128,-1,47
 122 -157 122 -157 99 -165 c 128,-1,48
 76 -173 76 -173 53 -173 c 0,0,1
EndSplineSet
Validated: 1
EndChar

StartChar: approxequal
Encoding: 281 8776 153
Width: 601
GlyphClass: 1
Flags: W
HStem: 97 73<318.164 442.769> 151 74<147.517 276.562> 283 73<320.109 438.109> 337 74<147.433 277.012>
LayerCount: 2
Fore
SplineSet
394 283 m 0,0,1
 358 283 358 283 323.5 296.5 c 128,-1,2
 289 310 289 310 256.5 323.5 c 128,-1,3
 224 337 224 337 194 337 c 0,4,5
 169 337 169 337 152 324.5 c 128,-1,6
 135 312 135 312 130 287 c 1,7,-1
 55 309 l 1,8,9
 67 355 67 355 103 383 c 128,-1,10
 139 411 139 411 194 411 c 0,11,12
 236 411 236 411 271.5 397.5 c 128,-1,13
 307 384 307 384 337.5 370 c 128,-1,14
 368 356 368 356 394 356 c 0,15,16
 417 356 417 356 434 369 c 128,-1,17
 451 382 451 382 456 407 c 1,18,-1
 530 385 l 1,19,20
 519 339 519 339 483 311 c 128,-1,21
 447 283 447 283 394 283 c 0,0,1
394 97 m 0,22,23
 358 97 358 97 323.5 110.5 c 128,-1,24
 289 124 289 124 256.5 137.5 c 128,-1,25
 224 151 224 151 194 151 c 0,26,27
 169 151 169 151 152 138.5 c 128,-1,28
 135 126 135 126 130 101 c 1,29,-1
 55 123 l 1,30,31
 66 169 66 169 102 197 c 128,-1,32
 138 225 138 225 192 225 c 0,33,34
 234 225 234 225 269.5 211.5 c 128,-1,35
 305 198 305 198 336 184 c 128,-1,36
 367 170 367 170 393 170 c 0,37,38
 416 170 416 170 433.5 183 c 128,-1,39
 451 196 451 196 456 221 c 1,40,-1
 530 199 l 1,41,42
 519 153 519 153 483 125 c 128,-1,43
 447 97 447 97 394 97 c 0,22,23
EndSplineSet
Validated: 1
EndChar

StartChar: notequal
Encoding: 282 8800 154
Width: 654
GlyphClass: 1
Flags: W
HStem: 0 21G<95 209.05> 121 79<71 180 335 567> 307 80<71 310 466 567> 476 20G<428.872 542>
LayerCount: 2
Fore
SplineSet
95 0 m 1,0,-1
 180 121 l 1,1,-1
 71 121 l 1,2,-1
 71 200 l 1,3,-1
 236 200 l 1,4,-1
 310 307 l 1,5,-1
 71 307 l 1,6,-1
 71 387 l 1,7,-1
 366 387 l 1,8,-1
 443 496 l 1,9,-1
 542 496 l 1,10,-1
 466 387 l 1,11,-1
 567 387 l 1,12,-1
 567 307 l 1,13,-1
 410 307 l 1,14,-1
 335 200 l 1,15,-1
 567 200 l 1,16,-1
 567 121 l 1,17,-1
 280 121 l 1,18,-1
 195 0 l 1,19,-1
 95 0 l 1,0,-1
EndSplineSet
Validated: 1
EndChar

StartChar: lessequal
Encoding: 283 8804 155
Width: 647
GlyphClass: 1
Flags: W
HStem: 0 80<61 534> 485 20G<477.69 534>
LayerCount: 2
Fore
SplineSet
534 100 m 1,0,-1
 61 267 l 1,1,-1
 61 337 l 1,2,-1
 534 505 l 1,3,-1
 534 414 l 1,4,-1
 166 302 l 1,5,-1
 534 190 l 1,6,-1
 534 100 l 1,0,-1
61 0 m 1,7,-1
 61 80 l 1,8,-1
 534 80 l 1,9,-1
 534 0 l 1,10,-1
 61 0 l 1,7,-1
EndSplineSet
Validated: 1
EndChar

StartChar: greaterequal
Encoding: 284 8805 156
Width: 682
GlyphClass: 1
Flags: W
HStem: 0 80<96 569> 485 20G<96 152.31>
LayerCount: 2
Fore
SplineSet
96 100 m 1,0,-1
 96 190 l 1,1,-1
 464 302 l 1,2,-1
 96 414 l 1,3,-1
 96 505 l 1,4,-1
 569 337 l 1,5,-1
 569 267 l 1,6,-1
 96 100 l 1,0,-1
96 0 m 1,7,-1
 96 80 l 1,8,-1
 569 80 l 1,9,-1
 569 0 l 1,10,-1
 96 0 l 1,7,-1
EndSplineSet
Validated: 1
EndChar

StartChar: lozenge
Encoding: 285 9674 157
Width: 557
GlyphClass: 1
Flags: W
LayerCount: 2
Fore
SplineSet
284 -73 m 1,0,-1
 56 315 l 1,1,-1
 284 703 l 1,2,-1
 511 315 l 1,3,-1
 284 -73 l 1,0,-1
284 76 m 1,4,-1
 424 315 l 1,5,-1
 284 554 l 1,6,-1
 143 315 l 1,7,-1
 284 76 l 1,4,-1
EndSplineSet
Validated: 1
EndChar

StartChar: summation
Encoding: 286 8721 158
Width: 759
GlyphClass: 1
Flags: W
HStem: -161 81<222 602> 587 81<222 602>
LayerCount: 2
Fore
SplineSet
121 -161 m 1,0,-1
 121 -80 l 1,1,-1
 367 254 l 1,2,-1
 121 587 l 1,3,-1
 121 668 l 1,4,-1
 602 668 l 1,5,-1
 602 587 l 1,6,-1
 222 587 l 1,7,-1
 467 254 l 1,8,-1
 222 -80 l 1,9,-1
 602 -80 l 1,10,-1
 602 -161 l 1,11,-1
 121 -161 l 1,0,-1
EndSplineSet
Validated: 1
EndChar

StartChar: minus
Encoding: 287 8722 159
Width: 615
GlyphClass: 1
Flags: W
HStem: 209 79<40 536>
LayerCount: 2
Fore
SplineSet
40 209 m 1,0,-1
 40 288 l 1,1,-1
 536 288 l 1,2,-1
 536 209 l 1,3,-1
 40 209 l 1,0,-1
EndSplineSet
Validated: 1
EndChar

StartChar: uni2215
Encoding: 288 8725 160
Width: 440
GlyphClass: 1
Flags: W
HStem: 0 21G<-49 53.012> 648 20G<404.988 507>
LayerCount: 2
Fore
SplineSet
-49 0 m 1,0,-1
 419 668 l 1,1,-1
 507 668 l 1,2,-1
 39 0 l 1,3,-1
 -49 0 l 1,0,-1
EndSplineSet
Validated: 1
EndChar

StartChar: uni2219
Encoding: 289 8729 161
Width: 233
GlyphClass: 1
Flags: W
HStem: 191 129<63.5957 156.301>
VStem: 44 129<211.626 300.404>
LayerCount: 2
Fore
SplineSet
109 191 m 0,0,1
 79 191 79 191 61.5 211 c 128,-1,2
 44 231 44 231 44 255 c 0,3,4
 44 282 44 282 63 301 c 128,-1,5
 82 320 82 320 109 320 c 0,6,7
 135 320 135 320 154 301 c 128,-1,8
 173 282 173 282 173 256 c 256,9,10
 173 230 173 230 154 210.5 c 128,-1,11
 135 191 135 191 109 191 c 0,0,1
EndSplineSet
Validated: 1
EndChar

StartChar: radical
Encoding: 290 8730 162
Width: 509
GlyphClass: 1
Flags: W
HStem: -161 21G<255.157 365.639> 145 80<37 143> 649 20G<421.516 513>
LayerCount: 2
Fore
SplineSet
263 -161 m 1,0,-1
 143 145 l 1,1,-1
 37 145 l 1,2,-1
 37 225 l 1,3,-1
 199 225 l 1,4,-1
 302 -37 l 1,5,-1
 425 669 l 1,6,-1
 513 669 l 1,7,-1
 362 -161 l 1,8,-1
 263 -161 l 1,0,-1
EndSplineSet
Validated: 1
EndChar

StartChar: infinity
Encoding: 291 8734 163
Width: 776
GlyphClass: 1
Flags: W
HStem: 104 76<152.962 277.738 484.322 608.038> 330 76<152.478 279.527 482.79 608.522>
VStem: 47 81<205.117 307.142> 633 81<205.117 307.142>
LayerCount: 2
Fore
SplineSet
207 104 m 0,0,1
 136 104 136 104 91.5 146.5 c 128,-1,2
 47 189 47 189 47 256 c 0,3,4
 47 321 47 321 93 363.5 c 128,-1,5
 139 406 139 406 213 406 c 0,6,7
 267 406 267 406 308 379 c 128,-1,8
 349 352 349 352 381 317 c 1,9,10
 413 352 413 352 453.5 379 c 128,-1,11
 494 406 494 406 548 406 c 0,12,13
 622 406 622 406 668 363.5 c 128,-1,14
 714 321 714 321 714 256 c 0,15,16
 714 189 714 189 669.5 146.5 c 128,-1,17
 625 104 625 104 554 104 c 0,18,19
 499 104 499 104 457 132.5 c 128,-1,20
 415 161 415 161 381 198 c 1,21,22
 347 161 347 161 305 132.5 c 128,-1,23
 263 104 263 104 207 104 c 0,0,1
211 180 m 0,24,25
 243 180 243 180 271 197 c 128,-1,26
 299 214 299 214 333 256 c 1,27,28
 306 288 306 288 278.5 309 c 128,-1,29
 251 330 251 330 214 330 c 256,30,31
 177 330 177 330 152.5 310 c 128,-1,32
 128 290 128 290 128 256 c 0,33,34
 128 225 128 225 151.5 202.5 c 128,-1,35
 175 180 175 180 211 180 c 0,24,25
550 180 m 0,36,37
 586 180 586 180 609.5 202.5 c 128,-1,38
 633 225 633 225 633 256 c 0,39,40
 633 290 633 290 608.5 310 c 128,-1,41
 584 330 584 330 547 330 c 0,42,43
 511 330 511 330 483.5 309 c 128,-1,44
 456 288 456 288 429 256 c 1,45,46
 464 214 464 214 491 197 c 128,-1,47
 518 180 518 180 550 180 c 0,36,37
EndSplineSet
Validated: 1
EndChar

StartChar: uni03A9
Encoding: 292 937 164
Width: 769
GlyphClass: 1
Flags: W
HStem: 0 81<73 224 509 660> 606 74<272.013 461.497>
VStem: 73 73<290.038 480.497> 224 85<81 142.595> 424 85<81 142.595> 587 73<290.038 480.497>
LayerCount: 2
Fore
SplineSet
73 0 m 1,0,-1
 73 81 l 1,1,-1
 224 81 l 1,2,-1
 224 130 l 1,3,4
 157 168 157 168 115 235.5 c 128,-1,5
 73 303 73 303 73 385 c 0,6,7
 73 446 73 446 95.5 499.5 c 128,-1,8
 118 553 118 553 158.5 593.5 c 128,-1,9
 199 634 199 634 252 657 c 128,-1,10
 305 680 305 680 366 680 c 256,11,12
 427 680 427 680 480.5 657 c 128,-1,13
 534 634 534 634 574 593.5 c 128,-1,14
 614 553 614 553 637 499.5 c 128,-1,15
 660 446 660 446 660 385 c 0,16,17
 660 303 660 303 618.5 235.5 c 128,-1,18
 577 168 577 168 509 130 c 1,19,-1
 509 81 l 1,20,-1
 660 81 l 1,21,-1
 660 0 l 1,22,-1
 424 0 l 1,23,-1
 424 173 l 1,24,25
 471 186 471 186 508 216.5 c 128,-1,26
 545 247 545 247 566 291 c 128,-1,27
 587 335 587 335 587 385 c 0,28,29
 587 446 587 446 557 496 c 128,-1,30
 527 546 527 546 477 576 c 128,-1,31
 427 606 427 606 366 606 c 0,32,33
 306 606 306 606 256 576 c 128,-1,34
 206 546 206 546 176 496 c 128,-1,35
 146 446 146 446 146 385 c 0,36,37
 146 335 146 335 167 291 c 128,-1,38
 188 247 188 247 225 216.5 c 128,-1,39
 262 186 262 186 309 173 c 1,40,-1
 309 0 l 1,41,-1
 73 0 l 1,0,-1
EndSplineSet
Validated: 1
EndChar

StartChar: estimated
Encoding: 293 8494 165
Width: 624
GlyphClass: 1
Flags: W
HStem: -12 32<222.41 388.612> 248 31<154 458> 472 32<221.784 390.042>
VStem: 48 106<142.671 248 279 350.826> 458 106<279 351.003>
LayerCount: 2
Fore
SplineSet
306 -12 m 0,0,1
 260 -12 260 -12 214.5 5 c 128,-1,2
 169 22 169 22 131.5 55.5 c 128,-1,3
 94 89 94 89 71 139.5 c 128,-1,4
 48 190 48 190 48 256 c 0,5,6
 48 300 48 300 66.5 344 c 128,-1,7
 85 388 85 388 119 424 c 128,-1,8
 153 460 153 460 200.5 482 c 128,-1,9
 248 504 248 504 306 504 c 0,10,11
 377 504 377 504 435.5 469.5 c 128,-1,12
 494 435 494 435 529 377 c 128,-1,13
 564 319 564 319 564 248 c 1,14,-1
 154 248 l 1,15,-1
 154 78 l 1,16,17
 184 51 184 51 223 35.5 c 128,-1,18
 262 20 262 20 306 20 c 0,19,20
 357 20 357 20 401 41 c 128,-1,21
 445 62 445 62 476 97 c 1,22,-1
 509 87 l 1,23,24
 474 42 474 42 421 15 c 128,-1,25
 368 -12 368 -12 306 -12 c 0,0,1
154 279 m 1,26,-1
 458 279 l 1,27,-1
 458 413 l 1,28,29
 428 441 428 441 389 456.5 c 128,-1,30
 350 472 350 472 306 472 c 256,31,32
 262 472 262 472 223 456.5 c 128,-1,33
 184 441 184 441 154 413 c 1,34,-1
 154 279 l 1,26,-1
EndSplineSet
Validated: 1
EndChar

StartChar: partialdiff
Encoding: 294 8706 166
Width: 591
GlyphClass: 1
Flags: W
HStem: -12 73<213.65 360.572> 430 74<213.65 360.119> 598 82<138 307.051>
VStem: 49 89<142.409 348.851> 435 91<141.651 349.711>
LayerCount: 2
Fore
SplineSet
287 -12 m 0,0,1
 244 -12 244 -12 201.5 3 c 128,-1,2
 159 18 159 18 124.5 49.5 c 128,-1,3
 90 81 90 81 69.5 130 c 128,-1,4
 49 179 49 179 49 246 c 0,5,6
 49 314 49 314 69.5 362.5 c 128,-1,7
 90 411 90 411 124.5 442.5 c 128,-1,8
 159 474 159 474 201.5 489 c 128,-1,9
 244 504 244 504 287 504 c 0,10,11
 318 504 318 504 356.5 492 c 128,-1,12
 395 480 395 480 419 450 c 1,13,14
 399 514 399 514 358 546.5 c 128,-1,15
 317 579 317 579 261 589.5 c 128,-1,16
 205 600 205 600 138 598 c 1,17,-1
 138 680 l 1,18,19
 168 680 168 680 208 678 c 128,-1,20
 248 676 248 676 292 665.5 c 128,-1,21
 336 655 336 655 377.5 630.5 c 128,-1,22
 419 606 419 606 452.5 562 c 128,-1,23
 486 518 486 518 506 448.5 c 128,-1,24
 526 379 526 379 526 277 c 0,25,26
 526 200 526 200 502.5 134 c 128,-1,27
 479 68 479 68 426.5 28 c 128,-1,28
 374 -12 374 -12 287 -12 c 0,0,1
287 61 m 256,29,30
 323 61 323 61 357 80.5 c 128,-1,31
 391 100 391 100 413 141 c 128,-1,32
 435 182 435 182 435 246 c 256,33,34
 435 310 435 310 413 350.5 c 128,-1,35
 391 391 391 391 357 410.5 c 128,-1,36
 323 430 323 430 287 430 c 256,37,38
 251 430 251 430 217 410.5 c 128,-1,39
 183 391 183 391 160.5 350.5 c 128,-1,40
 138 310 138 310 138 246 c 256,41,42
 138 182 138 182 160.5 141 c 128,-1,43
 183 100 183 100 217 80.5 c 128,-1,44
 251 61 251 61 287 61 c 256,29,30
EndSplineSet
Validated: 33
EndChar

StartChar: uni0394
Encoding: 295 916 167
Width: 755
GlyphClass: 1
Flags: W
HStem: 0 78<114 516> 660 20G<305.412 324.618>
LayerCount: 2
Fore
SplineSet
-11 0 m 1,0,-1
 315 680 l 1,1,-1
 642 0 l 1,2,-1
 -11 0 l 1,0,-1
114 78 m 1,3,-1
 516 78 l 1,4,-1
 315 498 l 1,5,-1
 114 78 l 1,3,-1
EndSplineSet
Validated: 1
EndChar

StartChar: product
Encoding: 296 8719 168
Width: 757
GlyphClass: 1
Flags: W
HStem: -161 21G<131 212 528 610> 587 81<212 528>
VStem: 131 81<-161 587> 528 82<-161 587>
LayerCount: 2
Fore
SplineSet
131 -161 m 1,0,-1
 131 668 l 1,1,-1
 610 668 l 1,2,-1
 610 -161 l 1,3,-1
 528 -161 l 1,4,-1
 528 587 l 1,5,-1
 212 587 l 1,6,-1
 212 -161 l 1,7,-1
 131 -161 l 1,0,-1
EndSplineSet
Validated: 1
EndChar

StartChar: pi
Encoding: 297 960 169
Width: 586
GlyphClass: 1
Flags: W
HStem: 0 75<435.285 486> 416 80<61 127 210 404 490 574>
VStem: 336 90<51 194.633>
LayerCount: 2
Fore
SplineSet
39 0 m 1,0,-1
 127 416 l 1,1,-1
 44 416 l 1,2,-1
 61 496 l 1,3,-1
 592 496 l 1,4,-1
 574 416 l 1,5,-1
 490 416 l 1,6,-1
 432 140 l 2,7,8
 430 128 430 128 428 118.5 c 128,-1,9
 426 109 426 109 426 101 c 0,10,11
 426 88 426 88 435 81.5 c 128,-1,12
 444 75 444 75 470 75 c 2,13,-1
 502 75 l 1,14,-1
 486 0 l 1,15,-1
 435 0 l 2,16,17
 380 0 380 0 358 16.5 c 128,-1,18
 336 33 336 33 336 69 c 0,19,20
 336 81 336 81 338 95 c 128,-1,21
 340 109 340 109 343 125 c 2,22,-1
 404 416 l 1,23,-1
 210 416 l 1,24,-1
 122 0 l 1,25,-1
 39 0 l 1,0,-1
EndSplineSet
Validated: 1
EndChar

StartChar: hungarumlaut
Encoding: 298 733 170
Width: 390
GlyphClass: 1
Flags: W
HStem: 572 136<247 266>
VStem: 101 329
LayerCount: 2
Fore
SplineSet
101 572 m 1,0,1
 101 572 101 572 111.5 583 c 128,-1,2
 122 594 122 594 138 611 c 128,-1,3
 154 628 154 628 171 646.5 c 128,-1,4
 188 665 188 665 202 679.5 c 128,-1,5
 216 694 216 694 222 699 c 0,6,7
 234 708 234 708 248 708 c 0,8,9
 266 708 266 708 276 696 c 0,10,11
 285 686 285 686 285 671 c 0,12,13
 285 654 285 654 273 642 c 0,14,15
 266 635 266 635 250 623.5 c 128,-1,16
 234 612 234 612 216.5 600 c 128,-1,17
 199 588 199 588 187 580 c 128,-1,18
 175 572 175 572 175 572 c 1,19,-1
 101 572 l 1,0,1
247 572 m 1,20,21
 247 572 247 572 262.5 589 c 128,-1,22
 278 606 278 606 299.5 629 c 128,-1,23
 321 652 321 652 340.5 672.5 c 128,-1,24
 360 693 360 693 368 699 c 0,25,26
 380 708 380 708 394 708 c 0,27,28
 411 708 411 708 421 696 c 0,29,30
 430 684 430 684 430 670 c 0,31,32
 430 653 430 653 418 642 c 0,33,34
 411 635 411 635 395 623.5 c 128,-1,35
 379 612 379 612 361.5 600 c 128,-1,36
 344 588 344 588 332 580 c 128,-1,37
 320 572 320 572 320 572 c 1,38,-1
 247 572 l 1,20,21
EndSplineSet
Validated: 1
EndChar

StartChar: tilde
Encoding: 299 732 171
Width: 416
GlyphClass: 1
Flags: W
HStem: 575 63<287.547 387.277> 617 63<164.678 278.952>
LayerCount: 2
Fore
SplineSet
344 575 m 0,0,1
 315 575 315 575 296 585.5 c 128,-1,2
 277 596 277 596 259 606.5 c 128,-1,3
 241 617 241 617 215 617 c 0,4,5
 171 617 171 617 153 577 c 1,6,-1
 88 577 l 1,7,8
 108 630 108 630 142 655 c 128,-1,9
 176 680 176 680 216 680 c 0,10,11
 249 680 249 680 269.5 669.5 c 128,-1,12
 290 659 290 659 307 648.5 c 128,-1,13
 324 638 324 638 344 638 c 0,14,15
 363 638 363 638 374 647.5 c 128,-1,16
 385 657 385 657 395 667 c 0,17,18
 408 680 408 680 422 680 c 0,19,20
 435 680 435 680 443.5 671 c 128,-1,21
 452 662 452 662 452 649 c 0,22,23
 452 640 452 640 447 632 c 0,24,25
 434 612 434 612 409.5 593.5 c 128,-1,26
 385 575 385 575 344 575 c 0,0,1
EndSplineSet
Validated: 1
EndChar

StartChar: endash
Encoding: 300 8211 172
Width: 493
GlyphClass: 1
Flags: W
HStem: 208 79<38 436>
LayerCount: 2
Fore
SplineSet
38 208 m 1,0,-1
 38 287 l 1,1,-1
 436 287 l 1,2,-1
 436 208 l 1,3,-1
 38 208 l 1,0,-1
EndSplineSet
Validated: 1
EndChar

StartChar: emdash
Encoding: 301 8212 173
Width: 813
GlyphClass: 1
Flags: W
HStem: 208 79<38 756>
LayerCount: 2
Fore
SplineSet
38 208 m 1,0,-1
 38 287 l 1,1,-1
 756 287 l 1,2,-1
 756 208 l 1,3,-1
 38 208 l 1,0,-1
EndSplineSet
Validated: 1
EndChar

StartChar: trademark
Encoding: 302 8482 174
Width: 924
GlyphClass: 1
Flags: W
HStem: 608 60<131 249 316 434>
VStem: 249 67<292 608> 471 67<292 571> 806 67<292 571>
LayerCount: 2
Fore
SplineSet
471 292 m 1,0,-1
 471 668 l 1,1,-1
 579 668 l 1,2,-1
 672 384 l 1,3,-1
 765 668 l 1,4,-1
 873 668 l 1,5,-1
 873 292 l 1,6,-1
 806 292 l 1,7,-1
 806 571 l 1,8,-1
 708 292 l 1,9,-1
 636 292 l 1,10,-1
 538 571 l 1,11,-1
 538 292 l 1,12,-1
 471 292 l 1,0,-1
249 292 m 1,13,-1
 249 608 l 1,14,-1
 131 608 l 1,15,-1
 131 668 l 1,16,-1
 434 668 l 1,17,-1
 434 608 l 1,18,-1
 316 608 l 1,19,-1
 316 292 l 1,20,-1
 249 292 l 1,13,-1
EndSplineSet
Validated: 1
EndChar

StartChar: Euro
Encoding: 303 8364 175
Width: 693
GlyphClass: 1
Flags: W
HStem: -12 79<290.943 471.594> 240 51<41 115.787 206 330> 376 51<70 127 236 433> 499 21G<593 659.621> 600 79<362.241 540.632>
VStem: 114 92<160.006 240 291 374.656>
LayerCount: 2
Fore
SplineSet
362 -12 m 256,0,1
 277 -12 277 -12 223.5 23.5 c 128,-1,2
 170 59 170 59 144 117 c 128,-1,3
 118 175 118 175 114 240 c 1,4,-1
 2 240 l 1,5,-1
 41 291 l 1,6,-1
 114 291 l 1,7,8
 117 333 117 333 127 376 c 1,9,-1
 31 376 l 1,10,-1
 70 427 l 1,11,-1
 142 427 l 1,12,13
 168 502 168 502 214 559 c 128,-1,14
 260 616 260 616 323.5 647.5 c 128,-1,15
 387 679 387 679 464 679 c 0,16,17
 547 679 547 679 605.5 642 c 128,-1,18
 664 605 664 605 686 528 c 1,19,-1
 601 499 l 1,20,21
 585 549 585 549 546.5 574.5 c 128,-1,22
 508 600 508 600 454 600 c 0,23,24
 382 600 382 600 325 554 c 128,-1,25
 268 508 268 508 236 427 c 1,26,-1
 472 427 l 1,27,-1
 433 376 l 1,28,-1
 219 376 l 1,29,30
 213 353 213 353 210 333.5 c 128,-1,31
 207 314 207 314 205 291 c 1,32,-1
 368 291 l 1,33,-1
 330 240 l 1,34,-1
 206 240 l 1,35,36
 214 162 214 162 258.5 114.5 c 128,-1,37
 303 67 303 67 373 67 c 0,38,39
 435 67 435 67 477.5 91.5 c 128,-1,40
 520 116 520 116 554 169 c 1,41,-1
 629 139 l 1,42,43
 584 64 584 64 515.5 26 c 128,-1,44
 447 -12 447 -12 362 -12 c 256,0,1
EndSplineSet
Validated: 1
EndChar

StartChar: uni2113
Encoding: 304 8467 176
Width: 447
GlyphClass: 1
Flags: W
HStem: -12 73<177.242 291.234> 609 70<279.792 357.51>
VStem: 365 80<484.747 602.401>
LayerCount: 2
Fore
SplineSet
197 -12 m 0,0,1
 138 -12 138 -12 109.5 12 c 128,-1,2
 81 36 81 36 81 88 c 0,3,4
 80 107 80 107 84 128 c 128,-1,5
 88 149 88 149 96 188 c 1,6,-1
 18 138 l 1,7,-1
 37 227 l 1,8,-1
 115 278 l 1,9,-1
 164 506 l 2,10,11
 182 589 182 589 217 634 c 128,-1,12
 252 679 252 679 329 679 c 0,13,14
 379 679 379 679 412 651.5 c 128,-1,15
 445 624 445 624 445 567 c 0,16,17
 445 497 445 497 409.5 441 c 128,-1,18
 374 385 374 385 317.5 338.5 c 128,-1,19
 261 292 261 292 196 251 c 1,20,-1
 175 151 l 2,21,22
 165 105 165 105 176.5 83 c 128,-1,23
 188 61 188 61 223 61 c 0,24,25
 249 61 249 61 273 72.5 c 128,-1,26
 297 84 297 84 319 100 c 1,27,-1
 343 42 l 1,28,29
 317 20 317 20 278 4 c 128,-1,30
 239 -12 239 -12 197 -12 c 0,0,1
216 343 m 1,31,32
 258 369 258 369 291.5 407.5 c 128,-1,33
 325 446 325 446 345 488.5 c 128,-1,34
 365 531 365 531 365 567 c 0,35,36
 365 590 365 590 354 599.5 c 128,-1,37
 343 609 343 609 324 609 c 0,38,39
 296 609 296 609 280 589.5 c 128,-1,40
 264 570 264 570 253 517 c 2,41,-1
 216 343 l 1,31,32
EndSplineSet
Validated: 33
EndChar

StartChar: Lslash
Encoding: 305 321 177
Width: 568
GlyphClass: 1
Flags: W
HStem: 0 82<156 498> 484 20G<387.778 420.89> 648 20G<180.745 281>
LayerCount: 2
Fore
SplineSet
43 0 m 1,0,-1
 100 266 l 1,1,-1
 1 214 l 1,2,-1
 16 287 l 1,3,-1
 115 339 l 1,4,-1
 185 668 l 1,5,-1
 281 668 l 1,6,-1
 224 396 l 1,7,-1
 425 504 l 1,8,-1
 410 431 l 1,9,-1
 208 324 l 1,10,-1
 156 82 l 1,11,-1
 515 82 l 1,12,-1
 498 0 l 1,13,-1
 43 0 l 1,0,-1
EndSplineSet
Validated: 1
EndChar

StartChar: lslash
Encoding: 306 322 178
Width: 269
GlyphClass: 1
Flags: W
HStem: 0 75<138.285 194> 648 20G<156.767 247>
VStem: 38 91<51 191.539>
LayerCount: 2
Fore
SplineSet
138 0 m 2,0,1
 80 0 80 0 59 17 c 128,-1,2
 38 34 38 34 38 68 c 0,3,4
 38 80 38 80 40 94.5 c 128,-1,5
 42 109 42 109 45 125 c 2,6,-1
 77 272 l 1,7,-1
 1 232 l 1,8,-1
 16 303 l 1,9,-1
 92 342 l 1,10,-1
 161 668 l 1,11,-1
 247 668 l 1,12,-1
 188 393 l 1,13,-1
 289 447 l 1,14,-1
 274 376 l 1,15,-1
 173 323 l 1,16,-1
 134 140 l 2,17,18
 132 130 132 130 130.5 121 c 128,-1,19
 129 112 129 112 129 105 c 0,20,21
 129 89 129 89 138 82 c 128,-1,22
 147 75 147 75 172 75 c 2,23,-1
 210 75 l 1,24,-1
 194 0 l 1,25,-1
 138 0 l 2,0,1
EndSplineSet
Validated: 1
EndChar

StartChar: oslash
Encoding: 248 248 179
Width: 544
GlyphClass: 1
Flags: W
HStem: -12 74<161.953 314.072> 430 74<206.823 367.493>
VStem: 25 89<149.953 315.444> 411 90<181.335 347.379>
LayerCount: 2
Fore
SplineSet
229 -12 m 0,0,1
 180 -12 180 -12 143 2.5 c 128,-1,2
 106 17 106 17 80 43 c 1,3,-1
 23 -11 l 1,4,-1
 -12 26 l 1,5,-1
 50 84 l 1,6,7
 25 131 25 131 25 198 c 0,8,9
 25 284 25 284 60 353 c 128,-1,10
 95 422 95 422 157.5 463 c 128,-1,11
 220 504 220 504 301 504 c 0,12,13
 340 504 340 504 376.5 491 c 128,-1,14
 413 478 413 478 441 451 c 1,15,-1
 502 509 l 1,16,-1
 537 472 l 1,17,-1
 473 411 l 1,18,19
 486 388 486 388 493.5 360 c 128,-1,20
 501 332 501 332 501 297 c 0,21,22
 501 235 501 235 481 179.5 c 128,-1,23
 461 124 461 124 424.5 81 c 128,-1,24
 388 38 388 38 338 13 c 128,-1,25
 288 -12 288 -12 229 -12 c 0,0,1
119 149 m 1,26,-1
 382 395 l 1,27,28
 365 414 365 414 341 422 c 128,-1,29
 317 430 317 430 288 430 c 0,30,31
 229 430 229 430 190 395.5 c 128,-1,32
 151 361 151 361 132.5 307.5 c 128,-1,33
 114 254 114 254 114 196 c 0,34,35
 114 183 114 183 115 171.5 c 128,-1,36
 116 160 116 160 119 149 c 1,26,-1
236 62 m 0,37,38
 293 62 293 62 332 97 c 128,-1,39
 371 132 371 132 391 186.5 c 128,-1,40
 411 241 411 241 411 300 c 0,41,42
 411 327 411 327 405 348 c 1,43,-1
 143 102 l 1,44,45
 174 62 174 62 236 62 c 0,37,38
EndSplineSet
Validated: 1
EndChar

StartChar: Oslash
Encoding: 216 216 180
Width: 721
GlyphClass: 1
Flags: W
HStem: -12 79<236.191 423.951> 600 79<311.522 502.201>
VStem: 51 95<182.252 396.805> 592 95<263.598 495.6>
LayerCount: 2
Fore
SplineSet
309 -12 m 0,0,1
 247 -12 247 -12 198 9.5 c 128,-1,2
 149 31 149 31 116 70 c 1,3,-1
 37 -4 l 1,4,-1
 2 32 l 1,5,-1
 87 112 l 1,6,7
 51 178 51 178 51 269 c 0,8,9
 51 285 51 285 52.5 301 c 128,-1,10
 54 317 54 317 56 333 c 0,11,12
 71 434 71 434 119.5 512 c 128,-1,13
 168 590 168 590 246.5 634.5 c 128,-1,14
 325 679 325 679 429 679 c 0,15,16
 488 679 488 679 534 660 c 128,-1,17
 580 641 580 641 613 606 c 1,18,-1
 691 679 l 1,19,-1
 726 642 l 1,20,-1
 645 566 l 1,21,22
 687 497 687 497 687 402 c 0,23,24
 687 386 687 386 686 368.5 c 128,-1,25
 685 351 685 351 682 333 c 0,26,27
 672 269 672 269 644.5 207 c 128,-1,28
 617 145 617 145 571.5 96 c 128,-1,29
 526 47 526 47 460.5 17.5 c 128,-1,30
 395 -12 395 -12 309 -12 c 0,0,1
160 181 m 1,31,-1
 545 542 l 1,32,33
 496 600 496 600 416 600 c 0,34,35
 341 600 341 600 286.5 564.5 c 128,-1,36
 232 529 232 529 198.5 468.5 c 128,-1,37
 165 408 165 408 152 333 c 0,38,39
 146 299 146 299 146 269 c 0,40,41
 146 221 146 221 160 181 c 1,31,-1
322 67 m 0,42,43
 423 67 423 67 494.5 137.5 c 128,-1,44
 566 208 566 208 587 333 c 0,45,46
 590 350 590 350 591 365.5 c 128,-1,47
 592 381 592 381 592 395 c 0,48,49
 592 454 592 454 573 498 c 1,50,-1
 185 134 l 1,51,52
 209 101 209 101 244.5 84 c 128,-1,53
 280 67 280 67 322 67 c 0,42,43
EndSplineSet
Validated: 1
EndChar

StartChar: Thorn
Encoding: 222 222 181
Width: 579
GlyphClass: 1
Flags: W
HStem: 155 81<149 401.495> 438 81<209 435.31>
VStem: 458 102<290.078 415.803>
LayerCount: 2
Fore
SplineSet
11 -8 m 1,0,-1
 153 659 l 1,1,-1
 239 659 l 1,2,-1
 209 519 l 1,3,-1
 336 519 l 2,4,5
 403 519 403 519 453 506 c 128,-1,6
 503 493 503 493 531.5 462 c 128,-1,7
 560 431 560 431 560 378 c 0,8,9
 560 365 560 365 558.5 350 c 128,-1,10
 557 335 557 335 552 318 c 0,11,12
 529 224 529 224 457.5 189.5 c 128,-1,13
 386 155 386 155 259 155 c 2,14,-1
 132 155 l 1,15,-1
 97 -8 l 1,16,-1
 11 -8 l 1,0,-1
149 236 m 1,17,-1
 285 236 l 2,18,19
 371 236 371 236 407.5 261.5 c 128,-1,20
 444 287 444 287 452 321 c 0,21,22
 458 347 458 347 458 366 c 0,23,24
 458 404 458 404 429 421 c 128,-1,25
 400 438 400 438 327 438 c 2,26,-1
 192 438 l 1,27,-1
 149 236 l 1,17,-1
EndSplineSet
Validated: 1
EndChar

StartChar: ae
Encoding: 230 230 182
Width: 866
GlyphClass: 1
Flags: W
HStem: -12 68<115.057 258.064 502.971 649.763> 225 67<165.528 357 454 746.951> 435 69<204.952 354.445 546.809 695.49>
VStem: 4 94<74.1628 175.78> 365 89<292 348.36> 747 88<292.232 384.523>
LayerCount: 2
Fore
SplineSet
163 -12 m 0,0,1
 92 -12 92 -12 48 21 c 128,-1,2
 4 54 4 54 4 118 c 0,3,4
 4 174 4 174 31 208.5 c 128,-1,5
 58 243 58 243 107 261 c 128,-1,6
 156 279 156 279 221.5 285.5 c 128,-1,7
 287 292 287 292 365 292 c 1,8,9
 370 311 370 311 372.5 327.5 c 128,-1,10
 375 344 375 344 375 357 c 0,11,12
 375 396 375 396 353.5 415.5 c 128,-1,13
 332 435 332 435 284 435 c 0,14,15
 239 435 239 435 206.5 414.5 c 128,-1,16
 174 394 174 394 158 358 c 1,17,-1
 82 382 l 1,18,19
 107 437 107 437 157.5 470.5 c 128,-1,20
 208 504 208 504 278 504 c 0,21,22
 345 504 345 504 385.5 485 c 128,-1,23
 426 466 426 466 444 432 c 1,24,25
 519 504 519 504 635 504 c 0,26,27
 701 504 701 504 745.5 476.5 c 128,-1,28
 790 449 790 449 812.5 402.5 c 128,-1,29
 835 356 835 356 835 299 c 0,30,31
 835 263 835 263 826 225 c 1,32,-1
 441 225 l 1,33,34
 440 218 440 218 440 211 c 128,-1,35
 440 204 440 204 440 198 c 0,36,37
 440 146 440 146 460 116.5 c 128,-1,38
 480 87 480 87 510.5 74.5 c 128,-1,39
 541 62 541 62 574 62 c 0,40,41
 615 62 615 62 645.5 75.5 c 128,-1,42
 676 89 676 89 697 111 c 1,43,-1
 775 87 l 1,44,45
 741 43 741 43 688 15.5 c 128,-1,46
 635 -12 635 -12 563 -12 c 0,47,48
 496 -12 496 -12 449.5 18.5 c 128,-1,49
 403 49 403 49 380 100 c 1,50,51
 353 58 353 58 316 33.5 c 128,-1,52
 279 9 279 9 239.5 -1.5 c 128,-1,53
 200 -12 200 -12 163 -12 c 0,0,1
454 292 m 1,54,-1
 746 292 l 1,55,56
 747 297 747 297 747 301.5 c 128,-1,57
 747 306 747 306 747 310 c 0,58,59
 747 340 747 340 734.5 368 c 128,-1,60
 722 396 722 396 694.5 414 c 128,-1,61
 667 432 667 432 623 432 c 0,62,63
 586 432 586 432 550.5 415.5 c 128,-1,64
 515 399 515 399 489.5 368 c 128,-1,65
 464 337 464 337 454 292 c 1,54,-1
173 56 m 0,66,67
 244 57 244 57 292.5 103 c 128,-1,68
 341 149 341 149 357 224 c 1,69,70
 307 224 307 224 260.5 221 c 128,-1,71
 214 218 214 218 177.5 207.5 c 128,-1,72
 141 197 141 197 119.5 176 c 128,-1,73
 98 155 98 155 98 120 c 0,74,75
 98 94 98 94 116 75 c 128,-1,76
 134 56 134 56 173 56 c 0,66,67
EndSplineSet
Validated: 1
EndChar

StartChar: eth
Encoding: 240 240 183
Width: 565
GlyphClass: 1
Flags: W
HStem: -12 71<163.736 320.871> 370 75<185.578 346.313> 603 76<235 350.588>
VStem: 22 83<119.216 286.342> 439 85<339.5 511.323>
LayerCount: 2
Fore
SplineSet
230 -12 m 0,0,1
 171 -12 171 -12 124 17 c 128,-1,2
 77 46 77 46 49.5 93.5 c 128,-1,3
 22 141 22 141 22 198 c 0,4,5
 22 268 22 268 53.5 323.5 c 128,-1,6
 85 379 85 379 141 412 c 128,-1,7
 197 445 197 445 268 445 c 0,8,9
 312 445 312 445 346 429.5 c 128,-1,10
 380 414 380 414 403 389.5 c 128,-1,11
 426 365 426 365 435 339 c 1,12,13
 437 355 437 355 438 370 c 128,-1,14
 439 385 439 385 439 399 c 0,15,16
 439 452 439 452 426.5 489 c 128,-1,17
 414 526 414 526 392 550 c 1,18,-1
 299 473 l 1,19,-1
 271 509 l 1,20,-1
 355 579 l 1,21,22
 327 594 327 594 293 599.5 c 128,-1,23
 259 605 259 605 219 603 c 1,24,-1
 235 679 l 1,25,26
 292 681 292 681 339 671 c 128,-1,27
 386 661 386 661 423 635 c 1,28,-1
 476 679 l 1,29,-1
 505 643 l 1,30,-1
 458 605 l 1,31,32
 492 568 492 568 509 509.5 c 128,-1,33
 526 451 526 451 524 365 c 0,34,35
 523 335 523 335 516.5 288.5 c 128,-1,36
 510 242 510 242 492 190 c 128,-1,37
 474 138 474 138 441.5 92 c 128,-1,38
 409 46 409 46 357 17 c 128,-1,39
 305 -12 305 -12 230 -12 c 0,0,1
240 59 m 0,40,41
 311 59 311 59 354.5 109 c 128,-1,42
 398 159 398 159 398 238 c 0,43,44
 398 301 398 301 362 335.5 c 128,-1,45
 326 370 326 370 272 370 c 0,46,47
 220 370 220 370 182.5 346.5 c 128,-1,48
 145 323 145 323 125 283.5 c 128,-1,49
 105 244 105 244 105 196 c 0,50,51
 105 161 105 161 121 129.5 c 128,-1,52
 137 98 137 98 167 78.5 c 128,-1,53
 197 59 197 59 240 59 c 0,40,41
EndSplineSet
Validated: 33
EndChar

StartChar: thorn
Encoding: 254 254 184
Width: 553
GlyphClass: 1
Flags: W
HStem: -161 21G<-28 62.3137> -12 72<191.206 327.75> 432 72<238.158 371.983> 648 20G<143.754 234>
VStem: 417 91<175.567 385.089>
LayerCount: 2
Fore
SplineSet
-28 -161 m 1,0,-1
 148 668 l 1,1,-1
 234 668 l 1,2,-1
 186 438 l 1,3,4
 211 470 211 470 247 487 c 128,-1,5
 283 504 283 504 326 504 c 0,6,7
 406 504 406 504 457 449.5 c 128,-1,8
 508 395 508 395 508 291 c 0,9,10
 508 196 508 196 473.5 128 c 128,-1,11
 439 60 439 60 383.5 24 c 128,-1,12
 328 -12 328 -12 263 -12 c 0,13,14
 204 -12 204 -12 165 19.5 c 128,-1,15
 126 51 126 51 113 94 c 1,16,-1
 58 -161 l 1,17,-1
 -28 -161 l 1,0,-1
260 60 m 0,18,19
 299 60 299 60 328 81.5 c 128,-1,20
 357 103 357 103 377 137.5 c 128,-1,21
 397 172 397 172 407 211.5 c 128,-1,22
 417 251 417 251 417 288 c 0,23,24
 418 363 418 363 386.5 397.5 c 128,-1,25
 355 432 355 432 307 432 c 0,26,27
 263 432 263 432 231 410 c 128,-1,28
 199 388 199 388 178.5 354.5 c 128,-1,29
 158 321 158 321 148.5 284.5 c 128,-1,30
 139 248 139 248 139 218 c 0,31,32
 139 141 139 141 172 100.5 c 128,-1,33
 205 60 205 60 260 60 c 0,18,19
EndSplineSet
Validated: 33
EndChar

StartChar: multiply
Encoding: 215 215 185
Width: 589
GlyphClass: 1
Flags: W
LayerCount: 2
Fore
SplineSet
132 39 m 1,0,-1
 75 97 l 1,1,-1
 229 250 l 1,2,-1
 75 404 l 1,3,-1
 132 462 l 1,4,-1
 286 308 l 1,5,-1
 440 462 l 1,6,-1
 497 404 l 1,7,-1
 344 250 l 1,8,-1
 497 97 l 1,9,-1
 440 39 l 1,10,-1
 286 193 l 1,11,-1
 132 39 l 1,0,-1
EndSplineSet
Validated: 1
EndChar

StartChar: divide
Encoding: 247 247 186
Width: 615
GlyphClass: 1
Flags: W
HStem: 14 129<252.596 342.92> 208 81<50 546> 354 129<252.596 342.92>
VStem: 233 129<33.5957 123.405 373.08 463.404>
CounterMasks: 1 e0
LayerCount: 2
Fore
SplineSet
298 354 m 256,0,1
 271 354 271 354 252 372.5 c 128,-1,2
 233 391 233 391 233 418 c 256,3,4
 233 445 233 445 252 464 c 128,-1,5
 271 483 271 483 298 483 c 256,6,7
 325 483 325 483 343.5 464 c 128,-1,8
 362 445 362 445 362 418 c 256,9,10
 362 391 362 391 343.5 372.5 c 128,-1,11
 325 354 325 354 298 354 c 256,0,1
50 208 m 1,12,-1
 50 289 l 1,13,-1
 546 289 l 1,14,-1
 546 208 l 1,15,-1
 50 208 l 1,12,-1
298 14 m 256,16,17
 271 14 271 14 252 33 c 128,-1,18
 233 52 233 52 233 79 c 0,19,20
 233 105 233 105 252 124 c 128,-1,21
 271 143 271 143 298 143 c 256,22,23
 325 143 325 143 343.5 124 c 128,-1,24
 362 105 362 105 362 79 c 0,25,26
 362 52 362 52 343.5 33 c 128,-1,27
 325 14 325 14 298 14 c 256,16,17
EndSplineSet
Validated: 1
EndChar

StartChar: OE
Encoding: 307 338 187
Width: 1066
GlyphClass: 1
Flags: W
HStem: -12 80<235.351 424.451> 0 82<629 972> 304 80<694 942> 587 81<737 1096> 601 79<311.191 501.053>
VStem: 51 95<163.263 397.805>
LayerCount: 2
Fore
SplineSet
309 -12 m 0,0,1
 227 -12 227 -12 169 24.5 c 128,-1,2
 111 61 111 61 81 125 c 128,-1,3
 51 189 51 189 51 269 c 0,4,5
 51 285 51 285 52.5 301.5 c 128,-1,6
 54 318 54 318 56 334 c 0,7,8
 71 435 71 435 119.5 513 c 128,-1,9
 168 591 168 591 246 635.5 c 128,-1,10
 324 680 324 680 429 680 c 0,11,12
 506 680 506 680 562.5 646.5 c 128,-1,13
 619 613 619 613 650 557 c 1,14,-1
 674 668 l 1,15,-1
 1113 668 l 1,16,-1
 1096 587 l 1,17,-1
 737 587 l 1,18,-1
 694 384 l 1,19,-1
 959 384 l 1,20,-1
 942 304 l 1,21,-1
 676 304 l 1,22,-1
 629 82 l 1,23,-1
 989 82 l 1,24,-1
 972 0 l 1,25,-1
 532 0 l 1,26,-1
 549 80 l 1,27,28
 508 41 508 41 450 14.5 c 128,-1,29
 392 -12 392 -12 309 -12 c 0,0,1
322 68 m 0,30,31
 423 68 423 68 494 138.5 c 128,-1,32
 565 209 565 209 586 334 c 0,33,34
 592 369 592 369 592 398 c 0,35,36
 592 464 592 464 568.5 509 c 128,-1,37
 545 554 545 554 505 577.5 c 128,-1,38
 465 601 465 601 416 601 c 0,39,40
 341 601 341 601 286.5 565.5 c 128,-1,41
 232 530 232 530 198.5 469.5 c 128,-1,42
 165 409 165 409 152 334 c 0,43,44
 146 300 146 300 146 269 c 0,45,46
 146 204 146 204 169.5 159 c 128,-1,47
 193 114 193 114 233 91 c 128,-1,48
 273 68 273 68 322 68 c 0,30,31
EndSplineSet
Validated: 1
EndChar

StartChar: oe
Encoding: 308 339 188
Width: 906
GlyphClass: 1
Flags: W
HStem: -12 74<163.227 311.229 532.799 702.76> 226 67<495 787.973> 430 74<207.672 366.646 577.252 744.158>
VStem: 24 88<114.789 314.527> 788 87<293.882 385.859>
LayerCount: 2
Fore
SplineSet
230 -12 m 0,0,1
 133 -12 133 -12 78.5 44 c 128,-1,2
 24 100 24 100 24 196 c 0,3,4
 24 209 24 209 25.5 221.5 c 128,-1,5
 27 234 27 234 28 247 c 0,6,7
 37 316 37 316 65 364.5 c 128,-1,8
 93 413 93 413 132 444 c 128,-1,9
 171 475 171 475 214.5 489.5 c 128,-1,10
 258 504 258 504 298 504 c 0,11,12
 350 504 350 504 393 483 c 128,-1,13
 436 462 436 462 465 406 c 1,14,15
 500 453 500 453 554.5 478.5 c 128,-1,16
 609 504 609 504 672 504 c 0,17,18
 739 504 739 504 784 477.5 c 128,-1,19
 829 451 829 451 852 405 c 128,-1,20
 875 359 875 359 875 302 c 0,21,22
 875 265 875 265 866 226 c 1,23,-1
 482 226 l 1,24,25
 481 219 481 219 481 212.5 c 128,-1,26
 481 206 481 206 481 200 c 0,27,28
 481 150 481 150 499.5 119.5 c 128,-1,29
 518 89 518 89 548 75.5 c 128,-1,30
 578 62 578 62 614 62 c 0,31,32
 656 62 656 62 686.5 75.5 c 128,-1,33
 717 89 717 89 737 111 c 1,34,-1
 815 87 l 1,35,36
 783 46 783 46 731.5 17 c 128,-1,37
 680 -12 680 -12 608 -12 c 256,38,39
 536 -12 536 -12 493 13.5 c 128,-1,40
 450 39 450 39 422 86 c 1,41,42
 392 46 392 46 344.5 17 c 128,-1,43
 297 -12 297 -12 230 -12 c 0,0,1
495 293 m 1,44,-1
 787 293 l 1,45,46
 788 298 788 298 788 303 c 128,-1,47
 788 308 788 308 788 312 c 0,48,49
 788 343 788 343 775.5 370 c 128,-1,50
 763 397 763 397 735.5 414.5 c 128,-1,51
 708 432 708 432 662 432 c 0,52,53
 606 432 606 432 557.5 395.5 c 128,-1,54
 509 359 509 359 495 293 c 1,44,-1
231 62 m 0,55,56
 299 61 299 61 346.5 113 c 128,-1,57
 394 165 394 165 406 248 c 0,58,59
 408 262 408 262 409 274.5 c 128,-1,60
 410 287 410 287 410 298 c 0,61,62
 410 373 410 373 375.5 401.5 c 128,-1,63
 341 430 341 430 290 430 c 0,64,65
 254 430 254 430 218.5 414 c 128,-1,66
 183 398 183 398 156 359 c 128,-1,67
 129 320 129 320 117 249 c 0,68,69
 115 236 115 236 113.5 223.5 c 128,-1,70
 112 211 112 211 112 199 c 0,71,72
 112 135 112 135 144 99.5 c 128,-1,73
 176 64 176 64 231 62 c 0,55,56
EndSplineSet
Validated: 33
EndChar

StartChar: Eth
Encoding: 208 208 249
Width: 706
GlyphClass: 1
Flags: W
HStem: 0 79<161 389.686> 303 80<37 112 226 349> 588 80<269 483.731>
LayerCount: 2
Fore
SplineSet
48 0 m 1,0,-1
 112 303 l 1,1,-1
 20 303 l 1,2,-1
 37 383 l 1,3,-1
 129 383 l 1,4,-1
 190 668 l 1,5,-1
 374 668 l 2,6,7
 552 668 552 668 623 581 c 128,-1,8
 694 494 694 494 665 319 c 0,9,10
 647 212 647 212 588 141 c 128,-1,11
 529 70 529 70 438 35 c 128,-1,12
 347 0 347 0 233 0 c 2,13,-1
 48 0 l 1,0,-1
161 79 m 1,14,-1
 247 79 l 2,15,16
 329 79 329 79 396 102.5 c 128,-1,17
 463 126 463 126 509 180 c 128,-1,18
 555 234 555 234 570 325 c 0,19,20
 594 466 594 466 542.5 527 c 128,-1,21
 491 588 491 588 354 588 c 2,22,-1
 269 588 l 1,23,-1
 226 383 l 1,24,-1
 366 383 l 1,25,-1
 349 303 l 1,26,-1
 209 303 l 1,27,-1
 161 79 l 1,14,-1
EndSplineSet
Validated: 33
EndChar

StartChar: one.tf
Encoding: 317 -1 251
Width: 635
GlyphClass: 1
Flags: W
HStem: 8 77<51 230 315 457> 513 67<157 302.031> 657 20G<375 440>
VStem: 382 58<643.848 677>
LayerCount: 2
Fore
SplineSet
35 8 m 1,0,-1
 51 85 l 1,1,-1
 230 85 l 1,2,-1
 320 513 l 1,3,-1
 142 513 l 1,4,-1
 157 580 l 1,5,6
 228 580 228 580 272.5 592 c 128,-1,7
 317 604 317 604 342.5 626 c 128,-1,8
 368 648 368 648 382 677 c 1,9,-1
 440 677 l 1,10,-1
 315 85 l 1,11,-1
 473 85 l 1,12,-1
 457 8 l 1,13,-1
 35 8 l 1,0,-1
EndSplineSet
Validated: 1
Substitution2: "'pnum' Proportional Numbers lookup 13 subtable" one
Substitution2: "'aalt' Access All Alternates lookup 0 subtable" one
EndChar

StartChar: Aogonek
Encoding: 328 260 262
Width: 623
GlyphClass: 2
Flags: W
HStem: -173 57<458.856 529.099> 0 21G<-54 65.3699> 146 80<182 428> 648 20G<326.263 457.263>
VStem: 378 77<-110.566 -51.1006>
AnchorPoint: "Anchor-2" 511 10 basechar 0
AnchorPoint: "Anchor-1" 385 668 basechar 0
AnchorPoint: "Anchor-0" 259 0 basechar 0
LayerCount: 2
Fore
SplineSet
-54 0 m 1,0,-1
 338 668 l 1,1,-1
 454 668 l 1,2,-1
 563 0 l 1,3,4
 516 -17 516 -17 485.5 -40 c 128,-1,5
 455 -63 455 -63 455 -89 c 0,6,7
 455 -101 455 -101 466.5 -108.5 c 128,-1,8
 478 -116 478 -116 496 -116 c 0,9,10
 516 -116 516 -116 540 -107 c 1,11,-1
 529 -161 l 1,12,13
 490 -173 490 -173 462 -173 c 0,14,15
 421 -173 421 -173 399.5 -153.5 c 128,-1,16
 378 -134 378 -134 378 -106 c 0,17,18
 378 -72 378 -72 407 -43 c 128,-1,19
 436 -14 436 -14 484 0 c 1,20,-1
 460 0 l 1,21,-1
 439 146 l 1,22,-1
 137 146 l 1,23,-1
 54 0 l 1,24,-1
 -54 0 l 1,0,-1
182 226 m 1,25,-1
 428 226 l 1,26,-1
 379 573 l 1,27,-1
 182 226 l 1,25,-1
EndSplineSet
Validated: 1
EndChar

StartChar: eogonek
Encoding: 335 281 269
Width: 537
GlyphClass: 2
Flags: W
HStem: -173 57<261.476 331.151> -12 74<165.156 232> 225 68<126 419.924> 432 72<212.021 372.11>
VStem: 25 88<115.15 223.113> 180 77<-109.707 -40.8516> 420 87<293.224 384.176>
AnchorPoint: "Anchor-2" 335 10 basechar 0
AnchorPoint: "Anchor-1" 319 496 basechar 0
AnchorPoint: "Anchor-0" 216 0 basechar 0
LayerCount: 2
Fore
SplineSet
264 -173 m 0,0,1
 223 -173 223 -173 201.5 -152 c 128,-1,2
 180 -131 180 -131 180 -100 c 0,3,4
 180 -73 180 -73 194.5 -51 c 128,-1,5
 209 -29 209 -29 232 -12 c 1,6,7
 135 -11 135 -11 80 46 c 128,-1,8
 25 103 25 103 25 199 c 0,9,10
 25 286 25 286 59.5 355 c 128,-1,11
 94 424 94 424 157.5 464 c 128,-1,12
 221 504 221 504 307 504 c 0,13,14
 374 504 374 504 418 477 c 128,-1,15
 462 450 462 450 484.5 403.5 c 128,-1,16
 507 357 507 357 507 300 c 0,17,18
 507 264 507 264 498 225 c 1,19,-1
 114 225 l 1,20,21
 113 218 113 218 113 211 c 128,-1,22
 113 204 113 204 113 197 c 0,23,24
 113 146 113 146 132.5 116.5 c 128,-1,25
 152 87 152 87 183 74.5 c 128,-1,26
 214 62 214 62 246 62 c 0,27,28
 288 62 288 62 318 75.5 c 128,-1,29
 348 89 348 89 369 111 c 1,30,-1
 447 87 l 1,31,32
 425 59 425 59 396.5 37.5 c 128,-1,33
 368 16 368 16 331 3 c 0,34,35
 305 -10 305 -10 281 -30.5 c 128,-1,36
 257 -51 257 -51 257 -83 c 0,37,38
 257 -99 257 -99 268.5 -107.5 c 128,-1,39
 280 -116 280 -116 299 -116 c 256,40,41
 318 -116 318 -116 342 -107 c 1,42,-1
 331 -161 l 1,43,44
 294 -173 294 -173 264 -173 c 0,0,1
126 293 m 1,45,-1
 419 293 l 1,46,47
 420 298 420 298 420 302 c 128,-1,48
 420 306 420 306 420 310 c 0,49,50
 420 340 420 340 407.5 368 c 128,-1,51
 395 396 395 396 367.5 414 c 128,-1,52
 340 432 340 432 295 432 c 0,53,54
 258 432 258 432 223 416 c 128,-1,55
 188 400 188 400 162 369 c 128,-1,56
 136 338 136 338 126 293 c 1,45,-1
EndSplineSet
Validated: 1
EndChar

StartChar: uni0326
Encoding: 348 806 282
Width: -4
GlyphClass: 4
Flags: W
HStem: -241 36<-43 -1.02344>
VStem: 35 67<-175.684 -80.4163>
AnchorPoint: "Anchor-3" -1 -251 basemark 0
AnchorPoint: "Anchor-3" 71 0 mark 0
AnchorPoint: "Anchor-0" 71 0 mark 0
LayerCount: 2
Fore
SplineSet
-43 -241 m 1,0,-1
 -68 -205 l 1,1,2
 -43 -207 -43 -207 -19.5 -197.5 c 128,-1,3
 4 -188 4 -188 19.5 -169 c 128,-1,4
 35 -150 35 -150 35 -124 c 0,5,6
 35 -89 35 -89 3 -75 c 1,7,-1
 63 -46 l 1,8,9
 83 -59 83 -59 92.5 -77.5 c 128,-1,10
 102 -96 102 -96 102 -116 c 0,11,12
 102 -152 102 -152 82 -180 c 128,-1,13
 62 -208 62 -208 29 -224.5 c 128,-1,14
 -4 -241 -4 -241 -43 -241 c 1,0,-1
EndSplineSet
Validated: 33
EndChar

StartChar: uogonek
Encoding: 358 371 292
Width: 536
GlyphClass: 2
Flags: W
HStem: -173 57<301.856 372.099> -11 73<141.071 269.142> 476 20G<104.768 195 421.692 511>
VStem: 38 86<81.0458 263.312> 221 77<-110.566 -50.2437>
AnchorPoint: "Anchor-2" 433 10 basechar 0
AnchorPoint: "Anchor-1" 306 496 basechar 0
AnchorPoint: "Anchor-0" 215 0 basechar 0
LayerCount: 2
Fore
SplineSet
171 -11 m 0,0,1
 98 -11 98 -11 68 29 c 128,-1,2
 38 69 38 69 38 128 c 0,3,4
 38 164 38 164 47 203 c 2,5,-1
 109 496 l 1,6,-1
 195 496 l 1,7,-1
 133 205 l 2,8,9
 129 187 129 187 126.5 169.5 c 128,-1,10
 124 152 124 152 124 137 c 0,11,12
 124 104 124 104 140.5 83 c 128,-1,13
 157 62 157 62 201 62 c 0,14,15
 260 62 260 62 305 102.5 c 128,-1,16
 350 143 350 143 370 236 c 2,17,-1
 426 496 l 1,18,-1
 511 496 l 1,19,-1
 406 0 l 1,20,21
 359 -17 359 -17 328.5 -40 c 128,-1,22
 298 -63 298 -63 298 -89 c 0,23,24
 298 -101 298 -101 309.5 -108.5 c 128,-1,25
 321 -116 321 -116 339 -116 c 0,26,27
 359 -116 359 -116 383 -107 c 1,28,-1
 372 -161 l 1,29,30
 333 -173 333 -173 305 -173 c 0,31,32
 264 -173 264 -173 242.5 -153.5 c 128,-1,33
 221 -134 221 -134 221 -106 c 0,34,35
 221 -75 221 -75 240 -53 c 128,-1,36
 259 -31 259 -31 287 -17 c 128,-1,37
 315 -3 315 -3 341 5 c 1,38,-1
 335 70 l 1,39,40
 303 28 303 28 265.5 8.5 c 128,-1,41
 228 -11 228 -11 171 -11 c 0,0,1
EndSplineSet
Validated: 1
EndChar

StartChar: Hbar
Encoding: 367 294 301
Width: 706
GlyphClass: 1
Flags: W
HStem: 0 21G<21 121.276 467 567.246> 304 80<199 531> 504 79<70 128 241 574 687 743> 648 20G<158.765 259 604.765 705>
LayerCount: 2
Fore
SplineSet
21 0 m 1,0,-1
 128 504 l 1,1,-1
 53 504 l 1,2,-1
 70 583 l 1,3,-1
 145 583 l 1,4,-1
 163 668 l 1,5,-1
 259 668 l 1,6,-1
 241 583 l 1,7,-1
 591 583 l 1,8,-1
 609 668 l 1,9,-1
 705 668 l 1,10,-1
 687 583 l 1,11,-1
 760 583 l 1,12,-1
 743 504 l 1,13,-1
 670 504 l 1,14,-1
 563 0 l 1,15,-1
 467 0 l 1,16,-1
 531 304 l 1,17,-1
 182 304 l 1,18,-1
 117 0 l 1,19,-1
 21 0 l 1,0,-1
199 384 m 1,20,-1
 549 384 l 1,21,-1
 574 504 l 1,22,-1
 224 504 l 1,23,-1
 199 384 l 1,20,-1
EndSplineSet
Validated: 1
EndChar

StartChar: hbar
Encoding: 368 295 302
Width: 576
GlyphClass: 1
Flags: W
HStem: 0 21G<37 127.202 363 452.306> 430 74<279.934 412.575> 548 67<86 153 254 401> 648 20G<174.849 265>
VStem: 363 85<0 32.5161> 431 88<230.688 412.962>
LayerCount: 2
Fore
SplineSet
37 0 m 1,0,-1
 153 548 l 1,1,-1
 72 548 l 1,2,-1
 86 615 l 1,3,-1
 168 615 l 1,4,-1
 179 668 l 1,5,-1
 265 668 l 1,6,-1
 254 615 l 1,7,-1
 415 615 l 1,8,-1
 401 548 l 1,9,-1
 240 548 l 1,10,-1
 214 427 l 1,11,12
 239 459 239 459 278.5 481.5 c 128,-1,13
 318 504 318 504 385 504 c 0,14,15
 448 504 448 504 483.5 470.5 c 128,-1,16
 519 437 519 437 519 366 c 0,17,18
 519 332 519 332 510 288 c 2,19,-1
 448 0 l 1,20,-1
 363 0 l 1,21,-1
 422 280 l 2,22,23
 431 324 431 324 431 352 c 0,24,25
 431 395 431 395 411 412.5 c 128,-1,26
 391 430 391 430 348 430 c 0,27,28
 312 430 312 430 278 414 c 128,-1,29
 244 398 244 398 217.5 360 c 128,-1,30
 191 322 191 322 177 257 c 2,31,-1
 123 0 l 1,32,-1
 37 0 l 1,0,-1
EndSplineSet
Validated: 1
EndChar

StartChar: dcroat
Encoding: 384 273 318
Width: 598
GlyphClass: 1
Flags: W
HStem: -12 72<161.435 295.71> 0 21G<357.361 440.5> 432 72<205.255 346.861> 548 67<306 454 554 621> 648 20G<474.849 565>
VStem: 25 90<109.02 316.004> 396 44<0 281>
LayerCount: 2
Fore
SplineSet
203 -12 m 0,0,1
 147 -12 147 -12 107 15 c 128,-1,2
 67 42 67 42 46 89.5 c 128,-1,3
 25 137 25 137 25 198 c 0,4,5
 25 258 25 258 42 312.5 c 128,-1,6
 59 367 59 367 90.5 410.5 c 128,-1,7
 122 454 122 454 167 479 c 128,-1,8
 212 504 212 504 269 504 c 0,9,10
 328 504 328 504 368 473.5 c 128,-1,11
 408 443 408 443 422 398 c 1,12,-1
 454 548 l 1,13,-1
 292 548 l 1,14,-1
 306 615 l 1,15,-1
 468 615 l 1,16,-1
 479 668 l 1,17,-1
 565 668 l 1,18,19
 565 668 565 668 562 653.5 c 128,-1,20
 559 639 559 639 554 615 c 1,21,-1
 635 615 l 1,22,-1
 621 548 l 1,23,-1
 539 548 l 1,24,25
 530 504 530 504 519 453.5 c 128,-1,26
 508 403 508 403 497.5 352.5 c 128,-1,27
 487 302 487 302 478 259 c 128,-1,28
 469 216 469 216 463 188 c 0,29,30
 458 163 458 163 449.5 114 c 128,-1,31
 441 65 441 65 440 0 c 1,32,-1
 359 0 l 1,33,-1
 354 61 l 1,34,35
 329 29 329 29 293.5 8.5 c 128,-1,36
 258 -12 258 -12 203 -12 c 0,0,1
224 60 m 0,37,38
 276 60 276 60 314.5 90.5 c 128,-1,39
 353 121 353 121 374.5 171.5 c 128,-1,40
 396 222 396 222 396 281 c 0,41,42
 396 350 396 350 366 391 c 128,-1,43
 336 432 336 432 278 432 c 0,44,45
 226 432 226 432 189.5 397.5 c 128,-1,46
 153 363 153 363 134 309.5 c 128,-1,47
 115 256 115 256 115 199 c 0,48,49
 115 129 115 129 147.5 94.5 c 128,-1,50
 180 60 180 60 224 60 c 0,37,38
EndSplineSet
Validated: 1
EndChar

StartChar: acutecomb.case
Encoding: 398 -1 332
Width: 0
GlyphClass: 4
Flags: W
HStem: 744 120
VStem: 135 198
AnchorPoint: "Anchor-4" 251 864 basemark 0
AnchorPoint: "Anchor-4" 185 668 mark 0
AnchorPoint: "Anchor-1" 185 668 mark 0
LayerCount: 2
Fore
SplineSet
135 744 m 1,0,1
 139 747 139 747 157.5 762.5 c 128,-1,2
 176 778 176 778 199.5 797.5 c 128,-1,3
 223 817 223 817 243.5 833.5 c 128,-1,4
 264 850 264 850 271 855 c 0,5,6
 285 864 285 864 297 864 c 0,7,8
 312 864 312 864 322.5 853.5 c 128,-1,9
 333 843 333 843 333 828 c 0,10,11
 333 815 333 815 327 807 c 128,-1,12
 321 799 321 799 314 794 c 0,13,14
 308 790 308 790 294 782.5 c 128,-1,15
 280 775 280 775 263 767 c 128,-1,16
 246 759 246 759 233 752.5 c 128,-1,17
 220 746 220 746 216 744 c 2,18,-1
 135 744 l 1,0,1
EndSplineSet
Validated: 1
EndChar

StartChar: caron.alt
Encoding: 401 -1 335
Width: 206
GlyphClass: 1
Flags: W
HStem: 495 183
VStem: 155 74<603.5 669.749>
LayerCount: 2
Fore
SplineSet
96 495 m 1,0,1
 98 500 98 500 105.5 520.5 c 128,-1,2
 113 541 113 541 123 567.5 c 128,-1,3
 133 594 133 594 141.5 617 c 128,-1,4
 150 640 150 640 155 649 c 0,5,6
 158 657 158 657 169 667.5 c 128,-1,7
 180 678 180 678 197 678 c 0,8,9
 211 678 211 678 220 670 c 128,-1,10
 229 662 229 662 229 648 c 0,11,12
 229 640 229 640 217 619 c 2,13,-1
 145 495 l 1,14,-1
 96 495 l 1,0,1
EndSplineSet
Validated: 1
EndChar

StartChar: uni2074
Encoding: 411 8308 345
Width: 393
GlyphClass: 1
Flags: W
HStem: 489 57<167 267 349 402>
LayerCount: 2
Fore
SplineSet
249 403 m 1,0,-1
 267 489 l 1,1,-1
 74 489 l 1,2,-1
 86 543 l 1,3,-1
 322 778 l 1,4,-1
 399 778 l 1,5,-1
 349 546 l 1,6,-1
 414 546 l 1,7,-1
 402 489 l 1,8,-1
 337 489 l 1,9,-1
 319 403 l 1,10,-1
 249 403 l 1,0,-1
167 546 m 1,11,-1
 279 546 l 1,12,-1
 311 692 l 1,13,-1
 167 546 l 1,11,-1
EndSplineSet
Validated: 1
EndChar

StartChar: gravecomb.case
Encoding: 414 -1 348
Width: 0
GlyphClass: 4
Flags: W
HStem: 744 120<218.762 240.578>
VStem: 168 153
AnchorPoint: "Anchor-4" 261 864 basemark 0
AnchorPoint: "Anchor-4" 239 668 mark 0
AnchorPoint: "Anchor-1" 239 668 mark 0
LayerCount: 2
Fore
SplineSet
248 744 m 1,0,1
 214 769 214 769 192 787 c 0,2,3
 168 807 168 807 168 828 c 0,4,5
 168 837 168 837 176 850.5 c 128,-1,6
 184 864 184 864 204 864 c 0,7,8
 222 864 222 864 236 848 c 0,9,10
 254 826 254 826 277 798 c 128,-1,11
 300 770 300 770 321 744 c 1,12,-1
 248 744 l 1,0,1
EndSplineSet
Validated: 1
EndChar

StartChar: uni030B
Encoding: 415 779 349
Width: 0
GlyphClass: 4
Flags: W
HStem: 572 136<215 234>
VStem: 69 329
AnchorPoint: "Anchor-4" 252 708 basemark 0
AnchorPoint: "Anchor-4" 187 496 mark 0
AnchorPoint: "Anchor-1" 187 496 mark 0
LayerCount: 2
Fore
SplineSet
69 572 m 1,0,1
 69 572 69 572 79.5 583 c 128,-1,2
 90 594 90 594 106 611 c 128,-1,3
 122 628 122 628 139 646.5 c 128,-1,4
 156 665 156 665 170 679.5 c 128,-1,5
 184 694 184 694 190 699 c 0,6,7
 202 708 202 708 216 708 c 0,8,9
 234 708 234 708 244 696 c 0,10,11
 253 686 253 686 253 671 c 0,12,13
 253 654 253 654 241 642 c 0,14,15
 234 635 234 635 218 623.5 c 128,-1,16
 202 612 202 612 184.5 600 c 128,-1,17
 167 588 167 588 155 580 c 128,-1,18
 143 572 143 572 143 572 c 1,19,-1
 69 572 l 1,0,1
215 572 m 1,20,21
 215 572 215 572 230.5 589 c 128,-1,22
 246 606 246 606 267.5 629 c 128,-1,23
 289 652 289 652 308.5 672.5 c 128,-1,24
 328 693 328 693 336 699 c 0,25,26
 348 708 348 708 362 708 c 0,27,28
 379 708 379 708 389 696 c 0,29,30
 398 684 398 684 398 670 c 0,31,32
 398 653 398 653 386 642 c 0,33,34
 379 635 379 635 363 623.5 c 128,-1,35
 347 612 347 612 329.5 600 c 128,-1,36
 312 588 312 588 300 580 c 128,-1,37
 288 572 288 572 288 572 c 1,38,-1
 215 572 l 1,20,21
EndSplineSet
Validated: 1
Substitution2: "'case' Case-Sensitive Forms lookup 15 subtable" uni030B.case
Substitution2: "Single Substitution lookup 7 subtable" uni030B.case
Substitution2: "Single Substitution lookup 6 subtable" uni030B.case
Substitution2: "Single Substitution lookup 4 subtable" uni030B.case
Substitution2: "Single Substitution lookup 3 subtable" uni030B.case
Substitution2: "'aalt' Access All Alternates lookup 0 subtable" uni030B.case
EndChar

StartChar: dotlessi
Encoding: 417 305 351
Width: 244
GlyphClass: 2
Flags: W
HStem: 0 21G<44 134.234> 428 68<69 135>
VStem: 44 191
AnchorPoint: "Anchor-2" 130 0 basechar 0
AnchorPoint: "Anchor-1" 165 496 basechar 0
AnchorPoint: "Anchor-0" 69 0 basechar 0
LayerCount: 2
Fore
SplineSet
44 0 m 1,0,-1
 135 428 l 1,1,-1
 55 428 l 1,2,-1
 69 496 l 1,3,-1
 235 496 l 1,4,-1
 130 0 l 1,5,-1
 44 0 l 1,0,-1
EndSplineSet
Validated: 1
EndChar

StartChar: uni00B5
Encoding: 181 181 356
Width: 550
GlyphClass: 2
Flags: W
HStem: -162 21G<-30 60.0404> -11 73<140.583 266.244> 476 20G<104.775 195 421.692 511>
AnchorPoint: "Anchor-2" 433 10 basechar 0
LayerCount: 2
Fore
SplineSet
-30 -162 m 1,0,-1
 109 496 l 1,1,-1
 195 496 l 1,2,-1
 133 205 l 2,3,4
 129 187 129 187 126.5 169.5 c 128,-1,5
 124 152 124 152 124 137 c 0,6,7
 124 104 124 104 140.5 83 c 128,-1,8
 157 62 157 62 201 62 c 0,9,10
 260 62 260 62 305 102.5 c 128,-1,11
 350 143 350 143 370 236 c 2,12,-1
 426 496 l 1,13,-1
 511 496 l 1,14,-1
 431 122 l 2,15,16
 425 94 425 94 431.5 84.5 c 128,-1,17
 438 75 438 75 460 75 c 0,18,19
 471 75 471 75 478 77 c 128,-1,20
 485 79 485 79 492 80 c 1,21,-1
 476 7 l 1,22,23
 466 5 466 5 452 2.5 c 128,-1,24
 438 0 438 0 415 0 c 0,25,26
 380 0 380 0 361 20 c 128,-1,27
 342 40 342 40 340 73 c 1,28,29
 311 35 311 35 269 12 c 128,-1,30
 227 -11 227 -11 171 -11 c 0,31,32
 136 -11 136 -11 114 -1.5 c 128,-1,33
 92 8 92 8 79 24 c 1,34,35
 80 1 80 1 80 -21.5 c 128,-1,36
 80 -44 80 -44 76 -63 c 2,37,-1
 56 -162 l 1,38,-1
 -30 -162 l 1,0,-1
EndSplineSet
Validated: 33
EndChar

StartChar: uni0328.case
Encoding: 423 -1 358
Width: 0
GlyphClass: 4
Flags: W
HStem: -173 57<36.8564 107.099> -20 20G<38 141>
VStem: -44 77<-110.566 -51.1006>
AnchorPoint: "Anchor-2" 141 0 mark 0
LayerCount: 2
Fore
SplineSet
40 -173 m 0,0,1
 -1 -173 -1 -173 -22.5 -153.5 c 128,-1,2
 -44 -134 -44 -134 -44 -106 c 0,3,4
 -44 -72 -44 -72 -15 -43 c 128,-1,5
 14 -14 14 -14 62 0 c 1,6,-1
 141 0 l 1,7,8
 94 -17 94 -17 63.5 -40 c 128,-1,9
 33 -63 33 -63 33 -89 c 0,10,11
 33 -101 33 -101 44.5 -108.5 c 128,-1,12
 56 -116 56 -116 74 -116 c 0,13,14
 94 -116 94 -116 118 -107 c 1,15,-1
 107 -161 l 1,16,17
 68 -173 68 -173 40 -173 c 0,0,1
EndSplineSet
Validated: 1
EndChar

StartChar: tildecomb
Encoding: 429 771 365
Width: 0
GlyphClass: 4
Flags: W
HStem: 575 63<289.547 389.277> 617 63<166.678 280.952>
AnchorPoint: "Anchor-4" 287 680 basemark 0
AnchorPoint: "Anchor-4" 248 496 mark 0
AnchorPoint: "Anchor-1" 248 496 mark 0
LayerCount: 2
Fore
SplineSet
346 575 m 0,0,1
 317 575 317 575 298 585.5 c 128,-1,2
 279 596 279 596 261 606.5 c 128,-1,3
 243 617 243 617 217 617 c 0,4,5
 173 617 173 617 155 577 c 1,6,-1
 90 577 l 1,7,8
 110 630 110 630 144 655 c 128,-1,9
 178 680 178 680 218 680 c 0,10,11
 251 680 251 680 271.5 669.5 c 128,-1,12
 292 659 292 659 309 648.5 c 128,-1,13
 326 638 326 638 346 638 c 0,14,15
 365 638 365 638 376 647.5 c 128,-1,16
 387 657 387 657 397 667 c 0,17,18
 410 680 410 680 424 680 c 0,19,20
 437 680 437 680 445.5 671 c 128,-1,21
 454 662 454 662 454 649 c 0,22,23
 454 640 454 640 449 632 c 0,24,25
 436 612 436 612 411.5 593.5 c 128,-1,26
 387 575 387 575 346 575 c 0,0,1
EndSplineSet
Validated: 1
Substitution2: "'case' Case-Sensitive Forms lookup 15 subtable" tildecomb.case
Substitution2: "Single Substitution lookup 7 subtable" tildecomb.case
Substitution2: "Single Substitution lookup 6 subtable" tildecomb.case
Substitution2: "Single Substitution lookup 4 subtable" tildecomb.case
Substitution2: "Single Substitution lookup 3 subtable" tildecomb.case
Substitution2: "'aalt' Access All Alternates lookup 0 subtable" tildecomb.case
EndChar

StartChar: zero.alt1
Encoding: 431 -1 367
Width: 644
Flags: W
HStem: -12.0111 75.0111<221.651 385.501> 605 75<282.302 445.62>
VStem: 65.8333 90.0238<172.16 418.634> 512 91<310.818 503.121>
LayerCount: 2
Fore
SplineSet
293 -12 m 0,0,1
 290 -12 290 -12 290 -12 c 0,2,3
 288.56640625 -12.0107421875 288.56640625 -12.0107421875 287.142578125 -12.0107421875 c 0,4,5
 160.400390625 -12.0107421875 160.400390625 -12.0107421875 107 76 c 0,6,7
 66 143 66 143 66 254 c 0,8,9
 65.8330078125 259.833007812 65.8330078125 259.833007812 65.8330078125 265.888671875 c 0,10,11
 65.8330078125 296.166992188 65.8330078125 296.166992188 70 332 c 0,12,13
 76 384 76 384 84 415 c 0,14,15
 117 545 117 545 190 612 c 0,16,17
 264 680 264 680 376 680 c 0,18,19
 379 680 379 680 379 680 c 0,20,21
 380.388671875 680.010742188 380.388671875 680.010742188 381.76953125 680.010742188 c 0,22,23
 504.633789062 680.010742188 504.633789062 680.010742188 561 592 c 0,24,25
 603 526 603 526 603 416 c 0,26,27
 603 383 603 383 599 345 c 0,28,29
 593 288 593 288 584 253 c 0,30,31
 552 125 552 125 478 57 c 0,32,33
 403 -12 403 -12 293 -12 c 0,0,1
166 171 m 1,34,-1
 458 575 l 1,35,36
 424 605 424 605 367 605 c 0,37,38
 308 605 308 605 270 576 c 0,39,40
 230 546 230 546 209 503 c 0,41,42
 191 466 191 466 175 410 c 0,43,44
 171 394 171 394 167 370 c 0,45,46
 162 340 162 340 161 333 c 0,47,48
 155.857421875 297 155.857421875 297 155.857421875 268.346679688 c 0,49,50
 155.857421875 263.571289062 155.857421875 263.571289062 156 259 c 0,51,52
 156 208 156 208 166 171 c 1,34,-1
302 63 m 0,53,54
 357 63 357 63 395 90 c 0,55,56
 435 118 435 118 457 161 c 0,57,58
 476 198 476 198 493 258 c 0,59,60
 498 275 498 275 501 297 c 0,61,62
 507 335 507 335 507 335 c 0,63,64
 512 372 512 372 512 409 c 0,65,66
 513 417 513 417 512 430 c 0,67,68
 508 476 508 476 500 504 c 1,69,-1
 205 97 l 1,70,71
 239 63 239 63 302 63 c 0,53,54
EndSplineSet
Validated: 1
Substitution2: "'zero' Slashed Zero lookup 0-1" zero
Substitution2: "'aalt' Access All Alternates lookup 0 subtable" zero
Substitution2: "'tnum' Tabular Numbers lookup 14 subtable" zero
EndChar

StartChar: copyleft
Encoding: 432 127279 368
Width: 810
Flags: W
HStem: -12 62<304.396 523.604> 150 59<346.657 471.658> 473 58<352.702 472.485> 618 62<304.396 523.604>
VStem: 68 62<224.396 443.604> 510 76<249.579 432.726> 698 62<224.396 443.604>
LayerCount: 2
Fore
SplineSet
414 -12 m 260,0,1
 342 -12 342 -12 279.5 15 c 128,-1,2
 217 42 217 42 169.5 89.5 c 128,-1,3
 122 137 122 137 95 199.5 c 128,-1,4
 68 262 68 262 68 334 c 256,5,6
 68 406 68 406 95 468.5 c 128,-1,7
 122 531 122 531 169.5 578.5 c 128,-1,8
 217 626 217 626 279.5 653 c 128,-1,9
 342 680 342 680 414 680 c 256,10,11
 486 680 486 680 548.5 653 c 128,-1,12
 611 626 611 626 658.5 578.5 c 128,-1,13
 706 531 706 531 733 468.5 c 128,-1,14
 760 406 760 406 760 334 c 256,15,16
 760 262 760 262 733 199.5 c 128,-1,17
 706 137 706 137 658.5 89.5 c 128,-1,18
 611 42 611 42 548.5 15 c 128,-1,19
 486 -12 486 -12 414 -12 c 260,0,1
414 50 m 256,20,21
 473 50 473 50 524.5 72 c 128,-1,22
 576 94 576 94 615 133 c 128,-1,23
 654 172 654 172 676 223.5 c 128,-1,24
 698 275 698 275 698 334 c 256,25,26
 698 393 698 393 676 444.5 c 128,-1,27
 654 496 654 496 615 535 c 128,-1,28
 576 574 576 574 524.5 596 c 128,-1,29
 473 618 473 618 414 618 c 256,30,31
 355 618 355 618 303.5 596 c 128,-1,32
 252 574 252 574 213 535 c 128,-1,33
 174 496 174 496 152 444.5 c 128,-1,34
 130 393 130 393 130 334 c 256,35,36
 130 275 130 275 152 223.5 c 128,-1,37
 174 172 174 172 213 133 c 128,-1,38
 252 94 252 94 303.5 72 c 128,-1,39
 355 50 355 50 414 50 c 256,20,21
412 150 m 0,40,41
 356 150 356 150 319 173 c 128,-1,42
 282 196 282 196 263 230 c 1,43,44
 263 230 263 230 329 254 c 1,45,46
 342 229 342 229 364.5 219 c 128,-1,47
 387 209 387 209 412 209 c 0,48,49
 455 209 455 209 482.5 242 c 128,-1,50
 510 275 510 275 510 342 c 256,51,52
 510 409 510 409 482.5 441 c 128,-1,53
 455 473 455 473 412 473 c 0,54,55
 358 473 358 473 332 424 c 1,56,57
 332 424 332 424 265 449 c 1,58,59
 284 485 284 485 320 508 c 128,-1,60
 356 531 356 531 410 531 c 0,61,62
 491 531 491 531 538.5 481 c 128,-1,63
 586 431 586 431 586 342 c 256,64,65
 586 253 586 253 541 201.5 c 128,-1,66
 496 150 496 150 412 150 c 0,40,41
EndSplineSet
Validated: 1
EndChar

StartChar: f_i
Encoding: 433 64257 369
Width: 533
Flags: W
HStem: 0 21G<35 125.252 311 401.234> 428 68<57 126 226 402> 591 125<447.722 537.92> 635 71<262.138 357>
VStem: 432 125<606.722 696.92>
LayerCount: 2
Fore
SplineSet
311 0 m 1,0,-1
 402 428 l 1,1,-1
 212 428 l 1,2,-1
 121 0 l 1,3,-1
 35 0 l 1,4,-1
 126 428 l 1,5,-1
 42 428 l 1,6,-1
 57 496 l 1,7,-1
 140 496 l 1,8,-1
 152 549 l 2,9,10
 163 598 163 598 177 631 c 0,11,12
 190 662 190 662 208 678 c 128,-1,13
 226 694 226 694 253 699.5 c 0,14,15
 285 706 285 706 321 706 c 2,16,-1
 372 706 l 1,17,-1
 357 635 l 1,18,-1
 333 635 l 2,19,20
 309 635 309 635 291 631 c 128,-1,21
 273 627 273 627 261 612 c 0,22,23
 248.536132812 596.659179688 248.536132812 596.659179688 241 563 c 2,24,-1
 226 496 l 1,25,-1
 502 496 l 1,26,-1
 397 0 l 1,27,-1
 311 0 l 1,0,-1
494 591 m 0,28,29
 469 591 469 591 450.5 609.5 c 128,-1,30
 432 628 432 628 432 653 c 0,31,32
 432 679 432 679 450.5 697.5 c 128,-1,33
 469 716 469 716 494 716 c 0,34,35
 520 716 520 716 538.5 697.5 c 128,-1,36
 557 679 557 679 557 653 c 0,37,38
 557 628 557 628 538.5 609.5 c 128,-1,39
 520 591 520 591 494 591 c 0,28,29
EndSplineSet
Validated: 1
LCarets2: 1 312
Ligature2: "'liga' Standard Ligatures lookup 0-1" f i
EndChar

StartChar: f_f
Encoding: 434 64256 370
Width: 592
Flags: W
HStem: 0 21G<35 125.252 311 401.252> 428 68<57 126 226 402 502 589> 635 71<262.138 357 538.138 633>
LayerCount: 2
Fore
SplineSet
311 0 m 1,0,-1
 402 428 l 1,1,-1
 212 428 l 1,2,-1
 121 0 l 1,3,-1
 35 0 l 1,4,-1
 126 428 l 1,5,-1
 42 428 l 1,6,-1
 57 496 l 1,7,-1
 140 496 l 1,8,-1
 152 549 l 2,9,10
 163 598 163 598 177 631 c 0,11,12
 190 662 190 662 208 678 c 128,-1,13
 226 694 226 694 253 699.5 c 0,14,15
 285 706 285 706 321 706 c 2,16,-1
 372 706 l 1,17,-1
 357 635 l 1,18,-1
 333 635 l 2,19,20
 309 635 309 635 291 631 c 128,-1,21
 273 627 273 627 261 612 c 0,22,23
 248.4609375 596.326171875 248.4609375 596.326171875 241 563 c 2,24,-1
 226 496 l 1,25,-1
 416 496 l 1,26,-1
 428 549 l 2,27,28
 439 598 439 598 453 631 c 0,29,30
 466 662 466 662 484 678 c 128,-1,31
 502 694 502 694 529 699.5 c 0,32,33
 561 706 561 706 597 706 c 2,34,-1
 648 706 l 1,35,-1
 633 635 l 1,36,-1
 609 635 l 2,37,38
 585 635 585 635 567 631 c 128,-1,39
 549 627 549 627 537 612 c 0,40,41
 524.4609375 596.326171875 524.4609375 596.326171875 517 563 c 2,42,-1
 502 496 l 1,43,-1
 604 496 l 1,44,-1
 589 428 l 1,45,-1
 488 428 l 1,46,-1
 397 0 l 1,47,-1
 311 0 l 1,0,-1
EndSplineSet
Validated: 1
LCarets2: 1 252
Ligature2: "'liga' Standard Ligatures lookup 0-1" f f
EndChar

StartChar: f_f_i
Encoding: 435 64259 371
Width: 809
Flags: W
HStem: 0 21G<35 125.252 311 401.252 587 677.234> 428 68<57 126 226 402 502 678> 591 125<723.722 813.92> 635 71<262.138 357 538.138 633>
VStem: 708 125<606.722 696.92>
LayerCount: 2
Fore
SplineSet
587 0 m 1,0,-1
 678 428 l 1,1,-1
 488 428 l 1,2,-1
 397 0 l 1,3,-1
 311 0 l 1,4,-1
 402 428 l 1,5,-1
 212 428 l 1,6,-1
 121 0 l 1,7,-1
 35 0 l 1,8,-1
 126 428 l 1,9,-1
 42 428 l 1,10,-1
 57 496 l 1,11,-1
 140 496 l 1,12,-1
 152 549 l 2,13,14
 163 598 163 598 177 631 c 0,15,16
 190 662 190 662 208 678 c 128,-1,17
 226 694 226 694 253 699.5 c 0,18,19
 285 706 285 706 321 706 c 2,20,-1
 372 706 l 1,21,-1
 357 635 l 1,22,-1
 333 635 l 2,23,24
 309 635 309 635 291 631 c 128,-1,25
 273 627 273 627 261 612 c 0,26,27
 248.4609375 596.326171875 248.4609375 596.326171875 241 563 c 2,28,-1
 226 496 l 1,29,-1
 416 496 l 1,30,-1
 428 549 l 2,31,32
 439 598 439 598 453 631 c 0,33,34
 466 662 466 662 484 678 c 128,-1,35
 502 694 502 694 529 699.5 c 0,36,37
 561 706 561 706 597 706 c 2,38,-1
 648 706 l 1,39,-1
 633 635 l 1,40,-1
 609 635 l 2,41,42
 585 635 585 635 567 631 c 128,-1,43
 549 627 549 627 537 612 c 0,44,45
 524.536132812 596.659179688 524.536132812 596.659179688 517 563 c 2,46,-1
 502 496 l 1,47,-1
 778 496 l 1,48,-1
 673 0 l 1,49,-1
 587 0 l 1,0,-1
770 591 m 0,50,51
 745 591 745 591 726.5 609.5 c 128,-1,52
 708 628 708 628 708 653 c 0,53,54
 708 679 708 679 726.5 697.5 c 128,-1,55
 745 716 745 716 770 716 c 0,56,57
 796 716 796 716 814.5 697.5 c 128,-1,58
 833 679 833 679 833 653 c 0,59,60
 833 628 833 628 814.5 609.5 c 128,-1,61
 796 591 796 591 770 591 c 0,50,51
EndSplineSet
Validated: 1
LCarets2: 2 314 588
Ligature2: "'liga' Standard Ligatures lookup 0-1" f f i
EndChar

StartChar: f_l
Encoding: 436 64258 372
Width: 561
Flags: W
HStem: 0 75<431.285 486> 428 68<57 126 226 402.171> 635 71<262.138 357> 648 20G<448.764 539>
VStem: 331 91<50 190.391>
LayerCount: 2
Fore
SplineSet
35 0 m 1,0,-1
 126 428 l 1,1,-1
 42 428 l 1,2,-1
 57 496 l 1,3,-1
 140 496 l 1,4,-1
 152 549 l 2,5,6
 163 598 163 598 177 631 c 0,7,8
 190 662 190 662 208 678 c 128,-1,9
 226 694 226 694 253 699.5 c 0,10,11
 285 706 285 706 321 706 c 2,12,-1
 372 706 l 1,13,-1
 357 635 l 1,14,-1
 333 635 l 2,15,16
 309 635 309 635 291 631 c 128,-1,17
 273 627 273 627 261 612 c 0,18,19
 248.536132812 596.659179688 248.536132812 596.659179688 241 563 c 2,20,-1
 226 496 l 1,21,-1
 416.572265625 496 l 1,22,-1
 453 668 l 1,23,-1
 539 668 l 1,24,-1
 427 140 l 2,25,26
 426 133 426 133 423.5 120 c 0,27,28
 422 111 422 111 422 104 c 0,29,30
 422 89 422 89 431 82 c 128,-1,31
 440 75 440 75 465 75 c 2,32,-1
 502 75 l 1,33,-1
 486 0 l 1,34,-1
 430 0 l 2,35,36
 372 0 372 0 351.5 16.5 c 128,-1,37
 331 33 331 33 331 67 c 0,38,39
 331 91.947265625 331 91.947265625 338 125 c 2,40,-1
 402.170898438 428 l 1,41,-1
 212 428 l 1,42,-1
 121 0 l 1,43,-1
 35 0 l 1,0,-1
EndSplineSet
Validated: 1
LCarets2: 1 256
Ligature2: "'liga' Standard Ligatures lookup 0-1" f l
EndChar

StartChar: f_f_l
Encoding: 437 64260 373
Width: 837
Flags: W
HStem: 0 75<707.285 762> 428 68<57 126 226 402 502 678.171> 635 71<262.138 357 538.138 633> 648 20G<724.764 815>
VStem: 607 91<50 190.391>
LayerCount: 2
Fore
SplineSet
706 0 m 2,0,1
 648 0 648 0 627.5 16.5 c 128,-1,2
 607 33 607 33 607 67 c 0,3,4
 607 91.947265625 607 91.947265625 614 125 c 2,5,-1
 678.170898438 428 l 1,6,-1
 488 428 l 1,7,-1
 397 0 l 1,8,-1
 311 0 l 1,9,-1
 402 428 l 1,10,-1
 212 428 l 1,11,-1
 121 0 l 1,12,-1
 35 0 l 1,13,-1
 126 428 l 1,14,-1
 42 428 l 1,15,-1
 57 496 l 1,16,-1
 140 496 l 1,17,-1
 152 549 l 2,18,19
 163 598 163 598 177 631 c 0,20,21
 190 662 190 662 208 678 c 128,-1,22
 226 694 226 694 253 699.5 c 0,23,24
 285 706 285 706 321 706 c 2,25,-1
 372 706 l 1,26,-1
 357 635 l 1,27,-1
 333 635 l 2,28,29
 309 635 309 635 291 631 c 128,-1,30
 273 627 273 627 261 612 c 0,31,32
 248.536132812 596.659179688 248.536132812 596.659179688 241 563 c 2,33,-1
 226 496 l 1,34,-1
 416 496 l 1,35,-1
 428 549 l 2,36,37
 439 598 439 598 453 631 c 0,38,39
 466 662 466 662 484 678 c 128,-1,40
 502 694 502 694 529 699.5 c 0,41,42
 561 706 561 706 597 706 c 2,43,-1
 648 706 l 1,44,-1
 633 635 l 1,45,-1
 609 635 l 2,46,47
 585 635 585 635 567 631 c 128,-1,48
 549 627 549 627 537 612 c 0,49,50
 524.4609375 596.326171875 524.4609375 596.326171875 517 563 c 2,51,-1
 502 496 l 1,52,-1
 692.572265625 496 l 1,53,-1
 729 668 l 1,54,-1
 815 668 l 1,55,-1
 703 140 l 2,56,57
 702 133 702 133 699.5 120 c 0,58,59
 698 111 698 111 698 104 c 0,60,61
 698 89 698 89 707 82 c 128,-1,62
 716 75 716 75 741 75 c 2,63,-1
 778 75 l 1,64,-1
 762 0 l 1,65,-1
 706 0 l 2,0,1
EndSplineSet
Validated: 1
LCarets2: 2 274 584
Ligature2: "'liga' Standard Ligatures lookup 0-1" f f l
EndChar
